<svg xmlns="http://www.w3.org/2000/svg" viewBox="0 0 330.31 323.81"><defs><style>.cls-1{fill:#003764;}.cls-2{fill:#f4b223;}.cls-3{font-size:33.91px;fill:#fff;font-family:DINBold, DIN;}.cls-4{letter-spacing:-0.08em;}.cls-5{letter-spacing:-0.1em;}</style></defs><title>Asset 1</title><g id="Layer_2" data-name="Layer 2"><g id="Light_Color" data-name="Light Color"><g id="Pantone_2955C" data-name="Pantone 2955C"><path class="cls-1" d="M304.88,128.1l-4.64-.22.06,16.8,3.52.35c2.36.24,3.95-.19,4.77-1.31s1.22-3.42,1.21-6.92a15.26,15.26,0,0,0-1-6.28A4.26,4.26,0,0,0,304.88,128.1Z"/><path class="cls-1" d="M328.73,118.76c-2.84-11.46-10.79-18-21.79-18.06q-6.36,0-12.72-.06l-6.12,0-9.43,0-6.58,0h-2.54l-6.67,0c.08-2.65,0-5.32-.1-8a2.28,2.28,0,0,0,0-.26A97.72,97.72,0,0,0,165.23,0c-1.77,0-3.57.05-5.35.14a97.92,97.92,0,0,0-92.37,92.7q-.2,3.8-.08,7.68l-5.1,0H60.76l-15.46,0-2.92,0-6.34,0H34.15l-23.94.12-1,8.26C7,127.39,4.77,146.09,2.66,164.57a17.31,17.31,0,0,1-.48,2.66L0,169.29v22.88l.08,0,42.72,14h.06v0h0l3.81-13.49,3.9-1.18c1.24-.37,20.59-6.12,51.8-10.26,3.18-.42,6.49-.83,9.91-1.21,12-1.34,25.47-2.38,40.09-2.81h0q7-.21,14.3-.21,5.82,0,11.6.14h0q20.22.48,39.93,2.68h0q5,.56,9.86,1.21a426.65,426.65,0,0,1,52.65,10.39l4.2,1.11,2.44,9.4,1.06,4.08,0,.09.11-.06,24.29-13.66-.08-22.68c5.57-.85,14-4.6,16.56-19a87.66,87.66,0,0,0,.95-14.85C330.31,128.63,329.79,123,328.73,118.76ZM44,175.63q-7.68,1.38-15.33,2.94c0-3.51,0-7,0-10.52A3,3,0,0,0,31,164.8a15.44,15.44,0,0,0-.16-2.09c-.12-.9-.23-1.79-.35-2.68-2.89.42-5.77.85-8.66,1.29-.13,1-.27,1.92-.41,2.88a13.52,13.52,0,0,0-.1,1.9c0,2,.8,2.94,2.41,2.82l0,10.68q-6.81,1.44-13.61,3V171.46q1.89-1.64,2.58-7,3.22-25.77,6.52-50.48l15.62-.06q3.34,23.71,6.66,46.48.63,4.38,2.57,5.21ZM246.37,70.46l-1.64.68-1-2.33L236,72l-.73-1.74L243,67.07l-1-2.33,1.64-.68Zm-6.7-14.07-3.87,2.16,5.52.82,1.12,2-5.09-.83-3.67,6-1.07-1.92,2.82-4.43-2-.32-2.66,1.5-.92-1.65,8.88-5Zm-6.88-10.27,3.73,5.15-1.43,1-2.64-3.62-1.92,1.4,2.24,3.08-1.43,1-2.25-3.08-2,1.45,2.63,3.62-1.43,1-3.74-5.15ZM190.53,16.34l1.77.65-1.43,3.9L193.94,22l1.43-3.9,1.76.65-3.49,9.55-1.77-.65,1.46-4-3.07-1.12-1.46,4L187,25.89Zm-11-2.69,3.79.82a3,3,0,0,1,2,1.21,2.77,2.77,0,0,1,.33,2.21,2.41,2.41,0,0,1-.69,1.27,2.07,2.07,0,0,1-.92.53,2.3,2.3,0,0,1,.81,2.51,2.79,2.79,0,0,1-1.25,1.95,3,3,0,0,1-2.25.3l-4-.86Zm-11.29-1.18,3.48.27a3.32,3.32,0,0,1,2.47,1.15,3.54,3.54,0,0,1,.75,1.95,16.93,16.93,0,0,1-.09,2.19,17.29,17.29,0,0,1-.25,2.21,3.45,3.45,0,0,1-1,1.86,3.38,3.38,0,0,1-2.62.78l-3.48-.27Zm-18.44,1.46a3,3,0,0,1,2.43.46,3.06,3.06,0,0,1,1.24,2,3,3,0,0,1-.19,1.81,2.57,2.57,0,0,1-1,1.15l3,3.89-2.15.42L150.44,20l-1.33.26.77,4-1.84.36-1.95-10ZM136.7,17.52l1.35,3.93,3.09-1.06-1.35-3.93,1.78-.61,3.3,9.62-1.78.61-1.38-4-3.09,1.06,1.38,4-1.78.62-3.3-9.63ZM116.62,29A3.41,3.41,0,0,1,118.18,27a4.19,4.19,0,0,1,3.24-.78l-.29,1.7a2.74,2.74,0,0,0-2,.54,1.63,1.63,0,0,0-.7.92,1.23,1.23,0,0,0,.2,1,1,1,0,0,0,.67.44,1.45,1.45,0,0,0,.94-.17l1-.5a3.18,3.18,0,0,1,2-.38A2.89,2.89,0,0,1,125,31.06a2.75,2.75,0,0,1,.43,2.44,3.91,3.91,0,0,1-1.66,2.12,4.58,4.58,0,0,1-3.67.87l.29-1.74a3.1,3.1,0,0,0,2.41-.61c.94-.64,1.17-1.3.7-2a1.15,1.15,0,0,0-.71-.54,1.56,1.56,0,0,0-.92.18l-1.06.52a2.65,2.65,0,0,1-3.73-.91A2.94,2.94,0,0,1,116.62,29ZM97,47.53a3,3,0,0,1,4.43-.71,3.17,3.17,0,0,1,1.31,2,3.13,3.13,0,0,1-.62,2.46L101,52.76l3.1,2.26L103,56.55l-8.22-6Zm-8,13,6,.4L91.32,56.1l.9-1.66,8.94,4.84-.9,1.65-5.21-2.81,2.51,3.45L97,62.7l-4.28-.21,5.22,2.82L97,67l-8.94-4.84Zm-3.61,8.16L96.09,69l-.71,1.84-1.88-.11-1.22,3.21,1.47,1.18L93.06,77l-8.26-6.9Zm4.26,51.41c0,.88,0,1.76,0,2.64a3,3,0,0,0-2.14,2.08,14.5,14.5,0,0,0-.29,3.51l-.21,26.44c0,.65,0,1.22,0,1.71a9,9,0,0,0,.21,1.77,2.57,2.57,0,0,0,2.11,1.84c0,3,0,6-.07,9l-.33,0c-5,.55-9.88,1.15-14.82,1.82,0-3.1,0-6.2.08-9.3a3.47,3.47,0,0,0,2.13-2.32,16.35,16.35,0,0,0,.3-3.61c0-.85,0-1.71,0-2.56q.06-6.85.11-13.7c0-2,0-4.08,0-6.11-.3,1.4-.61,2.81-.91,4.22q-1.12,5.2-2.25,10.46-2.49,11.7-5,23.67l-5,.73q-3.51-18.48-7-37.64-.07,11.55-.16,23.11a16.17,16.17,0,0,0,.23,3.73,2.48,2.48,0,0,0,2.1,1.9c0,3.22,0,6.44-.07,9.66-4.37.69-8.73,1.41-13.08,2.19l.06-10a3.75,3.75,0,0,0,2.12-2.55,18,18,0,0,0,.29-3.89l.18-29A16.75,16.75,0,0,0,48,126a2.81,2.81,0,0,0-2.1-2.17l.06-10,16,0h.92q1.44,8.08,2.87,16,1.05,5.74,2.08,11.44c.24-1.26.48-2.51.73-3.76q1.26-6.56,2.54-13,1.05-5.4,2.11-10.73h3.17l13.26,0C89.63,115.83,89.61,118,89.59,120.08Zm2.17-37.91a4.63,4.63,0,0,1-2.18,3.09l-.93-1.51a3.05,3.05,0,0,0,1.4-2c.28-1.1,0-1.76-.8-2a1.14,1.14,0,0,0-.89.07,1.48,1.48,0,0,0-.57.75l-.45,1.09A2.64,2.64,0,0,1,84,83.43,2.94,2.94,0,0,1,82,82a3.42,3.42,0,0,1-.22-2.59,4.21,4.21,0,0,1,1.92-2.73l.91,1.47a2.66,2.66,0,0,0-1.17,1.75A1.52,1.52,0,0,0,83.53,81a1.24,1.24,0,0,0,.8.61,1,1,0,0,0,.79-.11,1.59,1.59,0,0,0,.6-.75l.44-1.06a3.32,3.32,0,0,1,1.22-1.6,2.91,2.91,0,0,1,2.27-.19,2.77,2.77,0,0,1,1.95,1.54A3.94,3.94,0,0,1,91.76,82.17Zm34.95,83.76-2.1.13c-3.08.17-6.17.38-9.25.6a25.56,25.56,0,0,1-.82-7.79c0-.29,0-.58,0-.87h0c0-2.13,0-4.25,0-6.39s-.34-3.66-1.06-4.53-2-1.27-3.8-1.18l-3.8.19c0,.7,0,1.41,0,2.11,0,1.71,0,3.42,0,5.14a13.1,13.1,0,0,0,.24,3.37,2.58,2.58,0,0,0,2.11,1.81l-.06,8.71q-5.42.45-10.81,1-2.19.21-4.38.45c0-1.63,0-3.26,0-4.89l0-4.05a3.29,3.29,0,0,0,2.14-2.19,14.47,14.47,0,0,0,.3-3.47q.09-12.59.19-25.18h0c0-.28,0-.54,0-.82a14.5,14.5,0,0,0-.24-3.44,2.63,2.63,0,0,0-1.64-1.82,3.1,3.1,0,0,0-.46-.15c0-.55,0-1.1,0-1.65h0c0-.31,0-.6,0-.9q0-3.19,0-6.37h18.47c4.22,0,7.31.74,9.29,2.22a10.73,10.73,0,0,1,3.32,4.19A18.4,18.4,0,0,1,126,126.7c.05.64.06,1.3.06,2a20.87,20.87,0,0,1-.53,4.76q-1.41,5.9-6.68,7.67,6,.94,6,7.54c0,.19,0,.55,0,1.06s0,.72,0,1c0,.7,0,1.23,0,1.6s0,.51,0,.77c0,2.27.62,3.71,1.91,4.32C126.74,160.26,126.73,163.1,126.71,165.93Zm.73-136.88-3-6,1.68-.85,3,5.9a1.93,1.93,0,0,0,1,1,1.76,1.76,0,0,0,2.18-1.11,2,2,0,0,0-.21-1.43l-3-5.9,1.68-.85,3,6a3.42,3.42,0,0,1,.27,2.76,3.48,3.48,0,0,1-1.82,2,3.43,3.43,0,0,1-4.78-1.59ZM163,122a2.65,2.65,0,0,0-2.13,1.84,13.57,13.57,0,0,0-.26,3.27c0,1.87,0,3.73,0,5.6v6.2c0,3.21,0,6.42,0,9.63q0,6.69-1.34,9.81c-.09.2-.18.38-.27.56a11.83,11.83,0,0,1-5.69,5.42,18.7,18.7,0,0,1-7.42,1.55,20.47,20.47,0,0,1-2.5-.06c-4.81-.37-8.26-2.33-10.38-6a14.08,14.08,0,0,1-1.73-6.45q0-.78,0-1.59c0-1,0-2.06,0-3.09q0-6.58.07-13.16l0-6.71c0-.51,0-1,0-1.52a13.6,13.6,0,0,0-.25-3.28,2.67,2.67,0,0,0-2.08-1.89c0-.68,0-1.37,0-2l0-6.43,15.13,0q0,3.23,0,6.45V122a2.8,2.8,0,0,0-2.1,1.9,12.61,12.61,0,0,0-.28,3.25c0,1.45,0,2.91,0,4.36,0,2.14,0,4.27,0,6.41,0,3.6,0,7.19,0,10.79a10.23,10.23,0,0,0,.72,4.6c.79,1.49,2.21,2.2,4.27,2.16,3.16-.07,4.75-2.41,4.76-7.05q0-4.78,0-9.56,0-3.1,0-6.21c0-1.86,0-3.71,0-5.57a12.81,12.81,0,0,0-.25-3.24,2.74,2.74,0,0,0-2.12-1.87v-1.91c0-2.15,0-4.3,0-6.45H163ZM162.6,20.89l-3.42.19-.47,1.84-2,.12,2.89-10.37,1.48-.09,4.13,10-2,.12ZM191.41,134.7l0-5.64a8.34,8.34,0,0,0-.77-4.14,4,4,0,0,0-3.33-1.65q0,14.21.1,28.42a12.62,12.62,0,0,0,.27,3.25,3,3,0,0,0,2.14,1.95q0,3.31,0,6.62c0,.6,0,1.19,0,1.79l-4.75-.16c-3.5-.1-7-.17-10.49-.22v-2.09c0-2.08,0-4.17,0-6.25a2.78,2.78,0,0,0,2.12-1.86,12.12,12.12,0,0,0,.27-3.23q0-14.13-.05-28.27a4,4,0,0,0-3.74,3.09,9.71,9.71,0,0,0-.37,2.87v2c0,1.11,0,2.22,0,3.34l-8.41,0v-2.11q0-6.15,0-12.3v-6.45H199.7l0,6.44q0,7.4.08,14.78ZM203.25,33.15l-1.74-.92.33-1.85-3-1.6-1.35,1.32-1.75-.92,7.85-7.36,1.31.69ZM208,36.4l-1.15-.81L210,25.42l1.6,1.11-2.19,6.56,5.38-4.34,1.61,1.12ZM241.9,168.51a26.26,26.26,0,0,1-9.22.83l-.88-.1c-6-.78-10.17-3.21-12.56-7.33a14.72,14.72,0,0,1-1.61-5.77,34.25,34.25,0,0,1-.18-3.51l-.06-9.29-.12-16.62a17.83,17.83,0,0,1,1.07-6.64q2.1-5.43,8.37-6.94a22.79,22.79,0,0,1,5.47-.6,28.79,28.79,0,0,1,6.17.65,28.49,28.49,0,0,1,8.73,3.46l0,3.43.09,12.38-9.8-.38c0-.51,0-1,0-1.53q0-3.81-1.51-5.54a4.19,4.19,0,0,0-3.28-1.41q-5-.09-4.91,7.43l.09,12.12c0,2.5,0,5,0,7.52a11.41,11.41,0,0,0,1,5.33,4.77,4.77,0,0,0,4.06,2.31q4.73.39,4.66-7c0-1.49,0-3,0-4.47,3.27.21,6.55.44,9.81.68l0,3.1.09,11.35c0,1.54,0,3.08,0,4.62A40.48,40.48,0,0,1,241.9,168.51Zm-2-84.51-.55-1.89,1.57-1-1-3.29-1.89,0-.55-1.9,10.75.54.41,1.41Zm42.38,42a17.33,17.33,0,0,0-.24,3.88q.07,12.78.16,25.56c0,5.82-.47,9.87-1.5,12.11-2.3,5-6.6,6.84-12.91,5.86q-9.09-1.41-12.86-9a20,20,0,0,1-1.86-9.07c0-.42,0-.84,0-1.27,0-.7,0-1.4,0-2.1L253,140.7l-.09-12.06a16.18,16.18,0,0,0-.29-3.59,3,3,0,0,0-2.11-2.13c0-1,0-1.89,0-2.84,0-2.11,0-4.23,0-6.34l9.6,0h5.53c0,3.17,0,6.35.07,9.52a2.78,2.78,0,0,0-2.07,2.08,16,16,0,0,0-.24,3.65l0,4.34q.09,10,.16,20a14,14,0,0,0,.77,5.28,5,5,0,0,0,4.27,3.08c3.13.4,4.68-2.08,4.64-7.48q-.07-12.39-.17-24.77a17.69,17.69,0,0,0-.29-3.76,3.07,3.07,0,0,0-2.14-2.25q0-4.82-.07-9.63l13.84,0,.06,10A2.71,2.71,0,0,0,282.29,126Zm37.1,23.31c-1.56,8-5.77,11.27-12.69,10.23-2.11-.32-4.23-.62-6.34-.92,0,1,0,1.89,0,2.83a19.12,19.12,0,0,0,.28,4.06,5.33,5.33,0,0,0,2.11,2.77l0,10.55q-7.49-1.53-15-2.9l-.06-10.09a2.5,2.5,0,0,0,2.09-2,17.93,17.93,0,0,0,.24-3.89q-.07-14.86-.16-29.71a19.07,19.07,0,0,0-.28-4A3.17,3.17,0,0,0,287.5,124l-.06-10.09,18.74.07c6.66,0,10.9,3.26,12.71,9.92a54.27,54.27,0,0,1,1.29,13.47A67.63,67.63,0,0,1,319.39,149.29Z"/><path class="cls-1" d="M114,124.87a6.84,6.84,0,0,0-4.14-1.05h-.46l-3.31.06-.06,8.83,0,3.81,2.07-.08,1.94-.07a6.19,6.19,0,0,0,3.89-1.11c1.16-1,1.74-2.86,1.76-5.45a11.35,11.35,0,0,0-.1-1.7A4.89,4.89,0,0,0,114,124.87Z"/><path class="cls-1" d="M23.09,151.59l6.11-.73q-1.57-10.41-3.16-21Q24.57,140.62,23.09,151.59Z"/><polygon class="cls-1" points="90.91 72.84 91.76 70.6 87.89 70.38 90.91 72.84"/><path class="cls-1" d="M100.29,48.35a1.43,1.43,0,0,0-1-.3,1.4,1.4,0,0,0-.91.6l-1,1.42,2.25,1.64,1-1.42a1.37,1.37,0,0,0,.28-1A1.31,1.31,0,0,0,100.29,48.35Z"/><path class="cls-1" d="M150.53,18.32a1.34,1.34,0,0,0,.9-.55,1.42,1.42,0,0,0-.36-1.9,1.37,1.37,0,0,0-1-.18l-1.75.34.5,2.63Z"/><polygon class="cls-1" points="159.61 19.39 162 19.25 160.61 15.63 159.61 19.39"/><path class="cls-1" d="M172.78,19.64a13.13,13.13,0,0,0,.2-1.75,15.1,15.1,0,0,0,.06-1.73,1.83,1.83,0,0,0-.26-.94,1.7,1.7,0,0,0-1.37-.73L170,14.37,169.5,21l1.41.1a1.66,1.66,0,0,0,1.46-.52A1.92,1.92,0,0,0,172.78,19.64Z"/><path class="cls-1" d="M182.52,22.52a1.25,1.25,0,0,0-.46-2.29l-1.93-.42-.53,2.45,1.93.42A1.26,1.26,0,0,0,182.52,22.52Z"/><path class="cls-1" d="M183.28,18.34a1.14,1.14,0,0,0,.5-.76,1.11,1.11,0,0,0-.14-.9,1.22,1.22,0,0,0-.83-.51l-1.8-.39-.5,2.29,1.8.39A1.25,1.25,0,0,0,183.28,18.34Z"/><polygon class="cls-1" points="202.18 28.67 202.86 24.84 200.05 27.55 202.18 28.67"/><polygon class="cls-1" points="242.39 80.11 245.62 77.95 241.72 77.81 242.39 80.11"/><path class="cls-1" d="M246.58,238.57l-1.46-.43-2-.35a431.7,431.7,0,0,0-73.29-6.11,478.55,478.55,0,0,0-80.84,7l-3.65.64-1.44.27-4.3,16.27h-.15c31.15,57.33,85.76,68,85.76,68s54.74-10.68,85.87-68.17Zm-34.4,5.34,2.27.23q-.47,4.5-.94,9c1.73.18,3.46.37,5.18.57-.07.64-.14,1.27-.22,1.9-2.46-.29-4.92-.55-7.38-.8C211.45,251.17,211.82,247.54,212.18,243.91Zm-97.73,30-2.13.25c-.36-3-.71-6-1.07-9l-2.91.36-.24-1.89q4-.51,8-.95c.06.64.13,1.27.2,1.9l-2.91.32C113.76,267.88,114.11,270.87,114.45,273.86Zm.71-18.64q-2.47-5.24-5-10.44l2.36-.27q1.56,3.41,3.09,6.83c.52-2.44,1-4.89,1.58-7.33l2.38-.24q-1.41,5.64-2.72,11.28Zm12.42,14.32a3.44,3.44,0,0,1-.79,2,4.32,4.32,0,0,1-5.93.55,3.57,3.57,0,0,1-1.15-1.78,17.38,17.38,0,0,1-.37-2.45,16.14,16.14,0,0,1-.13-2.48,3.53,3.53,0,0,1,.78-2,4.42,4.42,0,0,1,6-.56,3.42,3.42,0,0,1,1.14,1.8,22.74,22.74,0,0,1,.41,4.93Zm-.5-15.36a4.39,4.39,0,0,1-3.2-.93,3.53,3.53,0,0,1-1.16-1.79,15.28,15.28,0,0,1-.36-2.46,14.56,14.56,0,0,1-.09-2.47,3.42,3.42,0,0,1,.84-2,4.74,4.74,0,0,1,6.29-.52,3.4,3.4,0,0,1,1.15,1.81,14.34,14.34,0,0,1,.33,2.46,12.94,12.94,0,0,1,0,2.48,3.4,3.4,0,0,1-.85,2A4.35,4.35,0,0,1,127.08,254.18Zm11,16.63a4.47,4.47,0,0,1-5.76.39,3.59,3.59,0,0,1-1.37-2.68q-.28-3.58-.55-7.17l2.19-.17.51,7.1a2.07,2.07,0,0,0,.61,1.44,2.09,2.09,0,0,0,2.79-.19,2.05,2.05,0,0,0,.43-1.51l-.45-7.1,2.17-.13.42,7.18A3.64,3.64,0,0,1,138.06,270.81Zm-3.23-17.3c-.24-3.64-.47-7.28-.71-10.92l2.28-.14.54,9c1.74-.11,3.47-.2,5.2-.29,0,.63.06,1.27.1,1.9Q138.54,253.28,134.83,253.51Zm13.88,17.75c-.77-1.42-1.54-2.85-2.33-4.27l-1.55.07c.07,1.45.13,2.9.2,4.36l-2.14.1c-.18-3.65-.37-7.29-.55-10.93,1.47-.08,2.93-.14,4.4-.2a3.66,3.66,0,0,1,2.72.88,3.15,3.15,0,0,1,1,2.33,3,3,0,0,1-.54,1.9,3.13,3.13,0,0,1-1.39,1.05c.89,1.54,1.76,3.08,2.63,4.63Zm-3.38-18.32c-.16-3.64-.31-7.29-.47-10.93l2.28-.1c.12,3,.23,6,.35,9,1.73-.07,3.46-.13,5.2-.17,0,.63,0,1.27.05,1.9C150.27,252.75,147.8,252.83,145.33,252.94Zm15.34,18q-2.21-3.33-4.47-6.65.06,3.36.13,6.72l-2.14,0-.27-10.94,2,0q2.28,3.3,4.52,6.63,0-3.35-.07-6.7l2.19,0,.06,11Zm-4.84-18.37c-.07-3.65-.14-7.29-.22-10.94q3.85-.07,7.71-.09v1.9l-5.39.05,0,2.57,4.58,0c0,.64,0,1.27,0,1.91-1.52,0-3,0-4.56,0,0,.88,0,1.77,0,2.65l5.32,0c0,.64,0,1.27,0,1.91Q159.59,252.54,155.83,252.61ZM172.61,271c-.2-.65-.41-1.3-.62-1.94l-3.91-.05L167.4,271h-2.23q2-5.47,4.09-10.93l1.72,0q2,5.51,3.86,11Zm-1.36-22.95-.06,4.48-2.22,0c0-1.49,0-3,0-4.49-1.14-2.16-2.29-4.31-3.46-6.47H168c.72,1.48,1.43,2.95,2.14,4.43q1.08-2.19,2.19-4.38l2.48,0Q173,244.87,171.25,248.07Zm6.32-6.34c1.56.05,3.13.09,4.69.15a4,4,0,0,1,2.62.93,2.82,2.82,0,0,1,.86,2.29,2.41,2.41,0,0,1-.55,1.46,2.52,2.52,0,0,1-1,.73,2.5,2.5,0,0,1,1.49,2.53,2.93,2.93,0,0,1-1.07,2.27,3.74,3.74,0,0,1-2.57.73l-4.78-.15C177.38,249,177.47,245.38,177.57,241.73Zm9.79,29.78-2.14-.1c.1-2.12.19-4.25.29-6.37-.77,1.35-1.54,2.7-2.29,4.06l-1.46-.06q-1-2.12-2-4.22l-.21,6.37-2.14-.06.3-10.94,2.16.06c.91,2,1.8,4,2.69,6,1-1.93,2.08-3.86,3.13-5.79l2.2.11Q187.63,266.05,187.36,271.51Zm2.83-18.32-2.33-.12q2.35-5.35,4.79-10.7l1.79.11q1.78,5.6,3.49,11.2l-2.33-.16-.54-2L191,251.3C190.72,251.93,190.45,252.56,190.19,253.19Zm8.84,10c-1.72-.13-3.45-.25-5.18-.36,0,.86-.1,1.71-.16,2.56l4.39.3c-.05.64-.1,1.27-.14,1.9l-4.37-.29c0,.88-.11,1.76-.17,2.65,1.7.11,3.4.22,5.1.35-.05.63-.1,1.27-.14,1.9-2.41-.18-4.81-.34-7.22-.48q.33-5.46.64-10.92c2.47.14,4.93.31,7.39.49C199.13,261.92,199.08,262.56,199,263.19ZM201.45,243l2.28.18c-.24,3-.49,6-.73,9,1.73.14,3.45.3,5.18.46-.06.63-.11,1.26-.17,1.89-2.47-.23-4.93-.43-7.39-.62C200.9,250.24,201.17,246.6,201.45,243Zm8.6,30.26-1.91-.19c-1.22-2.36-2.47-4.73-3.74-7.09-.2,2.23-.39,4.46-.59,6.69l-2.13-.18.9-10.9,1.95.16c1.28,2.36,2.55,4.72,3.79,7.08.21-2.22.43-4.45.64-6.67l2.19.22Q210.6,267.78,210.05,273.23ZM222,265.5l-2.91-.36c-.36,3-.71,6-1.07,9l-2.13-.25q.51-4.49,1-9l-2.91-.32c.07-.63.14-1.26.2-1.9q4,.43,8,.95Z"/><path class="cls-1" d="M191.72,249.54l2.85.17c-.38-1.35-.77-2.71-1.16-4.06C192.84,246.94,192.28,248.24,191.72,249.54Z"/><path class="cls-1" d="M125.18,265.66a2.48,2.48,0,0,0-.65-1.42,1.75,1.75,0,0,0-1.44-.45,1.82,1.82,0,0,0-1.36.71,2.6,2.6,0,0,0-.36,1.52c0,.18,0,.71.13,1.59s.15,1.41.18,1.59a2.65,2.65,0,0,0,.64,1.42,1.79,1.79,0,0,0,1.44.45,1.76,1.76,0,0,0,1.43-.87,6,6,0,0,0,.16-2.95C125.28,266.42,125.22,265.89,125.18,265.66Z"/><path class="cls-1" d="M183.46,249.62a1.34,1.34,0,0,0-.35-1,1.56,1.56,0,0,0-1.11-.42l-2.35-.08c0,.9-.05,1.8-.08,2.69l2.34.08a1.52,1.52,0,0,0,1.12-.34A1.32,1.32,0,0,0,183.46,249.62Z"/><path class="cls-1" d="M168.7,267.24l2.75,0c-.44-1.33-.87-2.67-1.31-4C169.65,264.59,169.17,265.92,168.7,267.24Z"/><path class="cls-1" d="M183,246a1.13,1.13,0,0,0,.43-.9,1.1,1.1,0,0,0-.36-.92,1.63,1.63,0,0,0-1.09-.39l-2.23-.08c0,.84,0,1.68-.08,2.52l2.22.08A1.55,1.55,0,0,0,183,246Z"/><path class="cls-1" d="M146.68,262.3l-2.06.09c0,.95.08,1.91.13,2.87l2-.09a1.68,1.68,0,0,0,1.13-.44,1.38,1.38,0,0,0,.4-1.06,1.36,1.36,0,0,0-.48-1A1.66,1.66,0,0,0,146.68,262.3Z"/><path class="cls-1" d="M128.47,246.88a2.48,2.48,0,0,0-.65-1.43,1.9,1.9,0,0,0-1.5-.46,2,2,0,0,0-1.42.7,2.45,2.45,0,0,0-.39,1.52c0,.18,0,.71.1,1.59s.13,1.41.17,1.59a2.54,2.54,0,0,0,.64,1.43,1.94,1.94,0,0,0,1.5.46,1.92,1.92,0,0,0,1.5-.86,5.9,5.9,0,0,0,.21-2.95C128.56,247.63,128.51,247.1,128.47,246.88Z"/><path class="cls-1" d="M70,234.7c-2.82.59-5.67,1.22-8.53,1.88q-9.7,2.22-19.7,4.93l17.19,3.27,14.58,2.78.65-2.52,1-3.8.47-1.81,1.6-6.2c-.07,0-.36.06-.85.15Z"/><path class="cls-1" d="M269.22,235.66c-3-.71-5.91-1.37-8.39-1.93-2.9-.66-5.23-1.17-6.51-1.45l-.49-.1-.22-.05-.17,0-.12,0-.09,0h0l2.09,8.07,1.17,4.51.77,3,16.31-3.13,15.63-3c-2.75-1-8.51-2.86-17-5.06C271.22,236.14,270.21,235.89,269.22,235.66Z"/></g><g id="Pantone_7409_C" data-name="Pantone 7409 C"><path class="cls-2" d="M171.53,35.39c-1.9-.18-3.61-.33-5.42-.33a32.52,32.52,0,0,0-7.29.86c-8,1.81-15.57,6.37-23.77,14.36a77.24,77.24,0,0,0-18.8,27.92l0,.13.13.94a60.53,60.53,0,0,0,13.48,12.64l1.43-.43c2.44-6.2,6.81-15.25,10.44-20.56v0C155.3,49.32,172.75,42.24,185,40.1l.14-1.87A60.85,60.85,0,0,0,171.53,35.39Z"/><path class="cls-2" d="M129.76,100.42a54.39,54.39,0,0,1-10.15-7.25,63.17,63.17,0,0,1-9.82-11.33,60.62,60.62,0,0,1-3.31-5.54l-1.73.12a93.15,93.15,0,0,0-4.45,16.79,53.08,53.08,0,0,0-.82,7.12l0,.1v.06h30.37Z"/><path class="cls-2" d="M124.84,49.12a67.17,67.17,0,0,0-14.19,15.26c-.39.57-1.06,1.69-1.55,2.52l0,1c.6,1.09,1.23,2.21,1.87,3.32l1.68-.06a89.5,89.5,0,0,1,13.5-20.6Z"/><path class="cls-2" d="M199.77,45.47l-.54-.13c-2.28.1-7.95.4-11.43.85A51.31,51.31,0,0,0,159.91,59a80.57,80.57,0,0,0-20.3,28.71c-.77,1.77-1.44,3.56-2.12,5.43-.16.42-.31.85-.47,1.28l-.19.53.56,1.24a54.08,54.08,0,0,0,18.78,3.57,41.66,41.66,0,0,0,6.32-.47l.76-.64c.09-.28.19-.55.27-.79a43.83,43.83,0,0,1,1.91-4.74,42.27,42.27,0,0,1,5.38-8.65c9.93-12.32,23.28-19.31,39.68-20.76,1.38-.12,2.85-.18,4.63-.18l1.76,0,.75-1.58C211.31,54.12,202.87,47.35,199.77,45.47Z"/><path class="cls-2" d="M230.69,92a68.21,68.21,0,0,0-5.82-19.1c-.29-.62-.91-1.77-1.37-2.62l-.82-.5c-1.23,0-2.52,0-3.78,0l-.78,1.51a90,90,0,0,1,10.43,20.88c.15.42.29.84.43,1.26l.91-.21.94-.22C230.79,92.66,230.74,92.34,230.69,92Z"/><path class="cls-2" d="M222.36,93.27a74.59,74.59,0,0,0-12.09-22.34l-.1-.12-.86-.35A59.56,59.56,0,0,0,191.76,76l-.34,1.47a135.51,135.51,0,0,1,10.43,15.71c.74,1.31,1.39,2.56,1.93,3.72v0q.92,1.77,1.71,3.54a.09.09,0,0,1,0,0h19C223.88,98,223.17,95.6,222.36,93.27Z"/><path class="cls-2" d="M198.69,100.37c-1.18-2.44-2.48-4.84-3.93-7.22-1.32-2.19-2.76-4.36-4.31-6.49C189.07,84.76,187.58,83,186,81l-.35-.42-1.34-.13a56.23,56.23,0,0,0-11.18,12.65,43.35,43.35,0,0,0-3.77,7.22.42.42,0,0,0-.06.14h29.44A.61.61,0,0,1,198.69,100.37Z"/><path class="cls-2" d="M67.41,248.43l-1.28,0c-23.81.72-57.42,10.29-57.42,10.29l13.67-40.12c6.28-2,12-3.52,17.1-4.72h0l1.27-.3q3.14-.7,6-1.25l-8.47,30.52,15.93,3Z"/><path class="cls-2" d="M322,258.76s-9.18-2.61-21.35-5.21l-1.19-.25c-11-2.32-24.24-4.55-35.29-4.85h-.78l14.41-2.78,14.44-2.77-7.75-30.42c1.32.26,2.69.54,4.1.85l1.83.41,1.47.34c4.95,1.18,10.42,2.68,16.44,4.57Z"/><path class="cls-2" d="M289.81,241.33h-.07l-.55.11c-2.75-1-8.51-2.86-17-5.06l-.65-.17-.13,0-2.22-.56c-2.58-.64-5.37-1.31-8.37-2q-3.12-.69-6.54-1.38l-.49-.1-.22-.05-.07,0h-.1l-.12,0-.09,0h0c-2.61-.52-5.34-1-8.19-1.54l-.6-.1c-36.23-6.34-91.51-10.69-158.42,1.16h0l-.59.1h0q-4.06.72-8.19,1.53h0c-.07,0-.36.06-.85.15L70,234.7c-2.82.59-5.67,1.22-8.53,1.88q-9.7,2.22-19.7,4.93l-.75-.14-.21,0L48.92,212l2-7.26,2-7.22c5-1.43,26-7.12,57.29-10.86q5.55-.66,11.51-1.23a469.69,469.69,0,0,1,87.16-.19q5.67.51,11.46,1.2a417.63,417.63,0,0,1,58.29,11.12l1.83,7.18,1.88,7.36h0Z"/></g><g id="Text_Edit" data-name="Text Edit"><path class="cls-1" d="M90.47,202.14l-3.07.53-.21-1.19,3.08-.53C90.34,201.35,90.4,201.74,90.47,202.14Z"/><path class="cls-1" d="M93.32,201.67l-3.07.51c-.07-.4-.13-.8-.2-1.19l3.08-.51Z"/><path class="cls-1" d="M96.18,201.22l-3.08.49c-.06-.4-.13-.8-.19-1.19L96,200C96.05,200.43,96.12,200.83,96.18,201.22Z"/><path class="cls-1" d="M99,200.79l-3.07.47c-.07-.4-.13-.8-.19-1.2l3.09-.46C98.92,200,99,200.39,99,200.79Z"/><path class="cls-1" d="M114.84,193.85q-.86,2.21-1.69,4.41c.11,1,.22,1.93.34,2.9l-1.38.16c-.12-1-.23-1.93-.34-2.9-.89-1.3-1.77-2.6-2.67-3.9l1.53-.19c.57.9,1.13,1.79,1.68,2.69.33-1,.66-2,1-3Z"/><path class="cls-1" d="M124.78,197.55a2.32,2.32,0,0,1-.59,1.86,2.89,2.89,0,0,1-3.74.36,2.31,2.31,0,0,1-.93-1.72c-.16-1.55-.32-3.1-.47-4.65l1.41-.14.45,4.6a1.33,1.33,0,0,0,.42.92,1.36,1.36,0,0,0,1.81-.17,1.31,1.31,0,0,0,.25-1c-.14-1.54-.29-3.07-.43-4.61l1.4-.13Z"/><path class="cls-1" d="M134.42,192.1q-1,3.63-1.88,7.26l-1,.08c-1-2.3-1.94-4.61-2.92-6.9l1.46-.12c.6,1.5,1.2,3,1.79,4.51.37-1.57.74-3.15,1.12-4.72Z"/><path class="cls-1" d="M144.67,198.65l-1.45.06-.48-1.23-2.54.13c-.13.43-.25.86-.37,1.28l-1.45.09c.73-2.42,1.46-4.84,2.21-7.25l1.11-.06Q143.22,195.15,144.67,198.65Zm-2.37-2.32c-.33-.85-.67-1.69-1-2.54-.26.88-.51,1.76-.77,2.63Z"/><path class="cls-1" d="M154.73,198.3l-1.62,0c-.64-1.06-1.29-2.12-1.94-3.18-.29.38-.59.75-.89,1.13l.07,2.13-1.39.05c-.09-2.37-.17-4.74-.26-7.1l1.42-.05c0,1,.06,2.06.1,3.09.81-1.06,1.63-2.12,2.45-3.17l1.72,0-2.32,2.88C153,195.49,153.85,196.89,154.73,198.3Z"/><path class="cls-1" d="M171.23,198.22l-1.39,0c0-1.38,0-2.76,0-4.14l-1.4,2.68h-.94l-1.37-2.7c0,1.38,0,2.76,0,4.14h-1.39q0-3.56,0-7.11h1.39c.62,1.28,1.25,2.57,1.86,3.85.63-1.27,1.26-2.55,1.9-3.83l1.42,0Q171.27,194.66,171.23,198.22Z"/><path class="cls-1" d="M181.81,198.49l-1.45-.05c-.13-.43-.25-.85-.38-1.27l-2.54-.08c-.16.41-.31.83-.47,1.24l-1.45,0q1.38-3.53,2.8-7l1.11,0Q180.65,194.89,181.81,198.49Zm-2.16-2.5c-.27-.88-.53-1.75-.8-2.62l-1,2.56Z"/><path class="cls-1" d="M191.56,199l-1.24-.07q-1.29-2.25-2.61-4.5c-.07,1.45-.14,2.9-.22,4.35l-1.39-.06.33-7.11,1.26.07c.89,1.49,1.76,3,2.63,4.49l.24-4.34,1.42.08Z"/><path class="cls-1" d="M202.09,196.1a13.29,13.29,0,0,1-.19,1.55,2.39,2.39,0,0,1-.77,1.29,2.58,2.58,0,0,1-1.93.53l-2.58-.19c.17-2.36.34-4.73.5-7.09l2.61.19a2.6,2.6,0,0,1,1.86.83,2.28,2.28,0,0,1,.56,1.36A12.32,12.32,0,0,1,202.09,196.1Zm-1.4-.11a9.59,9.59,0,0,0,0-1.21,1.36,1.36,0,0,0-.2-.66,1.31,1.31,0,0,0-1-.52l-1.07-.08c-.11,1.54-.22,3.09-.34,4.63l1.06.07a1.29,1.29,0,0,0,1.08-.35,1.31,1.31,0,0,0,.3-.65A11.92,11.92,0,0,0,200.69,196Z"/><path class="cls-1" d="M212.11,200.64l-1.45-.15c-.1-.44-.2-.87-.29-1.3l-2.54-.25c-.18.41-.36.81-.55,1.22l-1.45-.14q1.62-3.42,3.28-6.83l1.1.11Q211.19,197,212.11,200.64Zm-2-2.65c-.2-.88-.41-1.77-.62-2.66l-1.16,2.49Z"/><path class="cls-1" d="M221,201.66c-1.53-.2-3.07-.38-4.6-.56l.81-7.06,1.4.16c-.22,2-.45,3.89-.68,5.84,1.08.12,2.15.25,3.23.39C221.09,200.84,221,201.25,221,201.66Z"/><path class="cls-1" d="M234.35,201.26l-3.07-.47c.06-.4.11-.79.17-1.19l3.09.46C234.48,200.46,234.42,200.86,234.35,201.26Z"/><path class="cls-1" d="M237.21,201.71l-3.08-.49c.07-.39.13-.79.19-1.19l3.08.49C237.34,200.91,237.27,201.31,237.21,201.71Z"/><path class="cls-1" d="M240.06,202.18l-3.07-.51.19-1.19,3.08.51C240.19,201.38,240.13,201.78,240.06,202.18Z"/><path class="cls-1" d="M242.91,202.67l-3.07-.53c.07-.4.14-.79.2-1.19l3.08.53Z"/><path class="cls-1" d="M104.92,221.32c-2.48.27-5,.57-7.43.88L96.08,211c2.53-.32,5-.63,7.58-.91.08.65.15,1.3.22,1.95l-5.32.62c.11.88.22,1.75.32,2.63l4.51-.54c.08.65.15,1.3.22,1.95l-4.49.53.33,2.72c1.75-.21,3.5-.42,5.25-.61C104.78,220,104.85,220.67,104.92,221.32Z"/><path class="cls-1" d="M120.86,214.07a17.94,17.94,0,0,1,.1,2.46,3.73,3.73,0,0,1-.87,2.22,4.1,4.1,0,0,1-2.9,1.33l-4.08.38q-.54-5.61-1.09-11.21,2.08-.21,4.17-.39a4.13,4.13,0,0,1,3.14.81,3.68,3.68,0,0,1,1.24,2A19.7,19.7,0,0,1,120.86,214.07Zm-2.23.18a14.85,14.85,0,0,0-.25-1.9,1.94,1.94,0,0,0-.49-1,2.08,2.08,0,0,0-1.74-.55l-1.69.16c.22,2.43.45,4.87.67,7.31l1.68-.16a1.85,1.85,0,0,0,1.9-1.93A15.72,15.72,0,0,0,118.63,214.25Z"/><path class="cls-1" d="M131.83,219l-2.21.15q-.37-5.62-.74-11.25l2.25-.14Q131.49,213.36,131.83,219Z"/><path class="cls-1" d="M147.75,214.9a3,3,0,0,1-1.11,2.55,4.88,4.88,0,0,1-3,1,5.64,5.64,0,0,1-4.21-1.31c.46-.49.91-1,1.37-1.49a3.79,3.79,0,0,0,2.79.84c1.34-.06,2-.54,2-1.47a1.18,1.18,0,0,0-.37-.93,1.8,1.8,0,0,0-1-.36l-1.39-.14q-3-.29-3.18-3a3.12,3.12,0,0,1,1-2.52,4.34,4.34,0,0,1,2.9-1.07,5.16,5.16,0,0,1,3.78,1.18l-1.38,1.42a3.32,3.32,0,0,0-2.39-.68,1.94,1.94,0,0,0-1.3.45,1.29,1.29,0,0,0-.42,1,1.1,1.1,0,0,0,.4.81,1.86,1.86,0,0,0,1.06.38l1.36.14a4,4,0,0,1,2.22.79A3.09,3.09,0,0,1,147.75,214.9Z"/><path class="cls-1" d="M164,212.31a14.94,14.94,0,0,1-.13,2.55,3.58,3.58,0,0,1-1,1.95,4.46,4.46,0,0,1-6.15.06,3.72,3.72,0,0,1-1-1.93,16.94,16.94,0,0,1-.17-2.54,16.56,16.56,0,0,1,.08-2.55,3.58,3.58,0,0,1,1-2,4.54,4.54,0,0,1,6.25-.07,3.54,3.54,0,0,1,1,2A14.29,14.29,0,0,1,164,212.31Zm-2.23,0c0-.86,0-1.41,0-1.64a2.55,2.55,0,0,0-.54-1.52,1.87,1.87,0,0,0-1.45-.59,1.91,1.91,0,0,0-1.45.62,2.73,2.73,0,0,0-.5,1.53c0,.19,0,.74,0,1.64s0,1.46.06,1.65a2.65,2.65,0,0,0,.53,1.51,1.83,1.83,0,0,0,1.45.58,1.8,1.8,0,0,0,1.54-.77A6.14,6.14,0,0,0,161.73,212.32Z"/><path class="cls-1" d="M181,218.18l-2-.06q-2.16-3.51-4.37-7l-.12,6.92-2.22,0,.15-11.26,2,0q2.23,3.48,4.41,7,.09-3.45.17-6.9l2.26.07Z"/><path class="cls-1" d="M191.66,219.47l-2.35,1.63c.07-1.62.15-3.24.22-4.85l2.28.1Z"/><path class="cls-1" d="M218.54,220.59l-2-.19q-1.92-3.66-3.88-7.3l-.6,6.89-2.21-.19.93-11.23,2,.17c1.32,2.43,2.63,4.86,3.91,7.29l.66-6.87,2.25.22Z"/><path class="cls-1" d="M233.29,218.53a3.59,3.59,0,0,1-1.56,2.66,4.18,4.18,0,0,1-2.9.62,4,4,0,0,1-2.77-1.49l1.63-1.26a2,2,0,0,0,1.38.8c1.18.14,1.85-.42,2-1.7q.45-3.71.91-7.41l2.24.28C233.92,213.53,233.6,216,233.29,218.53Z"/><text class="cls-3" transform="translate(131.38 304.98)">2<tspan class="cls-4" x="18.41" y="0">0</tspan><tspan class="cls-5" x="34.11" y="0">1</tspan><tspan x="49.14" y="0">8</tspan></text></g></g></g></svg>