<svg xmlns="http://www.w3.org/2000/svg" viewBox="0 0 731.63 109.77"><defs><style>.cls-1{fill:#fefefe;}.cls-1,.cls-10,.cls-2,.cls-3,.cls-4,.cls-5,.cls-6,.cls-7,.cls-8,.cls-9{fill-rule:evenodd;}.cls-2{fill:#4d4439;}.cls-3{fill:#ce3829;}.cls-4{fill:#a5a19b;}.cls-5{fill:#e4928c;}.cls-6{fill:#8f1b1e;}.cls-7{fill:#cf3929;}.cls-8{fill:#89827c;}.cls-9{fill:#fff;}.cls-10{fill:#fffefe;}</style></defs><title>Baps Charities</title><g id="Layer_2" data-name="Layer 2"><g id="Layer_1-2" data-name="Layer 1"><path class="cls-1" d="M41.64,109.73c-13.36,0-26.72,0-40.08,0-1.26,0-1.56-.23-1.56-1.54Q.08,54.94,0,1.64C0,.44.13-.25,1.52.08a2.82,2.82,0,0,0,.65,0Q365.8.09,729.43,0c1.88,0,2.21.44,2.2,2.23-.07,21.37,0,42.75,0,64.12a.43.43,0,0,1-.6,0c-.92-1.32-1-3-1.83-4.37-2.45-4.28-6.42-6.51-10.71-8.38-3.3-1.45-6.71-2.7-9.53-5.05-5-4.2-4.52-11.27,1.12-14,3.15-1.5,6.45-1.29,9.73-.38a26,26,0,0,1,5.35,2.35c1.08.58,1.51.4,1.6-.9.13-1.9-.44-3.19-2.33-3.86-6.07-2.15-12-2.87-17.94.6s-6.19,11.17-3.58,15.67c2.49,4.26,6.61,6.29,10.84,8.25,3.45,1.6,7.09,2.87,9.83,5.75,4.5,4.72,3.56,11.44-2.18,14.58-4.73,2.59-9.5,1.77-14.23,0-2.31-.88-3.22-.64-4.6,1.24-.58.79-.5,1.31.39,1.68,6.46,2.62,13,4,19.77,1.23a13.12,13.12,0,0,0,7.4-7.51c.32-.79.26-1.94,1.5-2.09,0,12.21,0,24.42,0,36.62,0,1.63-.37,2-2,2q-219.07-.06-438.14,0H46.41a.4.4,0,0,1,0-.58c2.69-.76,5.52-.93,8.15-2,14.05-5.55,22.49-15.8,25.68-30.48.3-.47.35-1.06.74-1.47-.45.24-.35.8-.65,1.12-7.82,12.45-17.8,22.08-33.06,24.21-11,1.53-21-1-29.71-8.26A119.06,119.06,0,0,1,2.06,76.73c6.44,13.64,16.14,24,30.28,29.91a44.73,44.73,0,0,0,7.31,1.94C40.38,108.76,41.47,108.51,41.64,109.73Z"/><path class="cls-2" d="M41.64,109.73c-2.86-1.09-6-1.19-8.83-2.32-14.39-5.72-24.34-16-30.95-29.81-.3-.63-.56-1.29-.85-2,1.1-.51,1.35.52,1.8,1a116,116,0,0,0,16.44,16.2c13.42,10.79,34.26,9.52,47.23-1.22A70.8,70.8,0,0,0,80.22,75.94c.42-.09.63,0,.5.49-3.11,19.67-20,32.15-34.26,32.94-1.29.43-2.68-.21-4,.36Z"/><path class="cls-3" d="M731.58,71.16c-.14.13-.39.24-.43.4-1.73,8.37-10.29,12.09-18.51,11.17A44.88,44.88,0,0,1,707,81.56a32.2,32.2,0,0,1-6.12-2.37c.89-1.46,2.3-2.38,3.34-3.63.77-.92,1.46-.24,2.11,0,3.91,1.73,7.9,2.7,12.17,1.61,3.78-1,6.45-3.1,7.23-7.12.75-3.87-.92-6.71-3.9-9a38,38,0,0,0-8-4.21,30.62,30.62,0,0,1-8.37-4.87c-4.24-3.75-5.8-8.41-4.17-13.83s5.86-7.84,11.1-8.63a23.35,23.35,0,0,1,12.88,1.88c1.5.64,2.38,1.41,2.11,3.19a26.55,26.55,0,0,0,0,3.71c-1.68-.89-3.14-1.76-4.66-2.46-3.62-1.68-7.37-2.49-11.3-1.21-5.76,1.88-7.32,8.31-3,12.58a23.31,23.31,0,0,0,7.53,4.56c3.43,1.49,6.93,2.84,9.85,5.28a14.38,14.38,0,0,1,5.51,9.23c.45,1.13-.18,2.38.37,3.5Z"/><path class="cls-4" d="M42.51,109.73c1.25-.87,2.63-.28,4-.36a2.23,2.23,0,0,1-.05.36Z"/><path class="cls-5" d="M731.58,69.86c-.71-1.1-.34-2.32-.37-3.5l.37,0Z"/><path class="cls-2" d="M141.78,54.83c4.27.92,7.85,2,11,4.05,7,4.66,7.29,13.9.5,18.93A23.93,23.93,0,0,1,141.46,82a199.9,199.9,0,0,1-22.69.77c-2.16,0-4.33.08-6.49.06-2.76,0-4-1.19-3.93-4,.11-6.34.34-12.68.46-19,.13-7.57-.14-15.14-.44-22.71a16,16,0,0,1,0-2.59,4,4,0,0,1,3.74-3.78c10-.08,20.06-.57,30,1a19.55,19.55,0,0,1,8.52,3.48c5.93,4.33,5.79,11.74-.24,15.92C148,52.85,145.19,53.71,141.78,54.83Z"/><path class="cls-3" d="M75.06,71.72c-2.4,6.12-6.54,10.91-11.61,15a53.79,53.79,0,0,1-9.17,5.88c.45-2.07.9-3.82,1.2-5.6.91-5.52-.35-10.72-2.43-15.79-2.29-5.61-5.42-10.8-8.07-16.23C41.18,47.12,38.68,39,39,30.22,39.56,17.43,45.58,8,56.4,1.38c.41-.24.85-.77,1.34-.4s0,1.07-.16,1.52c-2,6.43-1.26,12.65,1.26,18.77.18.45.26,1,.91,1.05,3.74,7.66,8.81,14.53,13,21.93a29.14,29.14,0,0,1,4.19,15.66C76.77,63.94,77.13,68,75.06,71.72Z"/><path class="cls-2" d="M236.77,82.89c-1.88,0-3.76.07-5.63,0-3-.15-4.18-1.4-4-4.38q.77-15.9.4-31.81c-.09-3.46-.45-6.91-.51-10.36-.09-4.76,1.35-5.86,6.13-5.69,6.2.23,12.42.07,18.62.26,5.44.16,10.78.81,15.39,4.17a14.68,14.68,0,0,1,.56,23.19c-4.51,3.62-9.93,4.77-15.46,5.52a33.21,33.21,0,0,1-6.67.44c-2.12-.14-2.35.72-2.24,2.46.3,4.74.43,9.5.74,14.25.1,1.53-.38,2-1.88,2-1.8-.09-3.61,0-5.41,0Z"/><path class="cls-2" d="M187.93,51.45c-6.16,7.61-11.93,15.26-17.47,23.08-1.7,2.42-3.39,4.84-5,7.32-.64,1-1.15,1.09-1.94.25-.34-.36-.82-.6-1.17-.95-1.16-1.15-3.53-1.69-3.51-3.18s1.7-2.7,2.67-4c6.75-9.35,13.48-18.72,20.3-28,.94-1.28,1-2.1-.1-3.26S178.9,40,179,38.71s2.09-2.34,3.28-3.46c2.83-2.68,5.67-5.34,8.54-8,.69.21.89.87,1.22,1.37,10,14.93,19.85,29.88,29.85,44.78,1,1.52.88,2.11-.7,3-3.44,2-6.77,4.12-10.06,6.32-1.29.86-1.93,1-2.91-.52q-9.14-14.55-18.84-28.74C188.94,52.82,188.47,52.2,187.93,51.45Z"/><path class="cls-2" d="M303,32.55c-.69.22-1.31.4-1.91.6-6,2-8.05,5.66-6.58,11.83,1.21,5.13,3.65,9.83,5.21,14.83a37.14,37.14,0,0,1,1.59,6.92A11.56,11.56,0,0,1,296.25,78a32.49,32.49,0,0,1-13.15,5.71c-3.46.69-3.48.6-5.56-2.7,1.56-.62,3.16-1.16,4.66-1.88,4.51-2.16,5.69-4.81,4.45-9.63a49.89,49.89,0,0,0-3.4-8.61,45.28,45.28,0,0,1-3.91-12.51c-1-6.71,1.51-12.07,7.4-15.41a31.62,31.62,0,0,1,10.43-3.26C299.83,29.2,301.83,29.68,303,32.55Z"/><path class="cls-3" d="M507.28,59.75l18.53,21.37H518.9c-.58,0-.85-.49-1.17-.86l-20.4-23.54c-.08-.09-.06-.26-.11-.49,3.51,0,7-.1,10.38-1.18,4.45-1.41,7.18-4.67,7.29-8.64.18-6-3-9.35-9.78-10.35-3-.44-6-.34-9.07-.48-1.76-.08-2.29.37-2.28,2.22.09,11.62.05,23.24.05,34.86v4.55c0,4.11-.7,4.65-4.8,3.94-.8-.14-.91-.51-.89-1.15,0-.86,0-1.73,0-2.6,0-14.72,0-29.45,0-44.17,0-1.73.33-2.38,2.22-2.32,6.4.17,12.85-.34,19.15,1.27C516,33.85,520,37.93,520.58,43.37,521.37,51,517.43,56.88,510,59,509.2,59.26,508.38,59.46,507.28,59.75Z"/><path class="cls-3" d="M375.3,56.15c0-7.72,0-15.45,0-23.17,0-1.57.3-2.13,2-2.07,3.72.11,3.72,0,3.72,3.75,0,5.27,0,10.55,0,15.82,0,1.38.4,1.65,1.7,1.64q12.78-.07,25.56,0c1.41,0,1.82-.36,1.8-1.79-.08-5.78,0-11.55-.06-17.33,0-1.51.2-2.17,2-2.11,3.75.13,3.75,0,3.75,3.73,0,14.73,0,29.46.05,44.19,0,1.85-.35,2.47-2.32,2.36C410,81,410,81.13,410,77.79c0-6.21,0-12.42,0-18.62,0-1.41-.2-2-1.84-2-8.52.09-17,.07-25.56,0-1.37,0-1.66.4-1.65,1.7.06,6.71,0,13.43.06,20.14,0,1.61-.26,2.24-2.06,2.17-3.65-.15-3.65,0-3.65-3.58Z"/><path class="cls-3" d="M428.25,81.13c8.08-17.39,16-34.42,24.19-52,8.15,17.58,16.06,34.62,24.13,52-2.06,0-3.81,0-5.57,0-1,0-1.07-.81-1.35-1.43-1.49-3.27-3-6.53-4.42-9.84a2.19,2.19,0,0,0-2.36-1.63q-10.61.12-21.21,0a2.2,2.2,0,0,0-2.38,1.62c-1.33,3.17-2.86,6.27-4.17,9.46a2.44,2.44,0,0,1-2.87,1.84A37.1,37.1,0,0,0,428.25,81.13Z"/><path class="cls-3" d="M655.74,56c0-7.73,0-15.45,0-23.18,0-1.52.4-1.92,1.91-1.91,8.31.08,16.61.13,24.91,0,2.26,0,1.94,1.17,2,2.55s0,2.34-2,2.29c-6.49-.15-13,0-19.49-.09-1.29,0-1.75.27-1.72,1.66.09,4.54.1,9.09,0,13.64,0,1.43.49,1.63,1.73,1.61,5.85-.06,11.7.13,17.54-.1,2.43-.1,1.95,1.21,2.08,2.61.17,1.74-.28,2.33-2.17,2.29-5.7-.15-11.41,0-17.11-.1-1.77,0-2.1.53-2.07,2.15q.15,7.37,0,14.73c0,1.48.31,2,1.87,1.93,6.64-.09,13.29,0,19.93-.08,1.66,0,2.25.37,2.16,2.12-.14,3,0,3-3.11,3-8.23,0-16.46,0-24.69,0-1.4,0-1.8-.34-1.79-1.77C655.78,71.59,655.74,63.8,655.74,56Z"/><path class="cls-3" d="M360.52,39.77c-14.5-7.44-24.07-6.79-31.4,2-6.42,7.71-6.64,20.07-.43,27.89A19.82,19.82,0,0,0,344,77.49c6.06.26,11.38-1.94,16.55-5.6,0,2,0,3.62,0,5.24a1.74,1.74,0,0,1-1.1,1.68c-15.88,9.23-39,2.19-41-19.94-1.29-14.51,7.28-26.2,21.35-29.09A27.65,27.65,0,0,1,359.22,33a2.1,2.1,0,0,1,1.32,2.2C360.44,36.67,360.52,38.12,360.52,39.77Z"/><path class="cls-3" d="M590.78,58.58c0,6.93,0,13.86,0,20.8,0,1.41-.37,1.8-1.79,1.79-4.08,0-4.08,0-4.08-4,0-12.93,0-25.85,0-38.78,0-1.77-.4-2.34-2.24-2.3-5,.13-10.11,0-15.16.08-1.51,0-2.13-.38-1.91-1.91a8.48,8.48,0,0,0,0-1.95c-.1-1.06.36-1.35,1.37-1.35q20.26,0,40.52,0c1.18,0,1.41.43,1.44,1.51.1,3.67.14,3.67-3.55,3.67-4.34,0-8.67,0-13,0-1.34,0-1.72.36-1.71,1.7C590.82,44.71,590.78,51.64,590.78,58.58Z"/><path class="cls-6" d="M75.06,71.72a81.62,81.62,0,0,0,1.38-9.78c.47-7.89-2.27-14.65-6.34-21.12C66.74,35.45,63,30.28,60.35,24.51c-.32-.68-1-1.31-.6-2.19C62,17.43,65.8,14,70.32,11c.1.5.19.67.14.74-3.84,5.71-2.94,11.41,0,17.14s6.08,11.55,7.87,17.91a31.17,31.17,0,0,1-2,23.25C76,70.65,75.84,71.42,75.06,71.72Z"/><path class="cls-7" d="M550.43,55.69c0,7.86,0,15.72,0,23.58,0,1.51-.35,1.94-1.89,1.9-3.69-.09-3.69,0-3.69-3.77,0-15.08,0-30.15,0-45.22,0-1.83.49-2.48,2.27-2.2a5.51,5.51,0,0,0,1.72,0c1.42-.23,1.64.43,1.63,1.69C550.41,39.67,550.43,47.68,550.43,55.69Z"/><path class="cls-3" d="M627.42,55.34c0-7.8,0-15.6,0-23.39,0-1.39.15-2,1.81-2,3.71.09,3.71,0,3.71,3.74,0,15.09,0,30.18.05,45.27,0,1.83-.49,2.48-2.26,2.18a5.1,5.1,0,0,0-1.51,0c-1.41.2-1.82-.33-1.81-1.76C627.46,71.37,627.43,63.35,627.42,55.34Z"/><path class="cls-3" d="M196,73.86a8.8,8.8,0,1,1-8.78-8.48A8.59,8.59,0,0,1,196,73.86Z"/><path class="cls-8" d="M80.72,76.43l-.5-.49c.07-.43.53-1,.63-.9C81.34,75.47,81.09,76,80.72,76.43Z"/><path class="cls-9" d="M124,68.3c0-3,0-5.92,0-8.87,0-.91.2-1.34,1.19-1.23,4,.46,8,.9,11.64,2.88,2.91,1.58,4.87,3.81,4.9,7.31s-1.88,5.82-4.78,7.38c-3.69,2-7.73,2.6-11.85,2.9-1.25.09-1.08-.58-1.08-1.29C124,74.35,124,71.32,124,68.3Z"/><path class="cls-9" d="M124,44.79c0-2.82,0-5.63,0-8.45,0-1.21.29-1.7,1.55-1.54a22.08,22.08,0,0,1,8.28,2.27c3.07,1.75,5.06,4.18,5,8s-2,6-5.14,7.62a22.08,22.08,0,0,1-8.1,2.11c-1.27.13-1.6-.31-1.57-1.53C124.09,50.42,124,47.6,124,44.79Z"/><path class="cls-10" d="M58.88,45.74c.84,0,1.22.73,1.58,1.3,4.12,6.55,7.42,13.45,8.94,21.11A12.12,12.12,0,0,1,67.61,77a24.13,24.13,0,0,1-7.93,8,33.07,33.07,0,0,0,2.93-11.3c.53-6.19-.84-12.15-2-18.14-.55-2.75-1.21-5.47-1.82-8.21C58.63,46.84,58.4,46.28,58.88,45.74Z"/><path class="cls-9" d="M243.52,48.35c0-4,0-8.07,0-12.11,0-1.22.34-1.37,1.5-1.16,3.77.69,7.31,1.85,9.91,4.81a11.89,11.89,0,0,1-3.54,18.24,25.58,25.58,0,0,1-6.58,2c-1.36.29-1.61-.18-1.59-1.39.05-3.47,0-6.93,0-10.4Z"/><path class="cls-9" d="M452.37,41c3.44,7.75,6.72,15.14,10.07,22.67h-20.3C445.53,56.21,448.86,48.82,452.37,41Z"/></g></g></svg>