<svg xmlns="http://www.w3.org/2000/svg" viewBox="0 0 367.71 359.95"><defs><style>.cls-1{fill:#fff;}.cls-2,.cls-6{fill:#bbb;}.cls-3{fill:#d0cfcd;}.cls-4{fill:#f4b223;}.cls-5{fill:#003764;}.cls-6{font-size:35.92px;font-family:DINBold, DIN;}.cls-7{letter-spacing:-0.08em;}.cls-8{letter-spacing:-0.1em;}</style></defs><title>Asset 2</title><g id="Layer_2" data-name="Layer 2"><g id="Dark_Color_T-shirts" data-name="Dark Color T-shirts"><g id="White"><path class="cls-1" d="M297.11,113.58h-2.69l-7.07,0q.12-4.22-.11-8.49a2.28,2.28,0,0,0,0-.26c0-.46-.05-.91-.1-1.36A103.48,103.48,0,0,0,183.92,7.06c-1.88,0-3.79.06-5.67.16A103.71,103.71,0,0,0,80.4,105.4c-.13,2.69-.16,5.4-.07,8.14l5.58,0h4.9l6.82,0,8.1,0q.15-3.89.68-7.66c5.27-38.54,37.93-68.21,77.42-68.21q1,0,2,0l.87,0,1.62.08.39,0c.71,0,1.41.1,2.11.16s1.35.13,2,.21l1.8.23,1.44.22c.57.08,1.13.18,1.69.28s1.38.26,2.06.41,1.23.26,1.85.41l1.22.3.66.17,1,.27,1.06.31,1,.29c.55.17,1.11.34,1.65.53.34.11.68.22,1,.35s.68.23,1,.35l.66.24c.48.18,1,.36,1.43.56,1.35.53,2.67,1.1,4,1.7.4.19.79.37,1.18.57l1.39.68,1.23.65c.74.39,1.49.8,2.22,1.22.37.22.74.43,1.11.66a5.74,5.74,0,0,1,.53.32c.36.21.72.43,1.07.66a4.25,4.25,0,0,1,.39.25c.42.26.84.53,1.25.81,1.16.76,2.28,1.56,3.39,2.39.41.3.82.61,1.22.93.68.52,1.36,1.06,2,1.61.5.42,1,.84,1.49,1.27l.27.24c.49.43,1,.87,1.46,1.32l.14.12,1.51,1.45c1,1,2.06,2.07,3,3.15.43.47.85.94,1.26,1.42a4.32,4.32,0,0,1,.34.39c.34.39.67.78,1,1.18.16.17.3.35.44.53.4.5.81,1,1.2,1.52.13.16.26.32.38.49s.18.23.26.35l.32.42a77.53,77.53,0,0,1,14.71,34.57l.06.35a77.56,77.56,0,0,1,.87,9.33h35ZM100.75,96a5.08,5.08,0,0,1-2.43,3.45l-1-1.68a3.41,3.41,0,0,0,1.57-2.29c.32-1.23,0-2-.88-2.2a1.27,1.27,0,0,0-1,.08,1.65,1.65,0,0,0-.64.84l-.51,1.21a2.94,2.94,0,0,1-3.79,2,3.27,3.27,0,0,1-2.17-1.61,3.9,3.9,0,0,1-.24-2.89,4.69,4.69,0,0,1,2.15-3l1,1.64a3,3,0,0,0-1.31,2,1.76,1.76,0,0,0,.09,1.3,1.36,1.36,0,0,0,.89.67,1.15,1.15,0,0,0,.89-.12,1.8,1.8,0,0,0,.66-.84l.5-1.19a3.65,3.65,0,0,1,1.36-1.78,3.29,3.29,0,0,1,2.55-.21A3.1,3.1,0,0,1,100.58,93,4.44,4.44,0,0,1,100.75,96Zm4.06-12.64-2.11-.13-1.37,3.59L103,88.13l-.78,2.06L93,82.47l.59-1.55,12,.37Zm5.47-11.08-5.83-3.16L107.26,73l-.68,1.26L101.8,74l5.83,3.15-1,1.86-10-5.42,1-1.82,6.74.46-4.08-5.38,1-1.85,10,5.41Zm3-4.89-9.19-6.69,2.47-3.38a3.42,3.42,0,0,1,2.39-1.5,3.55,3.55,0,0,1,3.34,5.67l-1.23,1.68,3.46,2.52Zm25.15-25.75A4.45,4.45,0,0,1,136.59,44a5.13,5.13,0,0,1-4.1,1l.32-1.95a3.43,3.43,0,0,0,2.69-.68c1.05-.71,1.32-1.46.79-2.23a1.27,1.27,0,0,0-.8-.61,1.75,1.75,0,0,0-1,.21l-1.18.57a2.94,2.94,0,0,1-4.16-1,3.25,3.25,0,0,1-.56-2.64,3.84,3.84,0,0,1,1.73-2.33,4.62,4.62,0,0,1,3.63-.86l-.32,1.89a3,3,0,0,0-2.27.6,1.75,1.75,0,0,0-.8,1,1.37,1.37,0,0,0,.23,1.1,1.08,1.08,0,0,0,.74.49,1.69,1.69,0,0,0,1.06-.19l1.16-.56a3.66,3.66,0,0,1,2.19-.43A3.26,3.26,0,0,1,138,38.91,3.08,3.08,0,0,1,138.45,41.63ZM148,36.19a4,4,0,0,1-7.37.5L137.24,30l1.88-.95,3.34,6.6a2.25,2.25,0,0,0,1.14,1.14A2,2,0,0,0,146,35.57,2.12,2.12,0,0,0,145.8,34l-3.34-6.6,1.87-.94,3.37,6.66A3.84,3.84,0,0,1,148,36.19Zm10.15-2.84-1.54-4.5L153.15,30l1.54,4.5-2,.69L149,24.46l2-.68,1.5,4.39L156,27l-1.51-4.4,2-.68,3.69,10.76Zm11.15-2.7-2.93-4-1.49.29.87,4.45-2.07.4L161.5,20.58l4.16-.8a3.34,3.34,0,0,1,2.72.51,3.44,3.44,0,0,1,1.38,2.24,3.27,3.27,0,0,1-.21,2,3,3,0,0,1-1.16,1.28l3.3,4.36Zm11.39-1.12-.76-2-3.82.22-.53,2-2.2.13,3.25-11.58,1.65-.1,4.6,11.12Zm12.91-5.17a21.5,21.5,0,0,1-.28,2.47,3.83,3.83,0,0,1-1.16,2.08,3.74,3.74,0,0,1-2.92.87l-3.88-.3.85-11.33,3.89.29a3.73,3.73,0,0,1,2.76,1.3,3.78,3.78,0,0,1,.83,2.17A18.93,18.93,0,0,1,193.59,24.36Zm12-.16a2.79,2.79,0,0,1-.77,1.42,2.41,2.41,0,0,1-1,.59,2.6,2.6,0,0,1,.91,2.81,3.16,3.16,0,0,1-1.39,2.17,3.42,3.42,0,0,1-2.53.34l-4.41-1,2.4-11.11,4.24.91a3.42,3.42,0,0,1,2.21,1.36A3.12,3.12,0,0,1,205.64,24.2Zm9,11.66-2-.73,1.63-4.47-3.43-1.25-1.63,4.47-2-.73,3.91-10.67,2,.72-1.6,4.36L215,28.82l1.6-4.37,2,.73Zm10.71,5.39-2-1,.38-2.07-3.4-1.79-1.51,1.48-1.94-1,8.77-8.23,1.46.77Zm5.32,3.63-1.29-.9,3.55-11.37,1.8,1.24-2.45,7.32,6-4.85,1.8,1.25Zm45.48,46.19-9.81,7-.62-2.11,1.76-1.17-1.08-3.68L264.27,91l-.62-2.11,12,.58Zm-2.6-8.16-1.83.76-1.08-2.6L262,84.68l-.81-1.94,8.66-3.62-1.08-2.6,1.83-.76Zm-20.2-14.74-4.18-5.75,9.19-6.68,4.19,5.74-1.61,1.17-2.94-4-2.15,1.57,2.5,3.45-1.6,1.16-2.51-3.44L252,63,254.93,67Zm6,10.37-1.2-2.14,3.16-5-2.21-.35-3,1.66-1-1.84L265,65.38l1,1.83-4.32,2.42,6.18.9,1.25,2.24-5.69-.92Z"/><polygon class="cls-1" points="100.75 83.08 99.8 85.59 96.42 82.84 100.75 83.08"/><path class="cls-1" d="M110.63,60.39,109.47,62,107,60.15l1.16-1.59a1.55,1.55,0,0,1,1-.67,1.58,1.58,0,0,1,1.17.33,1.49,1.49,0,0,1,.66,1A1.53,1.53,0,0,1,110.63,60.39Z"/><path class="cls-1" d="M167.47,24.06a1.5,1.5,0,0,1-1,.62l-1.95.38L164,22.12l2-.37a1.44,1.44,0,0,1,1.79,1.17A1.43,1.43,0,0,1,167.47,24.06Z"/><polygon class="cls-1" points="179.25 25.72 176.58 25.88 177.69 21.67 179.25 25.72"/><path class="cls-1" d="M191.49,24.2a18.31,18.31,0,0,1-.22,2,2.24,2.24,0,0,1-.46,1,1.89,1.89,0,0,1-1.63.58l-1.58-.12.55-7.39,1.59.12a1.86,1.86,0,0,1,1.52.82,2.18,2.18,0,0,1,.3,1.05A16.9,16.9,0,0,1,191.49,24.2Z"/><path class="cls-1" d="M203.56,23.85a1.26,1.26,0,0,1-.56.85,1.37,1.37,0,0,1-1.08.13l-2-.43.55-2.56,2,.43a1.46,1.46,0,0,1,.94.57A1.33,1.33,0,0,1,203.56,23.85Z"/><path class="cls-1" d="M202.72,28.47a1.5,1.5,0,0,1-.57.91,1.4,1.4,0,0,1-1.11.17l-2.14-.47.59-2.73,2.14.46a1.35,1.35,0,0,1,.94.61A1.38,1.38,0,0,1,202.72,28.47Z"/><polygon class="cls-1" points="224.89 31.96 224.13 36.23 221.76 34.98 224.89 31.96"/><path class="cls-2" d="M274.87,277.86c-33,60.89-91,72.21-91,72.21s-57.86-11.29-90.85-72h.16l4.55-17.23,1.53-.29,3.87-.68a507.29,507.29,0,0,1,85.62-7.38A456.3,456.3,0,0,1,266.43,259l2.11.37,1.55.45h0Z"/><path class="cls-1" d="M274.87,277.86c-33,60.89-91,72.21-91,72.21s-57.86-11.29-90.85-72h.16l4.55-17.23,1.53-.29,3.87-.68a507.29,507.29,0,0,1,85.62-7.38A456.3,456.3,0,0,1,266.43,259l2.11.37,1.55.45h0Z"/><polygon class="cls-1" points="90.68 254.12 88.49 262.6 88.48 262.6 90.68 254.12"/><path class="cls-1" d="M90.69,254.11h0Z"/><path class="cls-1" d="M279.34,261.41h0l-2.21-8.54h0Z"/><path class="cls-1" d="M52.86,176.94q-3.51-24.12-7-49.24l-16.55.07q-3.48,26.19-6.9,53.47c-.49,3.81-1.4,6.3-2.74,7.45v11.82q7.2-1.68,14.42-3.2l0-11.32c-1.71.14-2.56-.85-2.56-3a14.72,14.72,0,0,1,.12-2c.14-1,.29-2,.43-3q4.57-.7,9.17-1.37c.12.94.25,1.89.37,2.84a17.42,17.42,0,0,1,.17,2.21,3.2,3.2,0,0,1-2.45,3.45c0,3.71,0,7.43,0,11.14q8.1-1.65,16.24-3.11l.06-10.65C54.22,181.87,53.31,180,52.86,176.94Zm-19.51-9.3q1.56-11.62,3.13-23,1.68,11.24,3.34,22.27Z"/><path class="cls-1" d="M103.84,127.52q0,3.38,0,6.74c0,.93,0,1.86,0,2.79a3.19,3.19,0,0,0-2.26,2.21,14.88,14.88,0,0,0-.31,3.72q-.12,14-.23,28,0,1,0,1.8a8.55,8.55,0,0,0,.22,1.88,2.69,2.69,0,0,0,2.23,2c0,3.18,0,6.35-.07,9.53l-.35,0q-7.86.88-15.7,1.93c0-3.28.06-6.57.08-9.85a3.67,3.67,0,0,0,2.26-2.46A16.52,16.52,0,0,0,90,172c0-.91,0-1.81,0-2.72,0-4.83.07-9.67.12-14.5q0-3.24.05-6.48c-.32,1.49-.65,3-1,4.48q-1.18,5.5-2.38,11.08-2.64,12.39-5.28,25.07c-1.77.25-3.55.51-5.32.78q-3.72-19.57-7.44-39.88-.08,12.24-.17,24.48a17.6,17.6,0,0,0,.25,3.95,2.66,2.66,0,0,0,2.22,2c0,3.41,0,6.82-.07,10.23q-6.94,1.09-13.86,2.32l.06-10.6a4,4,0,0,0,2.25-2.7,19.07,19.07,0,0,0,.31-4.12q.09-15.39.19-30.78a18.51,18.51,0,0,0-.25-4.06,3,3,0,0,0-2.23-2.31q0-5.3.07-10.59l17-.06h1q1.53,8.6,3.06,17.07,1.09,6.06,2.19,12.05c.25-1.33.51-2.65.77-4h0q1.33-7,2.69-13.82v0q1.11-5.7,2.23-11.34H89.8Z"/><path class="cls-1" d="M346.68,138.26c-1.91-7.06-6.41-10.5-13.47-10.51l-19.84-.08.06,10.69a3.35,3.35,0,0,1,2.26,2.5A20,20,0,0,1,316,145q.08,15.72.17,31.46a19,19,0,0,1-.26,4.13,2.65,2.65,0,0,1-2.22,2.08l.06,10.69q8,1.44,15.89,3.07,0-5.58,0-11.18a5.55,5.55,0,0,1-2.23-2.93,20,20,0,0,1-.3-4.29c0-1,0-2,0-3,2.24.31,4.48.64,6.72,1,7.32,1.11,11.79-2.4,13.44-10.83a71,71,0,0,0,.83-12.68C348.05,146.38,347.59,141.61,346.68,138.26Zm-10.91,21.05c-.87,1.18-2.55,1.63-5,1.38l-3.72-.37q0-8.9-.07-17.8l4.91.23a4.53,4.53,0,0,1,4.19,2.57q1,2.06,1,6.65Q337.07,157.54,335.77,159.31Z"/><path class="cls-1" d="M310.14,138.25a2.89,2.89,0,0,0-2.23,2.26,19.23,19.23,0,0,0-.25,4.11q.07,13.55.17,27.08c0,6.16-.5,10.45-1.6,12.83-2.43,5.27-7,7.24-13.67,6.2q-9.62-1.48-13.62-9.51a21.13,21.13,0,0,1-2-9.61c0-.45,0-.91,0-1.36,0-.74,0-1.47,0-2.21l-.09-11.94q-.06-6.39-.1-12.77a17,17,0,0,0-.31-3.8,3.1,3.1,0,0,0-2.23-2.25c0-1,0-2,0-3l-.06-6.72,10.17,0h5.86c0,3.36,0,6.72.07,10.08a3,3,0,0,0-2.19,2.2,17.2,17.2,0,0,0-.25,3.88c0,1.52,0,3,0,4.57v.25q.07,10.44.16,20.91a14.87,14.87,0,0,0,.81,5.6,5.35,5.35,0,0,0,4.52,3.26c3.33.42,5-2.21,4.93-7.92q-.11-13.12-.19-26.24a18.82,18.82,0,0,0-.31-4,3.25,3.25,0,0,0-2.26-2.37c0-3.41-.05-6.81-.07-10.21l14.65,0C310.09,131.19,310.12,134.72,310.14,138.25Z"/><path class="cls-1" d="M271,183.55a44.53,44.53,0,0,1-5.92,2,28,28,0,0,1-9.76.88l-.94-.11c-6.33-.83-10.76-3.4-13.3-7.76a15.76,15.76,0,0,1-1.7-6.1c-.12-1.13-.18-2.38-.19-3.73q0-4.91-.07-9.83c0-5.87-.08-11.74-.12-17.61a18.77,18.77,0,0,1,1.14-7q2.22-5.74,8.86-7.36a25.41,25.41,0,0,1,5.79-.63,30.46,30.46,0,0,1,15.78,4.35l0,3.64q.06,6.56.11,13.12c-3.47-.15-6.93-.28-10.39-.41,0-.54,0-1.08,0-1.62,0-2.69-.55-4.65-1.61-5.86a4.45,4.45,0,0,0-3.47-1.5q-5.27-.09-5.2,7.87l.09,12.85.06,7.95a12.08,12.08,0,0,0,1.06,5.65,5,5,0,0,0,4.31,2.44c3.33.28,5-2.17,4.93-7.38,0-1.58,0-3.16,0-4.74q5.2.35,10.39.72l0,3.26q0,6,.1,12C271,180.28,271,181.92,271,183.55Z"/><path class="cls-1" d="M141.14,169.25c0-.27,0-.55,0-.82s0-1,0-1.68v-1.1c0-.55,0-.93,0-1.13q0-7-6.39-8c3.72-1.26,6.08-4,7.07-8.13a22,22,0,0,0,.56-5c0-.72,0-1.41-.06-2.09a19.31,19.31,0,0,0-1.59-7,11.29,11.29,0,0,0-3.51-4.43q-3.13-2.36-9.84-2.36H107.84q0,3.37,0,6.75c0,.31,0,.62,0,.93v.17c.15.65.32,1.14.49,1.78a2.8,2.8,0,0,1,1.73,1.92,15.47,15.47,0,0,1,.25,3.64c0,.29,0,.58,0,.87v.17q-.1,13.26-.2,26.52a16,16,0,0,1-.31,3.67,3.53,3.53,0,0,1-2.27,2.32l0,4.29c0,1.73,0,3.45,0,5.18l4.63-.47q5.72-.57,11.45-1.05c0-3.08,0-6.15.07-9.23a2.75,2.75,0,0,1-2.24-1.92,14.33,14.33,0,0,1-.26-3.57c0-1.82,0-3.64,0-5.46,0-.74,0-1.47,0-2.21l4-.21c1.91-.09,3.25.33,4,1.25s1.14,2.53,1.12,4.8,0,4.53,0,6.78c0,.31,0,.61,0,.92a26.94,26.94,0,0,0,.87,8.25q4.89-.36,9.79-.64h0l2.23-.13c0-3,0-6,0-9Q141.12,172.86,141.14,169.25Zm-11.6-18.9a6.58,6.58,0,0,1-4.12,1.17l-2,.07-2.2.08,0-4c0-3.11,0-6.22.07-9.34l3.51-.06h.49a7.17,7.17,0,0,1,4.38,1.12,5.07,5.07,0,0,1,1.64,3.41h0a12.59,12.59,0,0,1,.12,1.81C131.39,147.31,130.77,149.23,129.54,150.35Zm91-.43-8.9-.17c0-2,0-4,0-6a8.8,8.8,0,0,0-.83-4.38,4.19,4.19,0,0,0-3.51-1.75l.09,30.1a13.7,13.7,0,0,0,.3,3.45,3.13,3.13,0,0,0,2.26,2.07c0,2.34,0,4.67,0,7,0,.63,0,1.26,0,1.89l-5-.16q-5.55-.17-11.12-.24v-2.21c0-2.21,0-4.42,0-6.63a3,3,0,0,0,2.26-2,12.72,12.72,0,0,0,.27-3.42q0-15-.05-30a4.24,4.24,0,0,0-4,3.26,10.59,10.59,0,0,0-.39,3.06c0,.7,0,1.4,0,2.11,0,1.18,0,2.36,0,3.54-3,0-5.93,0-8.9,0v-22.1h13.14q12.13,0,24.25,0l0,6.81Q220.51,142.09,220.54,149.92Z"/><path class="cls-1" d="M181.5,127.43v8.82a2.81,2.81,0,0,0-2.25,1.95,13.68,13.68,0,0,0-.29,3.46v5.94q0,3.28,0,6.57v10.2c0,4.72-.48,8.18-1.43,10.39-.09.21-.18.41-.28.6a12.52,12.52,0,0,1-6,5.74,19.87,19.87,0,0,1-7.85,1.64,22.32,22.32,0,0,1-2.61-.06c-5.11-.38-8.79-2.46-11-6.32a14.77,14.77,0,0,1-1.84-6.82h0c0-.55,0-1.11,0-1.69,0-1.09,0-2.18,0-3.27q0-7,.07-13.95l0-7.11c0-.53,0-1.07,0-1.6a14,14,0,0,0-.26-3.48,2.83,2.83,0,0,0-2.21-2c0-.73,0-1.45,0-2.18,0-2.27,0-4.55,0-6.81l16,0c0,2.28,0,4.55,0,6.83,0,.68,0,1.37,0,2.05a3,3,0,0,0-2.22,2,13.05,13.05,0,0,0-.29,3.45c0,1.54,0,3.08,0,4.62,0,2.26,0,4.52,0,6.78q0,5.72,0,11.43a10.81,10.81,0,0,0,.76,4.87q1.25,2.37,4.52,2.29c3.36-.08,5-2.56,5-7.47q0-5.07,0-10.12c0-2.19,0-4.38,0-6.57,0-2,0-3.94,0-5.91a13.52,13.52,0,0,0-.27-3.43,2.89,2.89,0,0,0-2.24-2v-2q0-3.42,0-6.83Z"/><polygon class="cls-1" points="272.7 91.27 269.09 93.69 268.34 91.11 272.7 91.27"/></g><path id="P_Gray_2_C" data-name="P Gray 2 C" class="cls-3" d="M366.58,167.9A98.5,98.5,0,0,0,367.71,151c0-8.2-.63-14.68-1.92-19.81-4-15.68-15.7-26.16-31.31-26.19L321,104.91h-.2l-6.3,0-17-.07h-3.15s0-.09,0-.14A110.58,110.58,0,0,0,183.92,0c-2,0-4,.05-6,.16A110.8,110.8,0,0,0,73.35,105c-5.22,0-10.44,0-15.67,0h-13c-5.56,0-25.42,0-25.42,0H11.78l-2,17.12C7.54,140.25,5.21,159.5,2.9,179.3L0,182v34.17l9.88,3.12h0l28.59,10.06q-3.42,1-7,2.06l-3.81,1.17L7.08,292l14.48-4.05c.37-.1,37.05-10.27,60.8-10.37A157.74,157.74,0,0,0,139.05,341c23,14.6,42.3,18.49,43.11,18.64l1.69.33,1.69-.33c.81-.15,20.13-4,43.11-18.64a157.74,157.74,0,0,0,56.69-63.43h.08c23.71,0,60.79,10.27,61.16,10.37l14,3.6L340,231.65c-4.28-1.32-8.58-2.51-12.83-3.55l22-13.93-.08-21.86C355.81,189.37,363.86,182.77,366.58,167.9ZM79,270.26c-25.23.77-60.83,10.9-60.83,10.9l14.48-42.5c6.65-2.09,12.67-3.72,18.1-5l1.37-.31c1.68-.38,3.3-.73,4.86-1l1.54-.3-.66,2.37-8.29,29.92,16.89,3.22,12.38,2.36,1.71.33Zm105,79.81s-57.86-11.29-90.85-72h.16l4.55-17.23,1.53-.29,3.87-.68a507.29,507.29,0,0,1,85.62-7.38A456.3,456.3,0,0,1,266.43,259l2.11.37,1.55.45h0l4.78,18.08C241.88,338.75,183.91,350.07,183.91,350.07Zm97.49-80.7-.82-3.16-1.24-4.8h0l-2.21-8.54c-2.76-.55-5.66-1.1-8.68-1.63l-.63-.11c-38.37-6.71-96.93-11.32-167.81,1.24l-.63.11h0c-2.87.51-5.77,1-8.68,1.62h0l-2.19,8.48h0l-1,4-.71,2.72-8.89-1.7-6.7-1.27L53,262.93l-.78-.15-.17,0,7.92-28.56.72-2.58,1.79-6.48.34-1.21,2.12-7.65h0l.83-.24.09,0,.59-.16.77-.21.43-.12c.87-.24,1.89-.5,3.05-.8l1-.26.2,0,1.29-.32,3.45-.83.91-.21c1.35-.32,2.81-.65,4.35-1l.93-.2,1.9-.41,1.06-.22,2.34-.48,1.2-.24,3.62-.71.32-.06,2.21-.41,1.64-.3,1.38-.25,1.82-.32,2.49-.42,2.65-.44,1.87-.3c1-.16,2.07-.33,3.13-.48l1.61-.24c1-.16,2-.31,3.08-.45l1.85-.26,3.4-.45,1.74-.22,3.53-.44q5.88-.7,12.19-1.3a496.13,496.13,0,0,1,92.3-.21q6,.54,12.14,1.27h0q5.69.68,11.47,1.51,3.69.53,7.41,1.14l3.06.5,4.62.81,3.86.71q5.8,1.08,11.68,2.36l3.92.87,3.93.91,2.87.69q2.52.6,5,1.26c1.32.33,2.64.68,4,1l1.93,7.6.75,2.92,1.24,4.88,1.26,4.95L316,262.75h0l-.58.11L298.79,266l-9,1.72Zm54.13-30.71L350,281.16s-9.73-2.77-22.62-5.51l.06.23-1.35-.51c-11.66-2.45-25.65-4.81-37.34-5.13l-1.18,0,1.3-.25,14.21-2.72,15.32-2.94-7-27.41-1.22-4.78c2,.39,4.13.83,6.34,1.34l1.56.36C323.37,235.07,329.16,236.66,335.53,238.66Zm4.7-51.81.08,24L314.6,225.34h0l-.11.06,0-.09L313.33,221,310.74,211l-4.45-1.18a453.07,453.07,0,0,0-55.77-11q-5.22-.71-10.47-1.28-20.87-2.32-42.28-2.84h0q-6.13-.15-12.29-.15c-5.15,0-10.2.08-15.12.23h0c-15.48.44-29.73,1.55-42.46,3h0q-5.44.6-10.51,1.28c-33.06,4.38-53.56,10.47-54.88,10.87l-4.12,1.24-4,14.31h0v0h0L9,210.65l-.09,0V186.39l2.32-2.19a19.5,19.5,0,0,0,.5-2.81C14,161.81,16.28,142,18.65,122.55l1.06-8.76,25.35-.12h2l6.71,0h3.09l16.38-.05h1.66l5.42,0c-.09-2.74-.06-5.45.07-8.14A103.71,103.71,0,0,1,178.25,7.22c1.88-.1,3.79-.16,5.67-.16l2.13,0,.9,0h.13l1.27,0,1.07,0h.27c1.4.08,2.8.18,4.18.32l.41,0,1.78.19.15,0,.77.1.31,0c.49.05,1,.12,1.46.19l.38.06.15,0c.52.07,1,.15,1.54.24l.72.12c1.64.28,3.26.6,4.88,1,1.43.32,2.84.66,4.25,1.05l1.1.3,1.33.38.87.26.87.27.54.16c1.63.52,3.25,1.09,4.85,1.69.6.22,1.18.44,1.77.68l.19.08h0l.57.23h0c.64.26,1.27.52,1.9.8s1.47.63,2.2,1,1.46.68,2.18,1,1.43.7,2.14,1.07,1.23.64,1.83,1l.36.19c.68.37,1.35.74,2,1.13s1.13.66,1.69,1l.31.19h0l0,0h0c.4.24.81.49,1.2.75h0c.34.21.68.42,1,.64l.29.19c.49.31,1,.64,1.48,1q2,1.32,3.89,2.74c.64.47,1.27.95,1.9,1.44s1.25,1,1.86,1.48,1.21,1,1.81,1.5l0,0,.11.1.32.27c1.06.9,2.1,1.83,3.11,2.79.51.47,1,1,1.51,1.44l.31.31c.1.1.2.19.3.3l.21.2c.37.35.73.71,1.07,1.08.57.57,1.11,1.14,1.64,1.72s1.09,1.16,1.6,1.75,1.06,1.19,1.57,1.8.94,1.11,1.39,1.67l.2.24c.48.59,1,1.19,1.41,1.79s1,1.26,1.44,1.9.94,1.28,1.39,1.93.84,1.2,1.25,1.81l.17.25q1.31,1.93,2.5,4c.36.56.69,1.14,1,1.72,0,0,0,0,0,0,.12.19.23.39.34.59.29.5.57,1,.84,1.51.09.15.18.31.26.47.36.65.71,1.31,1,2s.67,1.3,1,2l.16.34c.33.67.65,1.35,1,2,.22.48.45,1,.65,1.46,0,.06.05.11.07.17a3.09,3.09,0,0,1,.14.32c.06.12.12.25.17.38.3.7.6,1.41.87,2.12.21.49.41,1,.59,1.51,0,.1.08.2.11.3a1.67,1.67,0,0,1,.08.2c.07.17.13.33.19.5.18.46.35.93.5,1.39l0,.13a.49.49,0,0,1,0,.11s0,0,0,0c.1.26.19.53.27.79l.06.17c.16.47.32.93.47,1.41l.06.2a1.18,1.18,0,0,1,.07.2c.24.74.47,1.49.69,2.24a.19.19,0,0,1,0,.08.24.24,0,0,1,0,.08l.06.21a.56.56,0,0,0,0,.12c.19.63.37,1.28.53,1.92s.38,1.41.55,2.13c0,.07,0,.15.05.22s0,0,0,0c.19.79.37,1.59.54,2.39s.35,1.62.5,2.44.31,1.63.44,2.45.27,1.64.38,2.47c.24,1.64.44,3.3.59,5a0,0,0,0,1,0,0v0c0,.06,0,.12,0,.18q.12,1.14.18,2.31a.65.65,0,0,1,0,.24c0,.37.06.75.08,1.12a2.28,2.28,0,0,1,0,.26q.22,4.27.11,8.49l7.07,0h9.66l10,0c2.16,0,4.33,0,6.48,0,4.5,0,9,0,13.47.06,11.65,0,20.08,7,23.09,19.13,1.12,4.53,1.67,10.46,1.67,18.14a93.85,93.85,0,0,1-1,15.73C355.06,182,346.13,185.94,340.23,186.85Z"/><g id="P_7490_C" data-name="P 7490 C"><polygon class="cls-4" points="90.68 254.12 88.49 262.6 88.48 262.6 90.68 254.12"/><path class="cls-4" d="M90.69,254.11h0Z"/><path class="cls-4" d="M279.34,261.41h0l-2.21-8.54h0Z"/><path class="cls-4" d="M327.45,275.88l-1.35-.51,1.29.28Z"/><path class="cls-4" d="M314.59,225.34l-.11.06,0-.09Z"/><path class="cls-4" d="M279.34,261.41h0l-2.21-8.54h0Z"/><path class="cls-4" d="M327.45,275.88l-1.35-.51,1.29.28Z"/><path class="cls-4" d="M54.29,225.48v0h0S54.28,225.47,54.29,225.48Z"/><polygon class="cls-4" points="90.68 254.12 88.49 262.6 88.48 262.6 90.68 254.12"/><path class="cls-4" d="M90.69,254.11h0Z"/><path class="cls-5" d="M107.57,134.26l.21.93c0-.31,0-.62,0-.93Z"/><path class="cls-5" d="M127.18,113.51c.91,0,1.8-.06,2.66,0H114.29c4.27,0,8.55,0,12.82,0Z"/><path class="cls-5" d="M146.5,113.51h-11s5.4,0,10.87,0C146.41,113.54,146.46,113.49,146.5,113.51Z"/><path class="cls-5" d="M142.5,60.59a95,95,0,0,0-14.3,21.82l-1.78.07c-.68-1.18-1.35-2.36-2-3.53l0-1c.53-.88,1.24-2.06,1.65-2.66a70.81,70.81,0,0,1,15-16.17Z"/><path class="cls-5" d="M205,47.56l-.14,2c-13,2.27-31.47,9.77-45.88,32.62l0,0c-3.83,5.63-8.46,15.21-11.05,21.78l-1.51.45A63.79,63.79,0,0,1,132.12,91L132,90l.05-.13A81.77,81.77,0,0,1,152,60.33c8.69-8.46,16.69-13.3,25.18-15.22a34.06,34.06,0,0,1,7.72-.9c1.91,0,3.73.15,5.74.34A64.41,64.41,0,0,1,205,47.56Z"/><path class="cls-5" d="M230.44,113.51h-3.83l0-.05Z"/><path class="cls-5" d="M251.07,104.9l.41,1.11h0C251.32,105.64,251.2,105.27,251.07,104.9Z"/><path class="cls-5" d="M253.4,105.57s0,0,0,0l-.1,0h-.07c0-.44,0-.79,0-1v-.1Z"/><path class="cls-4" d="M190.59,44.55c-2-.19-3.83-.34-5.74-.34a34.06,34.06,0,0,0-7.72.9C168.64,47,160.64,51.87,152,60.33A81.77,81.77,0,0,0,132,89.9L132,90l.14,1a63.79,63.79,0,0,0,14.28,13.39l1.51-.45c2.59-6.57,7.22-16.15,11.05-21.78l0,0c14.41-22.85,32.9-30.35,45.88-32.62l.14-2A64.41,64.41,0,0,0,190.59,44.55Z"/><path class="cls-4" d="M146.37,113.51c-5.47,0-10.87,0-10.87,0h11S146.41,113.54,146.37,113.51Zm-19.26,0c-4.27,0-8.55,0-12.82,0h15.55c-.86-.06-1.75,0-2.66,0Z"/><path class="cls-4" d="M141.13,59.1a70.81,70.81,0,0,0-15,16.17c-.41.6-1.12,1.78-1.65,2.66l0,1c.64,1.17,1.31,2.35,2,3.53l1.78-.07a95,95,0,0,1,14.3-21.82Z"/><path class="cls-4" d="M253.38,105.57c0,.07,0,.37-.1.78q0-.37,0-.75t0-1c0,.18,0,.53,0,1-.08,1.42-.25,3.78-.25,4.37v.08h0s0,0,0,0a24.41,24.41,0,0,0,.3-3.19l.13-1.33Z"/><path class="cls-4" d="M226.58,113.46l0,.05h3.83Z"/><path class="cls-4" d="M146.37,113.51c-5.47,0-10.87,0-10.87,0h-5.66c-.86-.06-1.75,0-2.66,0h-.07c-4.27,0-8.55,0-12.82,0h0a60.14,60.14,0,0,1,.88-7.71A99.38,99.38,0,0,1,119.85,88l1.83-.13a66.13,66.13,0,0,0,3.51,5.87,66.94,66.94,0,0,0,10.41,12A57.58,57.58,0,0,0,146.37,113.51Z"/><path class="cls-4" d="M239.43,72.72l-.8,1.67-1.87,0c-1.88,0-3.44.06-4.9.19-17.38,1.54-31.52,8.94-42,22a44.19,44.19,0,0,0-5.68,9.16,45.05,45.05,0,0,0-2,5c-.08.26-.18.55-.28.84l-.8.68a44.08,44.08,0,0,1-6.7.5A57.22,57.22,0,0,1,154.43,109l-.6-1.31.2-.55c.17-.46.33-.92.5-1.37.72-2,1.43-3.88,2.24-5.75a85.39,85.39,0,0,1,21.51-30.41A54.29,54.29,0,0,1,207.82,56c3.69-.48,9.7-.8,12.11-.91l.57.14C223.79,57.22,232.72,64.4,239.43,72.72Z"/><path class="cls-4" d="M253.25,104.49v0h0v.12c0,.18,0,.53,0,1-.08,1.42-.25,3.78-.25,4.37V110h0s0,0,0,0,0-.09-.05-.15c-.08-.23-.21-.6-.38-1,0-.11-.07-.21-.11-.32-.14-.36-.28-.74-.42-1.13s-.35-.95-.5-1.37l-.41-1.11a2.27,2.27,0,0,1-.08-.22,95.84,95.84,0,0,0-11.05-22.11l.82-1.6c1.34,0,2.7,0,4,0l.86.53c.5.9,1.15,2.12,1.46,2.77.19.41.38.83.58,1.24,0,.08.07.15.1.23a1.3,1.3,0,0,0,.08.17c2.33,5.08,5,11.75,5.39,18.52A.06.06,0,0,1,253.25,104.49Z"/><path class="cls-4" d="M246.71,113.51H230.44l-3.86-.05c-.56-1.25-1.17-2.5-1.81-3.75l0,0c-.57-1.22-1.26-2.55-2-3.94a144.45,144.45,0,0,0-11.06-16.65l.36-1.55A63.27,63.27,0,0,1,230.6,81.7l.92.37.1.13a79,79,0,0,1,12.81,23.66Q245.72,109.55,246.71,113.51Z"/><path class="cls-4" d="M219.4,113.51H188.23a.59.59,0,0,1,.06-.14,45.57,45.57,0,0,1,4-7.66,59.77,59.77,0,0,1,11.85-13.39l1.41.13.38.45c1.67,2,3.24,3.95,4.71,6q2.46,3.39,4.56,6.87,2.3,3.78,4.16,7.66A.61.61,0,0,1,219.4,113.51Z"/><path class="cls-4" d="M90.69,254.11h0Z"/><path class="cls-4" d="M90.69,254.11h0Z"/><path class="cls-4" d="M80.5,270.22l-1.55,0c-25.23.77-60.83,10.9-60.83,10.9l14.48-42.5c6.65-2.09,12.67-3.72,18.1-5l1.37-.31c1.68-.38,3.3-.73,4.86-1l1.54-.3-.66,2.37-8.29,29.92,16.89,3.22,12.38,2.36Z"/><path class="cls-4" d="M350,281.16s-9.73-2.77-22.62-5.51l-1.29-.28c-11.66-2.45-25.65-4.81-37.34-5.13l-1.18,0,1.3-.25,14.21-2.72,15.32-2.94-7-27.41-1.22-4.78c2,.39,4.13.83,6.34,1.34l1.56.36c5.25,1.25,11,2.84,17.41,4.84Z"/><path class="cls-4" d="M90.69,254.11h0Z"/><path class="cls-4" d="M90.69,254.11h0Z"/><path class="cls-4" d="M316,262.75h0c-3.42-1.44-11.46-3.56-19.37-5.46h0l-.1,0-2.38-.56c-3.18-.75-6.25-1.45-8.87-2.05l-7.73-1.7-.27-.06h-.07c-2.76-.55-5.66-1.1-8.68-1.63l-.63-.11c-38.37-6.71-96.94-11.32-167.81,1.24l-.63.11h0c-2.87.51-5.77,1-8.68,1.62h0l-.38.07-.21,0c-1.13.2-3.74.68-7.1,1.33-2.67.52-5.83,1.14-9.09,1.82-8.56,1.77-18,3.89-21.68,5.4l-.18,0,7.93-28.56.72-2.58,1.78-6.48.35-1.21,2.12-7.65h0l.83-.24.09,0,.59-.16.76-.21.43-.12,3.06-.8,1-.26.19,0,1.3-.32,3.44-.83.92-.21c1.34-.32,2.81-.65,4.34-1l.93-.2,1.91-.41,1.06-.22,2.34-.48,1.19-.24,3.63-.71.31-.06,2.22-.41,1.64-.3,1.38-.25,1.82-.32,2.49-.42,2.64-.44,1.87-.3c1-.16,2.07-.33,3.13-.48l1.62-.24,3.07-.45,1.86-.26,3.39-.45,1.74-.22,3.54-.44q5.86-.7,12.19-1.3a496.13,496.13,0,0,1,92.3-.21q6,.54,12.14,1.27h0q5.69.68,11.47,1.51c2.46.35,4.92.73,7.41,1.14l3.06.5,4.62.81,3.86.71q5.8,1.08,11.68,2.36l3.91.87,3.94.91,2.87.69q2.52.6,5,1.26l4,1,1.94,7.6.75,2.92,1.24,4.88,1.26,4.95Z"/></g><g id="P_2955C" data-name="P 2955C"><path class="cls-5" d="M357.11,132.86c-3-12.13-11.44-19.11-23.09-19.13-4.49,0-9,0-13.47-.06-2.15,0-4.32,0-6.48,0l-10,0h-42a77.56,77.56,0,0,0-.87-9.33l-.06-.35a77.53,77.53,0,0,0-14.71-34.57l-.32-.42c-.08-.12-.17-.23-.26-.35s-.25-.33-.38-.49c-.39-.51-.8-1-1.2-1.52-.14-.18-.28-.36-.44-.53-.32-.4-.65-.79-1-1.18a4.32,4.32,0,0,0-.34-.39c-.41-.48-.83-.95-1.26-1.42-1-1.08-2-2.13-3-3.15l-1.51-1.45-.14-.12c-.48-.45-1-.89-1.46-1.32l-.27-.24c-.49-.43-1-.85-1.49-1.27-.66-.55-1.34-1.09-2-1.61-.4-.32-.81-.63-1.22-.93-1.11-.83-2.23-1.63-3.39-2.39-.41-.28-.83-.55-1.25-.81a4.25,4.25,0,0,0-.39-.25c-.35-.23-.71-.45-1.07-.66a5.74,5.74,0,0,0-.53-.32c-.37-.23-.74-.44-1.11-.66-.73-.42-1.48-.83-2.22-1.22L218.9,46l-1.39-.68c-.39-.2-.78-.38-1.18-.57-1.31-.6-2.63-1.17-4-1.7-.47-.2-.95-.38-1.43-.56l-.66-.24c-.33-.12-.67-.25-1-.35s-.67-.24-1-.35c-.54-.19-1.1-.36-1.65-.53l-1-.29-1.06-.31-1-.27-.66-.17-1.22-.3c-.62-.15-1.23-.28-1.85-.41s-1.37-.28-2.06-.41-1.12-.2-1.69-.28l-1.44-.22-1.8-.23c-.68-.08-1.35-.15-2-.21s-1.4-.12-2.11-.16l-.39,0-1.62-.08-.87,0q-1,0-2,0c-39.49,0-72.15,29.67-77.42,68.21q-.52,3.78-.68,7.66v0H85.91l-5.58,0-5.42,0H73.25l-16.38.05H53.78l-6.71,0h-2l-25.35.12-1.06,8.76C16.28,142,14,161.81,11.71,181.39a19.5,19.5,0,0,1-.5,2.81l-2.32,2.19v24.23l.09,0,45.26,14.84h0s0,0,0,0h0l4-14.31,4.12-1.24c1.32-.4,21.82-6.49,54.88-10.87q5.07-.67,10.51-1.28h0c12.73-1.42,27-2.53,42.46-3h0c4.92-.15,10-.23,15.12-.23q6.16,0,12.29.15h0q21.39.51,42.28,2.84,5.25.57,10.47,1.28a453.07,453.07,0,0,1,55.77,11l4.45,1.18,2.59,9.95,1.12,4.33.14,0h0l25.71-14.47-.08-24c5.9-.91,14.83-4.88,17.55-20.12a93.85,93.85,0,0,0,1-15.73C358.78,143.32,358.23,137.39,357.11,132.86ZM55.52,193.11q-8.13,1.45-16.24,3.11c0-3.71,0-7.43,0-11.14a3.2,3.2,0,0,0,2.45-3.45,17.42,17.42,0,0,0-.17-2.21c-.12-.95-.25-1.9-.37-2.84q-4.59.66-9.17,1.37c-.14,1-.29,2-.43,3a14.72,14.72,0,0,0-.12,2c0,2.13.85,3.12,2.56,3l0,11.32q-7.21,1.51-14.42,3.2V188.69c1.34-1.15,2.25-3.64,2.74-7.45q3.41-27.3,6.9-53.47l16.55-.07q3.54,25.12,7,49.24c.45,3.1,1.36,4.93,2.72,5.52Zm48.27-58.85c0,.93,0,1.86,0,2.79a3.19,3.19,0,0,0-2.26,2.21,14.88,14.88,0,0,0-.31,3.72q-.12,14-.23,28,0,1,0,1.8a8.55,8.55,0,0,0,.22,1.88,2.69,2.69,0,0,0,2.23,2c0,3.18,0,6.35-.07,9.53l-.35,0q-7.86.88-15.7,1.93c0-3.28.06-6.57.08-9.85a3.67,3.67,0,0,0,2.26-2.46A16.52,16.52,0,0,0,90,172c0-.91,0-1.81,0-2.72,0-4.83.07-9.67.12-14.5q0-3.24.05-6.48c-.32,1.49-.65,3-1,4.48q-1.18,5.5-2.38,11.08-2.64,12.39-5.28,25.07c-1.77.25-3.55.51-5.32.78q-3.72-19.57-7.44-39.88-.08,12.24-.17,24.48a17.6,17.6,0,0,0,.25,3.95,2.66,2.66,0,0,0,2.22,2c0,3.41,0,6.82-.07,10.23q-6.94,1.09-13.86,2.32l.06-10.6a4,4,0,0,0,2.25-2.7,19.07,19.07,0,0,0,.31-4.12q.09-15.39.19-30.78a18.51,18.51,0,0,0-.25-4.06,3,3,0,0,0-2.23-2.31q0-5.3.07-10.59l17-.06h1q1.53,8.6,3.06,17.07,1.09,6.06,2.19,12.05c.25-1.33.51-2.65.77-4h0q1.33-7,2.69-13.82v0q1.11-5.7,2.23-11.34H89.8l14,0Q103.82,130.9,103.79,134.26ZM240.76,81c1.34,0,2.7,0,4,0l.86.53c.5.9,1.15,2.12,1.46,2.77.19.41.38.83.58,1.24,0,.08.07.15.1.23a1.3,1.3,0,0,0,.08.17c2.33,5.08,5,11.75,5.39,18.52a.06.06,0,0,1,0,0v0h0v.12c0,.18,0,.53,0,1h.07q0,.38,0,.75h0v0l0,.35a1.1,1.1,0,0,0,0,.18c0,.23,0,.49-.07.74a.13.13,0,0,1,0,.06c0,.12,0,.24,0,.36v0l0,.37c0,.15,0,.29,0,.42,0,.45-.07.83-.08,1h0s0,0,0,0V110h0s0,0,0,0,0-.09-.05-.15c-.08-.23-.21-.6-.38-1,0-.11-.07-.21-.11-.32-.14-.36-.28-.74-.42-1.13s-.35-.95-.5-1.37l-.41-1.11a2.27,2.27,0,0,1-.08-.22,95.84,95.84,0,0,0-11.05-22.11ZM152,60.33c8.69-8.46,16.69-13.3,25.18-15.22a34.06,34.06,0,0,1,7.72-.9c1.91,0,3.73.15,5.74.34a64.41,64.41,0,0,1,14.41,3l-.14,2c-13,2.27-31.47,9.77-45.88,32.62l0,0c-3.83,5.63-8.46,15.21-11.05,21.78l-1.51.45A63.79,63.79,0,0,1,132.12,91L132,90l.05-.13A81.77,81.77,0,0,1,152,60.33Zm-27.5,17.6c.53-.88,1.24-2.06,1.65-2.66a70.81,70.81,0,0,1,15-16.17l1.37,1.49a95,95,0,0,0-14.3,21.82l-1.78.07c-.68-1.18-1.35-2.36-2-3.53Zm-9.31,27.87A99.38,99.38,0,0,1,119.85,88l1.83-.13a66.13,66.13,0,0,0,3.51,5.87,66.94,66.94,0,0,0,10.41,12,57.58,57.58,0,0,0,10.77,7.75h.11s-.08,0-.11,0H114.26A60.14,60.14,0,0,1,115.14,105.8Zm28,77-2.23.13h0q-4.9.28-9.79.64a26.94,26.94,0,0,1-.87-8.25c0-.31,0-.61,0-.92,0-2.25,0-4.52,0-6.78s-.36-3.87-1.12-4.8-2.11-1.34-4-1.25l-4,.21c0,.74,0,1.47,0,2.21,0,1.82,0,3.64,0,5.46a14.33,14.33,0,0,0,.26,3.57,2.75,2.75,0,0,0,2.24,1.92c0,3.08-.05,6.15-.07,9.23q-5.73.48-11.45,1.05l-4.63.47c0-1.73,0-3.45,0-5.18l0-4.29a3.53,3.53,0,0,0,2.27-2.32,16,16,0,0,0,.31-3.67q.1-13.26.2-26.52v-.17c0-.29,0-.58,0-.87a15.47,15.47,0,0,0-.25-3.64,2.8,2.8,0,0,0-1.73-1.92,3.66,3.66,0,0,0-.5-.16c0-.54,0-1.08,0-1.62v-.17l-.21-.93h.22q0-3.37,0-6.75h19.57q6.71,0,9.84,2.36a11.29,11.29,0,0,1,3.51,4.43,19.31,19.31,0,0,1,1.59,7c0,.68.06,1.37.06,2.09a22,22,0,0,1-.56,5c-1,4.17-3.35,6.87-7.07,8.13q6.36,1,6.39,8c0,.2,0,.58,0,1.13v1.1c0,.73,0,1.29,0,1.68s0,.55,0,.82q0,3.62,2,4.57C143.15,176.83,143.13,179.83,143.12,182.83Zm38.38-46.58a2.81,2.81,0,0,0-2.25,1.95,13.68,13.68,0,0,0-.29,3.46v5.94q0,3.28,0,6.57v10.2c0,4.72-.48,8.18-1.43,10.39-.09.21-.18.41-.28.6a12.52,12.52,0,0,1-6,5.74,19.87,19.87,0,0,1-7.85,1.64,22.32,22.32,0,0,1-2.61-.06c-5.11-.38-8.79-2.46-11-6.32a14.77,14.77,0,0,1-1.84-6.82h0c0-.55,0-1.11,0-1.69,0-1.09,0-2.18,0-3.27q0-7,.07-13.95l0-7.11c0-.53,0-1.07,0-1.6a14,14,0,0,0-.26-3.48,2.83,2.83,0,0,0-2.21-2c0-.73,0-1.45,0-2.18,0-2.27,0-4.55,0-6.81l16,0c0,2.28,0,4.55,0,6.83,0,.68,0,1.37,0,2.05a3,3,0,0,0-2.22,2,13.05,13.05,0,0,0-.29,3.45c0,1.54,0,3.08,0,4.62,0,2.26,0,4.52,0,6.78q0,5.72,0,11.43a10.81,10.81,0,0,0,.76,4.87q1.25,2.37,4.52,2.29c3.36-.08,5-2.56,5-7.47q0-5.07,0-10.12c0-2.19,0-4.38,0-6.57,0-2,0-3.94,0-5.91a13.52,13.52,0,0,0-.27-3.43,2.89,2.89,0,0,0-2.24-2v-2q0-3.42,0-6.83H181.5Zm.32-24.68-.8.68a44.08,44.08,0,0,1-6.7.5A57.22,57.22,0,0,1,154.43,109l-.6-1.31.2-.55c.17-.46.33-.92.5-1.37.72-2,1.43-3.88,2.24-5.75a85.39,85.39,0,0,1,21.51-30.41A54.29,54.29,0,0,1,207.82,56c3.69-.48,9.7-.8,12.11-.91l.57.14c3.29,2,12.22,9.17,18.93,17.49l-.8,1.67-1.87,0c-1.88,0-3.44.06-4.9.19-17.38,1.54-31.52,8.94-42,22a44.19,44.19,0,0,0-5.68,9.16,45.05,45.05,0,0,0-2,5C182,111,181.92,111.28,181.82,111.57Zm28.81-12.71q2.46,3.39,4.56,6.87,2.3,3.78,4.16,7.66a.61.61,0,0,1,.05.12H188.23a.59.59,0,0,1,.06-.14,45.57,45.57,0,0,1,4-7.66,59.77,59.77,0,0,1,11.85-13.39l1.41.13.38.45C207.59,94.93,209.16,96.85,210.63,98.86Zm1,50.89c0-2,0-4,0-6a8.8,8.8,0,0,0-.83-4.38,4.19,4.19,0,0,0-3.51-1.75l.09,30.1a13.7,13.7,0,0,0,.3,3.45,3.13,3.13,0,0,0,2.26,2.07c0,2.34,0,4.67,0,7,0,.63,0,1.26,0,1.89l-5-.16q-5.55-.17-11.12-.24v-2.21c0-2.21,0-4.42,0-6.63a3,3,0,0,0,2.26-2,12.72,12.72,0,0,0,.27-3.42q0-15-.05-30a4.24,4.24,0,0,0-4,3.26,10.59,10.59,0,0,0-.39,3.06c0,.7,0,1.4,0,2.11,0,1.18,0,2.36,0,3.54-3,0-5.93,0-8.9,0v-22.1h13.14q12.13,0,24.25,0l0,6.81q0,7.83.08,15.66Zm14.94-36.29c-.56-1.25-1.17-2.5-1.81-3.75l0,0c-.57-1.22-1.26-2.55-2-3.94a144.45,144.45,0,0,0-11.06-16.65l.36-1.55A63.27,63.27,0,0,1,230.6,81.7l.92.37.1.13a79,79,0,0,1,12.81,23.66q1.29,3.69,2.28,7.65h-20.1Zm38.54,72.1a28,28,0,0,1-9.76.88l-.94-.11c-6.33-.83-10.76-3.4-13.3-7.76a15.76,15.76,0,0,1-1.7-6.1c-.12-1.13-.18-2.38-.19-3.73q0-4.91-.07-9.83c0-5.87-.08-11.74-.12-17.61a18.77,18.77,0,0,1,1.14-7q2.22-5.74,8.86-7.36a25.41,25.41,0,0,1,5.79-.63,30.46,30.46,0,0,1,15.78,4.35l0,3.64q.06,6.56.11,13.12c-3.47-.15-6.93-.28-10.39-.41,0-.54,0-1.08,0-1.62,0-2.69-.55-4.65-1.61-5.86a4.45,4.45,0,0,0-3.47-1.5q-5.27-.09-5.2,7.87l.09,12.85.06,7.95a12.08,12.08,0,0,0,1.06,5.65,5,5,0,0,0,4.31,2.44c3.33.28,5-2.17,4.93-7.38,0-1.58,0-3.16,0-4.74q5.2.35,10.39.72l0,3.26q0,6,.1,12c0,1.63,0,3.27,0,4.9A44.53,44.53,0,0,1,265.12,185.56Zm42.79-45.05a19.23,19.23,0,0,0-.25,4.11q.07,13.55.17,27.08c0,6.16-.5,10.45-1.6,12.83-2.43,5.27-7,7.24-13.67,6.2q-9.62-1.48-13.62-9.51a21.13,21.13,0,0,1-2-9.61c0-.45,0-.91,0-1.36,0-.74,0-1.47,0-2.21l-.09-11.94q-.06-6.39-.1-12.77a17,17,0,0,0-.31-3.8,3.1,3.1,0,0,0-2.23-2.25c0-1,0-2,0-3l-.06-6.72,10.17,0h5.86c0,3.36,0,6.72.07,10.08a3,3,0,0,0-2.19,2.2,17.2,17.2,0,0,0-.25,3.88c0,1.52,0,3,0,4.57v.25q.07,10.44.16,20.91a14.87,14.87,0,0,0,.81,5.6,5.35,5.35,0,0,0,4.52,3.26c3.33.42,5-2.21,4.93-7.92q-.11-13.12-.19-26.24a18.82,18.82,0,0,0-.31-4,3.25,3.25,0,0,0-2.26-2.37c0-3.41-.05-6.81-.07-10.21l14.65,0c0,3.53.05,7.06.07,10.59A2.89,2.89,0,0,0,307.91,140.51Zm39.3,24.7c-1.65,8.43-6.12,11.94-13.44,10.83-2.24-.33-4.48-.66-6.72-1,0,1,0,2,0,3a20,20,0,0,0,.3,4.29,5.55,5.55,0,0,0,2.23,2.93q0,5.6,0,11.18-7.92-1.62-15.89-3.07l-.06-10.69a2.65,2.65,0,0,0,2.22-2.08,19,19,0,0,0,.26-4.13q-.09-15.74-.17-31.46a20,20,0,0,0-.3-4.18,3.35,3.35,0,0,0-2.26-2.5l-.06-10.69,19.84.08c7.06,0,11.56,3.45,13.47,10.51.91,3.35,1.37,8.12,1.36,14.27A71,71,0,0,1,347.21,165.21Z"/><path class="cls-5" d="M100.58,93a3.1,3.1,0,0,0-2.17-1.72,3.29,3.29,0,0,0-2.55.21,3.65,3.65,0,0,0-1.36,1.78L94,94.44a1.8,1.8,0,0,1-.66.84,1.15,1.15,0,0,1-.89.12,1.36,1.36,0,0,1-.89-.67,1.76,1.76,0,0,1-.09-1.3,3,3,0,0,1,1.31-2l-1-1.64a4.69,4.69,0,0,0-2.15,3,3.9,3.9,0,0,0,.24,2.89A3.27,3.27,0,0,0,92,97.39a2.94,2.94,0,0,0,3.79-2l.51-1.21a1.65,1.65,0,0,1,.64-.84,1.27,1.27,0,0,1,1-.08c.9.24,1.2,1,.88,2.2a3.41,3.41,0,0,1-1.57,2.29l1,1.68A5.08,5.08,0,0,0,100.75,96,4.44,4.44,0,0,0,100.58,93Z"/><path class="cls-5" d="M104.81,83.35l.78-2.06-12-.37L93,82.47l9.23,7.72.78-2.06-1.65-1.32,1.37-3.59Zm-5,2.24-3.38-2.75,4.33.24Z"/><path class="cls-5" d="M111.28,70.41l-10-5.41-1,1.85,4.08,5.38-6.74-.46-1,1.82,10,5.42,1-1.86L101.8,74l4.78.23.68-1.26-2.81-3.86,5.83,3.16Z"/><path class="cls-5" d="M111.08,63.16l1.23-1.68A3.61,3.61,0,0,0,109,55.81a3.42,3.42,0,0,0-2.39,1.5l-2.47,3.38,9.19,6.69,1.24-1.7Zm-.45-2.77L109.47,62,107,60.15l1.16-1.59a1.55,1.55,0,0,1,1-.67,1.58,1.58,0,0,1,1.17.33,1.49,1.49,0,0,1,.66,1A1.53,1.53,0,0,1,110.63,60.39Z"/><path class="cls-5" d="M138,38.91a3.26,3.26,0,0,0-2.05-1.53,3.66,3.66,0,0,0-2.19.43l-1.16.56a1.69,1.69,0,0,1-1.06.19,1.08,1.08,0,0,1-.74-.49,1.37,1.37,0,0,1-.23-1.1,1.75,1.75,0,0,1,.8-1,3,3,0,0,1,2.27-.6l.32-1.89a4.62,4.62,0,0,0-3.63.86,3.84,3.84,0,0,0-1.73,2.33,3.25,3.25,0,0,0,.56,2.64,2.94,2.94,0,0,0,4.16,1l1.18-.57a1.75,1.75,0,0,1,1-.21,1.27,1.27,0,0,1,.8.61c.53.77.26,1.52-.79,2.23a3.43,3.43,0,0,1-2.69.68L132.49,45a5.13,5.13,0,0,0,4.1-1,4.45,4.45,0,0,0,1.86-2.38A3.08,3.08,0,0,0,138,38.91Z"/><path class="cls-5" d="M147.7,33.1l-3.37-6.66-1.87.94L145.8,34a2.12,2.12,0,0,1,.24,1.59,2,2,0,0,1-2.44,1.24,2.25,2.25,0,0,1-1.14-1.14l-3.34-6.6-1.88.95,3.38,6.67a4,4,0,1,0,7.08-3.59Z"/><path class="cls-5" d="M156.45,21.91l-2,.68L156,27l-3.46,1.18L151,23.78l-2,.68,3.69,10.76,2-.69L153.15,30l3.45-1.18,1.54,4.5,2-.68Z"/><path class="cls-5" d="M168.39,25.83a3,3,0,0,0,1.16-1.28,3.27,3.27,0,0,0,.21-2,3.44,3.44,0,0,0-1.38-2.24,3.34,3.34,0,0,0-2.72-.51l-4.16.8,2.17,11.16,2.07-.4-.87-4.45,1.49-.29,2.93,4,2.4-.46Zm-.92-1.77a1.5,1.5,0,0,1-1,.62l-1.95.38L164,22.12l2-.37a1.44,1.44,0,0,1,1.79,1.17A1.43,1.43,0,0,1,167.47,24.06Z"/><path class="cls-5" d="M178.27,18.28l-1.65.1L173.37,30l2.2-.13.53-2,3.82-.22.76,2,2.19-.13Zm-1.69,7.6,1.11-4.21,1.56,4Z"/><path class="cls-5" d="M193.68,21.91a3.78,3.78,0,0,0-.83-2.17,3.73,3.73,0,0,0-2.76-1.3l-3.89-.29-.85,11.33,3.88.3a3.74,3.74,0,0,0,2.92-.87,3.83,3.83,0,0,0,1.16-2.08,21.5,21.5,0,0,0,.28-2.47A18.93,18.93,0,0,0,193.68,21.91Zm-2.19,2.29a18.31,18.31,0,0,1-.22,2,2.24,2.24,0,0,1-.46,1,1.89,1.89,0,0,1-1.63.58l-1.58-.12.55-7.39,1.59.12a1.86,1.86,0,0,1,1.52.82,2.18,2.18,0,0,1,.3,1.05A16.9,16.9,0,0,1,191.49,24.2Z"/><path class="cls-5" d="M205.27,21.73a3.42,3.42,0,0,0-2.21-1.36l-4.24-.91-2.4,11.11,4.41,1a3.42,3.42,0,0,0,2.53-.34A3.16,3.16,0,0,0,204.75,29a2.6,2.6,0,0,0-.91-2.81,2.41,2.41,0,0,0,1-.59,2.79,2.79,0,0,0,.77-1.42A3.12,3.12,0,0,0,205.27,21.73Zm-2.55,6.74a1.5,1.5,0,0,1-.57.91,1.4,1.4,0,0,1-1.11.17l-2.14-.47.59-2.73,2.14.46a1.35,1.35,0,0,1,.94.61A1.38,1.38,0,0,1,202.72,28.47Zm.84-4.62a1.26,1.26,0,0,1-.56.85,1.37,1.37,0,0,1-1.08.13l-2-.43.55-2.56,2,.43a1.46,1.46,0,0,1,.94.57A1.33,1.33,0,0,1,203.56,23.85Z"/><path class="cls-5" d="M216.55,24.45,215,28.82l-3.43-1.26,1.6-4.36-2-.72-3.91,10.67,2,.73,1.63-4.47,3.43,1.25-1.63,4.47,2,.73,3.9-10.68Z"/><path class="cls-5" d="M225.68,28.58l-8.77,8.23,1.94,1,1.51-1.48,3.4,1.79-.38,2.07,2,1,1.81-11.9Zm-1.55,7.65L221.76,35l3.13-3Z"/><path class="cls-5" d="M238.27,36.32l-6,4.85,2.45-7.32-1.8-1.24L229.36,44l1.29.9,9.42-7.31Z"/><path class="cls-5" d="M260.92,62.65l1.61-1.17-4.19-5.74-9.19,6.68,4.18,5.75,1.6-1.16L252,63l2.23-1.62,2.51,3.44,1.6-1.16-2.5-3.45L258,58.6Z"/><path class="cls-5" d="M267.9,70.53l-6.18-.9L266,67.21l-1-1.83-9.92,5.54,1,1.84,3-1.66,2.21.35-3.16,5,1.2,2.14,4.11-6.69,5.69.92Z"/><path class="cls-5" d="M270.55,75.76l-1.83.76,1.08,2.6-8.66,3.62.81,1.94,8.67-3.61,1.08,2.6,1.83-.76Z"/><path class="cls-5" d="M275.67,89.48l-12-.58.62,2.11,2.11.06,1.08,3.68-1.76,1.17.62,2.11,9.81-7Zm-6.58,4.21-.75-2.58,4.36.16Z"/><path class="cls-5" d="M135.51,265.29q-1.48,6-2.88,11.94l-1.76.19q-2.61-5.55-5.32-11.07l2.5-.28q1.65,3.62,3.28,7.24.81-3.88,1.67-7.77Z"/><path class="cls-5" d="M147.53,270.08a14.55,14.55,0,0,1,0,2.63,3.56,3.56,0,0,1-.9,2.07,4.89,4.89,0,0,1-6.54.54,3.72,3.72,0,0,1-1.24-1.89,16.69,16.69,0,0,1-.37-2.6,16,16,0,0,1-.11-2.63,3.71,3.71,0,0,1,.89-2.09,5,5,0,0,1,6.67-.55,3.61,3.61,0,0,1,1.22,1.92A14.39,14.39,0,0,1,147.53,270.08Zm-2.39.18c-.07-.88-.12-1.45-.17-1.68a2.54,2.54,0,0,0-.69-1.52,2,2,0,0,0-1.58-.49,2.07,2.07,0,0,0-1.51.75,2.6,2.6,0,0,0-.41,1.6c0,.2,0,.76.11,1.69s.14,1.5.18,1.69a2.69,2.69,0,0,0,.68,1.51,2,2,0,0,0,1.58.49,2,2,0,0,0,1.59-.92A6.13,6.13,0,0,0,145.14,270.26Z"/><path class="cls-5" d="M159.56,275.15q-3.93.19-7.84.45-.39-5.79-.76-11.57l2.41-.15c.2,3.19.39,6.37.58,9.56,1.84-.12,3.67-.22,5.51-.31C159.49,273.8,159.52,274.48,159.56,275.15Z"/><path class="cls-5" d="M170.68,274.72c-2.61.07-5.23.17-7.84.28q-.26-5.79-.5-11.58l2.42-.1.36,9.56c1.84-.07,3.67-.13,5.51-.17C170.65,273.38,170.66,274.05,170.68,274.72Z"/><path class="cls-5" d="M181.93,274.55c-2.66,0-5.31,0-8,.1-.08-3.87-.15-7.73-.23-11.59q4.08-.09,8.16-.1v2c-1.9,0-3.81,0-5.71,0,0,.91,0,1.81,0,2.72l4.84-.05c0,.67,0,1.35,0,2l-4.82,0c0,.94,0,1.88,0,2.82l5.63-.06C181.93,273.21,181.93,273.88,181.93,274.55Z"/><path class="cls-5" d="M194.1,263.06q-1.93,3.38-3.81,6.78c0,1.58,0,3.16-.07,4.75l-2.34,0c0-1.58,0-3.17,0-4.75q-1.81-3.44-3.67-6.85h2.63c.76,1.57,1.52,3.13,2.26,4.7q1.16-2.32,2.33-4.65Z"/><path class="cls-5" d="M205.59,271.69a3,3,0,0,1-1.13,2.41,4,4,0,0,1-2.72.77c-1.68-.06-3.37-.11-5.06-.15q.15-5.81.31-11.59l5,.15a4.18,4.18,0,0,1,2.77,1,3,3,0,0,1,.91,2.42,2.64,2.64,0,0,1-.58,1.55,2.74,2.74,0,0,1-1,.78A2.61,2.61,0,0,1,205.59,271.69Zm-2.35-5a1.26,1.26,0,0,0-.38-1,1.77,1.77,0,0,0-1.17-.41l-2.35-.08c0,.89-.06,1.78-.08,2.67l2.34.08a1.75,1.75,0,0,0,1.19-.32A1.25,1.25,0,0,0,203.24,266.69Zm0,4.79a1.36,1.36,0,0,0-.37-1,1.65,1.65,0,0,0-1.17-.44l-2.49-.08c0,.95-.06,1.9-.08,2.85l2.47.08a1.59,1.59,0,0,0,1.19-.36A1.36,1.36,0,0,0,203.22,271.48Z"/><path class="cls-5" d="M218.55,275.78l-2.46-.17c-.19-.7-.39-1.4-.58-2.09-1.44-.1-2.88-.18-4.31-.26-.29.67-.57,1.33-.85,2l-2.46-.13q2.49-5.68,5.07-11.34l1.89.11Q216.76,269.85,218.55,275.78ZM215,271.57c-.41-1.43-.82-2.86-1.24-4.3-.6,1.38-1.2,2.75-1.79,4.12Z"/><path class="cls-5" d="M229.23,276.65q-3.91-.36-7.83-.66.43-5.78.89-11.56l2.41.19-.78,9.54,5.49.48Z"/><path class="cls-5" d="M240.31,277.81c-2.6-.3-5.21-.58-7.81-.84q.57-5.78,1.15-11.54l2.41.25c-.34,3.17-.67,6.35-1,9.52q2.74.29,5.49.61Z"/><path class="cls-5" d="M132.12,287.3l-3.08.35q.54,4.75,1.09,9.51l-2.26.26-1.14-9.5-3.08.38c-.08-.67-.17-1.34-.25-2,2.83-.35,5.66-.69,8.5-1C132,286,132,286.64,132.12,287.3Z"/><path class="cls-5" d="M144,290a16,16,0,0,1,.08,2.62,3.7,3.7,0,0,1-.85,2.09,4.57,4.57,0,0,1-6.27.58,3.67,3.67,0,0,1-1.22-1.89,17.81,17.81,0,0,1-.4-2.59,16.67,16.67,0,0,1-.13-2.62,3.65,3.65,0,0,1,.83-2.1,4.36,4.36,0,0,1,3.09-1.57,4.42,4.42,0,0,1,3.31,1,3.67,3.67,0,0,1,1.2,1.91A15.1,15.1,0,0,1,144,290Zm-2.29.2c-.07-.89-.14-1.45-.18-1.69a2.66,2.66,0,0,0-.68-1.5,2.11,2.11,0,0,0-3,.27,2.73,2.73,0,0,0-.38,1.61c0,.2,0,.76.13,1.69s.16,1.49.2,1.68a2.76,2.76,0,0,0,.67,1.51,1.9,1.9,0,0,0,1.53.47,1.88,1.88,0,0,0,1.52-.92A6.56,6.56,0,0,0,141.67,290.16Z"/><path class="cls-5" d="M156.19,290.92a3.85,3.85,0,0,1-1.06,3,4.33,4.33,0,0,1-3,1.33,4.38,4.38,0,0,1-3.13-.91,3.85,3.85,0,0,1-1.45-2.84c-.19-2.53-.39-5.07-.58-7.6l2.32-.17.54,7.52a2.13,2.13,0,0,0,.65,1.52,2,2,0,0,0,1.51.47,2,2,0,0,0,1.44-.67,2.13,2.13,0,0,0,.45-1.6q-.22-3.75-.47-7.52l2.3-.14Z"/><path class="cls-5" d="M169,294.32c-.88,0-1.75.05-2.63.09q-1.22-2.28-2.46-4.53l-1.64.07c.07,1.54.13,3.08.2,4.62l-2.26.11q-.28-5.79-.58-11.58c1.55-.08,3.11-.15,4.66-.21a3.87,3.87,0,0,1,2.88.93,3.35,3.35,0,0,1,1.09,2.47,3.14,3.14,0,0,1-.58,2,3.2,3.2,0,0,1-1.46,1.11C167.2,291,168.12,292.68,169,294.32Zm-3-7.95a1.44,1.44,0,0,0-.51-1.09,1.77,1.77,0,0,0-1.23-.37l-2.18.09c0,1,.09,2,.14,3.05l2.16-.1a1.72,1.72,0,0,0,1.2-.47A1.45,1.45,0,0,0,166,286.37Z"/><path class="cls-5" d="M181.11,294.09l-2,0q-2.34-3.54-4.75-7.05l.15,7.12-2.27.05c-.1-3.87-.19-7.73-.29-11.59l2.08-.05c1.61,2.34,3.21,4.68,4.78,7,0-2.37,0-4.73-.07-7.1l2.32,0C181.07,286.36,181.09,290.23,181.11,294.09Z"/><path class="cls-5" d="M194.1,294.2l-2.37-.05c-.21-.69-.43-1.37-.65-2.06l-4.15,0c-.24.69-.48,1.37-.71,2h-2.37q2.11-5.79,4.33-11.57l1.82,0Q192.1,288.35,194.1,294.2Zm-3.6-4c-.46-1.42-.92-2.83-1.39-4.24-.51,1.4-1,2.8-1.52,4.2Z"/><path class="cls-5" d="M207.36,294.67l-2.27-.11.3-6.75-2.42,4.3-1.54-.06q-1.05-2.24-2.11-4.47l-.21,6.75-2.27-.07q.15-5.79.32-11.58l2.28.06c1,2.13,1.91,4.25,2.85,6.38,1.1-2.05,2.2-4.1,3.32-6.14l2.33.11Q207.64,288.88,207.36,294.67Z"/><path class="cls-5" d="M219,295.4c-2.54-.19-5.09-.36-7.63-.51q.33-5.79.67-11.57c2.61.15,5.22.33,7.83.52l-.15,2-5.48-.38-.18,2.72c1.55.1,3.1.2,4.65.32l-.15,2-4.62-.32-.18,2.81c1.8.12,3.6.24,5.4.38C219.11,294.06,219.05,294.73,219,295.4Z"/><path class="cls-5" d="M231.39,296.49l-2-.2q-2-3.77-4-7.51c-.2,2.36-.41,4.73-.62,7.09l-2.26-.19q.48-5.78.95-11.56l2.07.18q2,3.74,4,7.5c.23-2.36.45-4.71.68-7.07l2.32.23Z"/><path class="cls-5" d="M244,288.3l-3.08-.38-1.14,9.5-2.26-.26q.56-4.76,1.09-9.51l-3.08-.35c.08-.66.15-1.33.22-2,2.84.3,5.67.64,8.5,1C244.19,287,244.1,287.63,244,288.3Z"/><path class="cls-5" d="M39.82,166.87l-6.47.77q1.56-11.62,3.13-23Q38.16,155.84,39.82,166.87Z"/><path class="cls-5" d="M107.78,135.36c0,.54,0,1.08,0,1.62a3.66,3.66,0,0,1,.5.16C108.1,136.5,107.93,136,107.78,135.36Z"/><path class="cls-5" d="M131.41,144.57c0,2.74-.64,4.66-1.87,5.78a6.58,6.58,0,0,1-4.12,1.17l-2,.07-2.2.08,0-4c0-3.11,0-6.22.07-9.34l3.51-.06h.49a7.17,7.17,0,0,1,4.38,1.12,5.07,5.07,0,0,1,1.64,3.41h0A12.59,12.59,0,0,1,131.41,144.57Z"/><path class="cls-5" d="M337.05,152q0,5.57-1.28,7.34c-.87,1.18-2.55,1.63-5,1.38l-3.72-.37q0-8.9-.07-17.8l4.91.23a4.53,4.53,0,0,1,4.19,2.57Q337,147.38,337.05,152Z"/><path class="cls-5" d="M253.21,105.61c-.08,1.42-.25,3.78-.25,4.37,0,0,0,0,0,0h0c0-.21,0-.59.08-1,0-.13,0-.27,0-.42l0-.37v0c0-.12,0-.24,0-.36a.13.13,0,0,0,0-.06c0-.25,0-.51.07-.74a1.1,1.1,0,0,1,0-.18l0-.35v0h0q0-.37,0-.75Zm0,0c-.08,1.42-.25,3.78-.25,4.37,0,0,0,0,0,0h0c0-.21,0-.59.08-1,0-.13,0-.27,0-.42l0-.37v0c0-.12,0-.24,0-.36a.13.13,0,0,0,0-.06c0-.25,0-.51.07-.74a1.1,1.1,0,0,1,0-.18c0-.13,0-.24,0-.35v0h0q0-.37,0-.75Zm0,0c-.08,1.42-.25,3.78-.25,4.37,0,0,0,0,0,0h0c0-.21,0-.59.08-1,0-.13,0-.27,0-.42l0-.37v0c0-.12,0-.24,0-.36a.13.13,0,0,0,0-.06c0-.25,0-.51.07-.74a1.1,1.1,0,0,1,0-.18l0-.35v0h0q0-.37,0-.75Zm0,0c-.08,1.42-.25,3.78-.25,4.37,0,0,0,0,0,0h0c0-.21,0-.59.08-1,0-.13,0-.27,0-.42l0-.37v0c0-.12,0-.24,0-.36a.13.13,0,0,0,0-.06c0-.25,0-.51.07-.74a1.1,1.1,0,0,1,0-.18l0-.35v0h0q0-.37,0-.75Z"/><path class="cls-5" d="M90.68,254.12l-2.2,8.48-1,4-.71,2.72-8.89-1.7-6.7-1.27L53,262.93l-.78-.15c3.73-1.51,13.12-3.63,21.68-5.4,3.27-.68,6.42-1.3,9.09-1.82,3.37-.65,6-1.13,7.1-1.33l.21,0,.38-.07h0Z"/><path class="cls-5" d="M315.93,262.75l-.58.11L298.79,266l-9,1.72-8.42,1.61-.82-3.16-1.24-4.8h0l-2.21-8.54h.07l.27.06c1,.21,3.87.84,7.73,1.7,2.63.6,5.7,1.3,8.88,2.05l2.37.56.1,0h0C304.46,259.19,312.52,261.31,315.93,262.75Z"/></g><text class="cls-6" transform="translate(148.06 330.12)">2<tspan class="cls-7" x="19.5" y="0">0</tspan><tspan class="cls-8" x="36.14" y="0">1</tspan><tspan x="52.05" y="0">8</tspan></text><path class="cls-5" d="M104.72,221.19l-3.25.55-.22-1.26,3.26-.55Z"/><path class="cls-5" d="M107.74,220.69c-1.08.18-2.17.35-3.25.54l-.21-1.27,3.26-.53Z"/><path class="cls-5" d="M110.77,220.22c-1.09.16-2.17.33-3.26.51l-.2-1.26,3.26-.52C110.64,219.37,110.7,219.79,110.77,220.22Z"/><path class="cls-5" d="M113.79,219.76l-3.26.49c-.06-.42-.13-.84-.19-1.26l3.27-.5Z"/><path class="cls-5" d="M130.53,212.4c-.6,1.56-1.2,3.12-1.78,4.67.11,1,.23,2.05.35,3.07l-1.46.17-.36-3.06q-1.4-2.07-2.82-4.14l1.62-.19c.6.94,1.19,1.89,1.78,2.84l1-3.18Z"/><path class="cls-5" d="M141.07,216.32a2.45,2.45,0,0,1-.63,2,3.06,3.06,0,0,1-4,.38,2.47,2.47,0,0,1-1-1.82c-.17-1.64-.33-3.28-.5-4.92l1.49-.15.48,4.87a1.48,1.48,0,0,0,.45,1,1.32,1.32,0,0,0,1,.28,1.27,1.27,0,0,0,.93-.46,1.43,1.43,0,0,0,.26-1l-.45-4.87,1.48-.14Z"/><path class="cls-5" d="M151.28,210.55q-1,3.85-2,7.69l-1.1.09c-1-2.45-2.05-4.88-3.09-7.32l1.55-.12q1,2.38,1.9,4.78.59-2.5,1.18-5Z"/><path class="cls-5" d="M162.14,217.48l-1.54.08-.51-1.31-2.7.14c-.12.45-.25.9-.38,1.36l-1.54.08c.77-2.56,1.55-5.11,2.35-7.67l1.17-.06Q160.58,213.79,162.14,217.48ZM159.63,215c-.36-.89-.71-1.79-1.07-2.69-.28.93-.55,1.86-.82,2.79Z"/><path class="cls-5" d="M172.79,217.12l-1.72,0c-.68-1.12-1.36-2.25-2-3.37l-.94,1.2c0,.75,0,1.5.07,2.26l-1.47.05-.27-7.53,1.49-.05c0,1.09.08,2.19.11,3.28l2.6-3.36,1.82,0L170,212.65Q171.4,214.89,172.79,217.12Z"/><path class="cls-5" d="M190.27,217h-1.48c0-1.47,0-2.93.05-4.39-.5.94-1,1.89-1.48,2.84h-1l-1.45-2.86c0,1.47,0,2.93,0,4.39h-1.48q0-3.77,0-7.53h1.47q1,2,2,4.08,1-2,2-4h1.5C190.34,212,190.3,214.52,190.27,217Z"/><path class="cls-5" d="M201.48,217.32l-1.54-.06c-.13-.45-.27-.9-.4-1.34l-2.7-.09c-.16.44-.32.88-.49,1.32l-1.54,0q1.47-3.74,3-7.46l1.17,0Q200.24,213.5,201.48,217.32Zm-2.3-2.65-.84-2.77-1.05,2.71Z"/><path class="cls-5" d="M211.8,217.81l-1.31-.07q-1.37-2.4-2.76-4.78c-.08,1.54-.16,3.08-.23,4.62l-1.48-.07c.12-2.51.23-5,.35-7.53l1.34.07c.94,1.58,1.86,3.17,2.78,4.76.09-1.53.17-3.07.26-4.6l1.49.08Q212,214.06,211.8,217.81Z"/><path class="cls-5" d="M223,214.79a13,13,0,0,1-.19,1.64,2.52,2.52,0,0,1-.82,1.36,2.74,2.74,0,0,1-2.05.57l-2.72-.2c.17-2.51.35-5,.52-7.52l2.77.21a2.74,2.74,0,0,1,2,.87,2.48,2.48,0,0,1,.59,1.45A12.44,12.44,0,0,1,223,214.79Zm-1.48-.12a11.32,11.32,0,0,0,.05-1.28,1.41,1.41,0,0,0-.22-.7,1.37,1.37,0,0,0-1.08-.55l-1.13-.08c-.12,1.63-.24,3.26-.35,4.89l1.11.09a1.38,1.38,0,0,0,1.14-.38,1.31,1.31,0,0,0,.32-.69A10.18,10.18,0,0,0,221.47,214.67Z"/><path class="cls-5" d="M233.57,219.59l-1.54-.16c-.1-.45-.2-.91-.31-1.37L229,217.8c-.2.43-.39.86-.58,1.28l-1.54-.14q1.71-3.63,3.47-7.24l1.17.12Q232.58,215.71,233.57,219.59Zm-2.12-2.8c-.21-.94-.43-1.88-.65-2.82l-1.23,2.64Z"/><path class="cls-5" d="M243,220.67c-1.62-.2-3.25-.4-4.88-.58.29-2.5.57-5,.86-7.48l1.49.17q-.36,3.09-.73,6.18l3.42.41Z"/><path class="cls-5" d="M257.13,220.25l-3.25-.49.18-1.27,3.27.5C257.26,219.41,257.2,219.83,257.13,220.25Z"/><path class="cls-5" d="M260.16,220.73c-1.09-.18-2.17-.35-3.26-.51.07-.43.13-.85.2-1.27l3.26.52Z"/><path class="cls-5" d="M263.18,221.23l-3.25-.54c.06-.42.13-.84.2-1.26l3.26.53Z"/><path class="cls-5" d="M266.2,221.74l-3.25-.55.21-1.26,3.26.55C266.34,220.9,266.27,221.32,266.2,221.74Z"/><path class="cls-5" d="M120,241.5c-2.62.29-5.25.6-7.87.94l-1.5-11.84q4-.51,8-1c.08.69.15,1.38.23,2.06q-2.82.31-5.63.66c.11.93.22,1.86.34,2.78l4.77-.56.24,2.06c-1.59.18-3.18.37-4.76.57.11.95.23,1.91.35,2.87l5.56-.65C119.88,240.12,120,240.81,120,241.5Z"/><path class="cls-5" d="M136.91,233.82a19,19,0,0,1,.11,2.61,4,4,0,0,1-.93,2.35,4.34,4.34,0,0,1-3.06,1.41l-4.33.4q-.57-5.94-1.15-11.88l4.41-.41a4.44,4.44,0,0,1,3.33.86,3.91,3.91,0,0,1,1.31,2.11A18.66,18.66,0,0,1,136.91,233.82Zm-2.36.2a16,16,0,0,0-.26-2,2.13,2.13,0,0,0-.52-1,2.17,2.17,0,0,0-1.84-.58l-1.8.17.72,7.74,1.77-.16a2.17,2.17,0,0,0,1.69-.89,2.1,2.1,0,0,0,.33-1.16A18.08,18.08,0,0,0,134.55,234Z"/><path class="cls-5" d="M148.53,239l-2.34.15-.78-11.91,2.39-.15Q148.16,233.07,148.53,239Z"/><path class="cls-5" d="M165.4,234.7a3.2,3.2,0,0,1-1.17,2.7,5.19,5.19,0,0,1-3.17,1.08,6,6,0,0,1-4.46-1.38l1.46-1.58a4,4,0,0,0,2.95.88c1.43-.05,2.12-.57,2.08-1.55a1.26,1.26,0,0,0-.39-1,2,2,0,0,0-1.1-.38l-1.47-.14c-2.16-.21-3.28-1.26-3.38-3.19a3.33,3.33,0,0,1,1-2.68,4.57,4.57,0,0,1,3.08-1.12,5.47,5.47,0,0,1,4,1.24l-1.46,1.51a3.5,3.5,0,0,0-2.53-.73,2.06,2.06,0,0,0-1.38.49A1.35,1.35,0,0,0,159,230a1.15,1.15,0,0,0,.42.85,2,2,0,0,0,1.13.41l1.44.15a4.19,4.19,0,0,1,2.35.83A3.33,3.33,0,0,1,165.4,234.7Z"/><path class="cls-5" d="M182.57,232a15.36,15.36,0,0,1-.14,2.7,3.77,3.77,0,0,1-1.05,2.06,4.41,4.41,0,0,1-3.23,1.33,4.46,4.46,0,0,1-3.28-1.26,3.82,3.82,0,0,1-1.08-2,26.12,26.12,0,0,1-.1-5.4,3.84,3.84,0,0,1,1-2.08,4.6,4.6,0,0,1,3.31-1.35,4.56,4.56,0,0,1,3.31,1.28,3.71,3.71,0,0,1,1.07,2.06A15,15,0,0,1,182.57,232Zm-2.37,0c0-.92,0-1.5,0-1.74a2.79,2.79,0,0,0-.58-1.61,2,2,0,0,0-1.53-.62,2,2,0,0,0-1.54.65,2.84,2.84,0,0,0-.53,1.62c0,.2,0,.78,0,1.74s0,1.54.06,1.75a2.83,2.83,0,0,0,.57,1.6,2,2,0,0,0,1.53.62,2,2,0,0,0,1.64-.82A6.71,6.71,0,0,0,180.2,232Z"/><path class="cls-5" d="M200.59,238.17l-2.09-.06q-2.3-3.72-4.63-7.42-.08,3.66-.13,7.32l-2.35,0q.09-6,.16-11.94l2.14,0q2.37,3.69,4.67,7.4c.06-2.43.12-4.87.19-7.3l2.39.06Q200.76,232.21,200.59,238.17Z"/><path class="cls-5" d="M211.91,239.54l-2.49,1.73c.08-1.72.16-3.43.23-5.14l2.42.11C212,237.34,212,238.44,211.91,239.54Z"/><path class="cls-5" d="M240.38,240.73l-2.09-.21c-1.34-2.58-2.71-5.15-4.1-7.73q-.33,3.66-.64,7.3l-2.34-.2,1-11.89,2.13.18c1.4,2.57,2.79,5.14,4.15,7.72l.69-7.28,2.39.23Q241,234.79,240.38,240.73Z"/><path class="cls-5" d="M256,238.54a3.75,3.75,0,0,1-1.65,2.82,4.4,4.4,0,0,1-3.06.66,4.29,4.29,0,0,1-2.94-1.57l1.73-1.34a2.12,2.12,0,0,0,1.45.85c1.26.15,2-.45,2.14-1.81l1-7.85,2.38.3C256.67,233.25,256.34,235.9,256,238.54Z"/></g></g></svg>