<svg xmlns="http://www.w3.org/2000/svg" viewBox="0 0 364.77 357.07"><defs><style>.cls-1{font-size:35.63px;font-family:DINBold, DIN;}.cls-1,.cls-8{fill:#fff;}.cls-2{letter-spacing:-0.08em;}.cls-3{letter-spacing:-0.1em;}.cls-4{letter-spacing:0em;}.cls-5{fill:#00346a;}.cls-6{fill:#eea819;}.cls-7{fill:#003764;}</style></defs><title>Dark BG Amrut Cup</title><g id="Layer_2" data-name="Layer 2"><g id="Dark_Color_T-shirts" data-name="Dark Color T-shirts"><text class="cls-1" transform="translate(146.88 327.47)">2<tspan class="cls-2" x="19.35" y="0">0</tspan><tspan class="cls-3" x="35.85" y="0">1</tspan><tspan class="cls-4" x="51.63" y="0">8</tspan></text><g id="Pantone_7409C" data-name="Pantone 7409C"><path class="cls-5" d="M104.37,134.15c.06.31.14.62.21.93,0-.31,0-.62,0-.93Z"/><path class="cls-6" d="M291.15,254.56l2.58.62.47.12.38.09c9.15,2.4,15.33,4.46,18.12,5.44l2-.4-13.95-46c-3.25-.85-6.48-1.68-9.7-2.45q-3.49-.84-7-1.6a441.27,441.27,0,0,0-44.38-7.52q-6.11-.72-12.09-1.26h0q-7.95-.74-15.66-1.17c-1.36-.09-2.72-.16-4.07-.22h0q-6.85-.33-13.49-.47c-2.87-.07-5.71-.1-8.51-.11a0,0,0,0,0,0,0h0q-3.6,0-7.11,0h-.17c-7.77.08-15.27.34-22.46.74h0l-2.85.16h-.06l-4.55.31q-5.92.42-11.54.94h0q-6.3.6-12.16,1.29h0c-7.27.87-14,1.83-20.18,2.84l-.83.13c-6.24,1-11.87,2.07-16.8,3.07-5.42,1.1-10,2.15-13.68,3-4.78,1.16-8,2.05-9.38,2.46l-13.9,45.8,2.13.42c7.19-2,14.3-3.74,21.3-5.32,0,0,0,0,0,0q4.34-1,8.61-1.9c2.35-.5,4.67-1,7-1.43l.4-.08.17,0h.1c2-.4,4.1-.79,6.13-1.15l2.47-.45h0l.62-.11c11.83-2.1,23.32-3.71,34.42-4.91,6.12-.67,12.12-1.2,18-1.63l.37,0c13.63-1,26.59-1.35,38.81-1.26l3,0q12.12.18,23.22.89c8,.5,15.66,1.18,22.82,2q4,.45,7.84,1c6.36.82,12.32,1.75,17.85,2.72l.62.11.81.15c2.62.45,5.14.94,7.56,1.41l.24.05h.09l.51.11.58.12,6.77,1.5C285.12,253.16,288.08,253.84,291.15,254.56Z"/><path class="cls-6" d="M47.51,262l9.6-31.66c-1.8.35-3.64.73-5.59,1.17-1.56.36-3.18.74-4.85,1.17h0c-3.88,1-8,2.13-12.49,3.49l-1.51.47-.45.14-.56,1.65-1.35,4-1,3.07-1.78,5.2-9.62,28.25s1.93-.55,5.22-1.41c8.44-2.19,25.79-6.38,42.13-8.35L66,269c4-.47,7.92-.81,11.62-.94l.65,0Z"/><path class="cls-6" d="M332.52,236.75l-1.49-.46c-4.68-1.45-9-2.66-13.09-3.67-1.45-.37-2.86-.71-4.23-1-2.12-.48-4.12-.9-6-1.27l9.6,31.65-30.86,6.12c11.55.32,25.31,2.64,36.79,5.05l1.26.27c12.78,2.72,22.43,5.47,22.43,5.47Z"/><path class="cls-6" d="M189.39,41.28c-2.06-.19-3.92-.36-5.88-.36a35.26,35.26,0,0,0-7.91.93c-8.69,2-16.89,6.92-25.79,15.58a83.76,83.76,0,0,0-20.39,30.29l0,.14.13,1a66.36,66.36,0,0,0,14.63,13.72l1.55-.48c2.64-6.72,7.39-16.54,11.32-22.3l0,0c14.76-23.4,33.7-31.09,47-33.41l.15-2A66.3,66.3,0,0,0,189.39,41.28Z"/><path class="cls-6" d="M144.1,111.83a58.3,58.3,0,0,1-11-7.87,66.22,66.22,0,0,1-14.25-18.3l-1.87.13A100.78,100.78,0,0,0,112.11,104a59.73,59.73,0,0,0-.89,7.73l0,.11,0,.06h33Z"/><path class="cls-6" d="M138.74,56.17a73,73,0,0,0-15.4,16.56c-.42.62-1.15,1.83-1.69,2.74l0,1c.67,1.19,1.35,2.4,2,3.61l1.82-.07A97.4,97.4,0,0,1,140.14,57.7Z"/><path class="cls-6" d="M220,52.22l-.58-.15c-2.47.11-8.63.43-12.4.93a55.69,55.69,0,0,0-30.26,13.9,87.2,87.2,0,0,0-22,31.15c-.83,1.91-1.56,3.85-2.31,5.88-.16.47-.33.93-.5,1.41l-.21.56.61,1.35a58.6,58.6,0,0,0,20.37,3.87,44.94,44.94,0,0,0,6.87-.51l.82-.7.29-.85a46.38,46.38,0,0,1,2.08-5.14,45.37,45.37,0,0,1,5.82-9.38c10.78-13.37,25.26-21,43.05-22.52,1.51-.14,3.1-.2,5-.2h1.92l.82-1.7C232.54,61.6,223.39,54.25,220,52.22Z"/><path class="cls-6" d="M253.58,102.7A74.47,74.47,0,0,0,247.27,82c-.32-.67-1-1.92-1.5-2.85l-.89-.54c-1.33,0-2.74,0-4.1,0l-.85,1.64a98,98,0,0,1,11.33,22.66c.16.45.31.91.46,1.36l1-.23,1-.23C253.69,103.42,253.64,103.06,253.58,102.7Z"/><path class="cls-6" d="M244.54,104.07a81.48,81.48,0,0,0-13.12-24.24l-.11-.12-.94-.39a64.76,64.76,0,0,0-19,6L211,86.9a145.23,145.23,0,0,1,11.33,17c.79,1.43,1.5,2.78,2.09,4l0,0c.66,1.28,1.28,2.56,1.85,3.84,0,0,0,0,0,.05h20.58Q245.84,107.85,244.54,104.07Z"/><path class="cls-6" d="M218.85,111.78c-1.27-2.64-2.68-5.27-4.25-7.84q-2.16-3.57-4.68-7c-1.51-2.06-3.12-4-4.83-6.1l-.38-.47-1.46-.13a61.49,61.49,0,0,0-12.14,13.72,46.92,46.92,0,0,0-4.08,7.84.42.42,0,0,0-.06.14H218.9A.61.61,0,0,0,218.85,111.78Z"/></g><g id="White"><path class="cls-7" d="M103.89,219.41l-3.23.55c-.07-.41-.14-.83-.22-1.25l3.24-.55Z"/><path class="cls-7" d="M106.89,218.92l-3.23.53-.21-1.25,3.23-.53Z"/><path class="cls-7" d="M109.89,218.45c-1.08.16-2.16.33-3.23.51l-.21-1.26,3.24-.51C109.76,217.61,109.82,218,109.89,218.45Z"/><path class="cls-7" d="M112.89,218l-3.24.49c-.06-.42-.13-.83-.19-1.25l3.24-.49Z"/><path class="cls-7" d="M129.49,210.7c-.59,1.54-1.19,3.09-1.77,4.63.12,1,.24,2,.35,3l-1.44.17-.36-3.05-2.8-4.1,1.61-.19c.59.94,1.18,1.88,1.76,2.82.35-1.05.69-2.1,1-3.15Z"/><path class="cls-7" d="M139.94,214.58a2.46,2.46,0,0,1-.62,2,2.75,2.75,0,0,1-1.9.91,2.79,2.79,0,0,1-2-.53,2.47,2.47,0,0,1-1-1.81c-.16-1.63-.33-3.25-.49-4.88l1.48-.15c.16,1.61.31,3.22.47,4.83a1.37,1.37,0,0,0,.45,1,1.28,1.28,0,0,0,1,.28,1.27,1.27,0,0,0,.92-.46,1.38,1.38,0,0,0,.26-1l-.45-4.84,1.47-.14C139.65,211.32,139.8,213,139.94,214.58Z"/><path class="cls-7" d="M150.07,208.86q-1,3.82-2,7.63l-1.09.08q-1.51-3.63-3.07-7.25l1.54-.12q.94,2.37,1.88,4.74l1.17-5Z"/><path class="cls-7" d="M160.84,215.74l-1.52.07-.51-1.3-2.67.14c-.13.45-.26.9-.38,1.35l-1.53.09q1.14-3.81,2.33-7.62l1.16-.06Q159.31,212.07,160.84,215.74Zm-2.48-2.43-1.07-2.67-.81,2.76Z"/><path class="cls-7" d="M171.41,215.38l-1.7,0c-.68-1.12-1.35-2.23-2-3.34l-.93,1.18c0,.75,0,1.5.07,2.24l-1.46.05-.27-7.46,1.48-.05c0,1.08.08,2.17.11,3.25q1.28-1.66,2.58-3.33l1.81-.05c-.82,1-1.63,2-2.44,3Q170,213.15,171.41,215.38Z"/><path class="cls-7" d="M188.75,215.29l-1.46,0c0-1.45,0-2.9,0-4.35l-1.47,2.82h-1l-1.44-2.83c0,1.45,0,2.9,0,4.35H182q0-3.74,0-7.47h1.46q1,2,2,4.05,1-2,2-4l1.49,0C188.82,210.31,188.78,212.8,188.75,215.29Z"/><path class="cls-7" d="M199.87,215.57l-1.53,0c-.13-.45-.26-.89-.4-1.34l-2.67-.08c-.16.44-.32.87-.49,1.31l-1.52,0c1-2.46,1.94-4.93,2.94-7.39l1.17,0C198.21,210.53,199.05,213.05,199.87,215.57Zm-2.28-2.63c-.27-.91-.55-1.83-.84-2.74-.34.89-.69,1.79-1,2.69Z"/><path class="cls-7" d="M210.11,216.06l-1.3-.07q-1.37-2.37-2.74-4.74c-.08,1.53-.16,3.06-.23,4.58l-1.46-.07c.11-2.49.23-5,.34-7.46l1.33.06q1.39,2.35,2.76,4.73c.08-1.52.17-3.05.25-4.57l1.49.09C210.4,211.09,210.26,213.58,210.11,216.06Z"/><path class="cls-7" d="M221.17,213.06a12.46,12.46,0,0,1-.19,1.63,2.55,2.55,0,0,1-.81,1.36,2.73,2.73,0,0,1-2,.55l-2.7-.19c.18-2.49.35-5,.52-7.46l2.75.2a2.79,2.79,0,0,1,2,.87,2.45,2.45,0,0,1,.59,1.44A12.17,12.17,0,0,1,221.17,213.06ZM219.7,213a11.23,11.23,0,0,0,.05-1.27,1.26,1.26,0,0,0-.22-.69,1.36,1.36,0,0,0-1.07-.55l-1.12-.08c-.11,1.62-.23,3.23-.35,4.85l1.1.09a1.38,1.38,0,0,0,1.14-.38,1.49,1.49,0,0,0,.32-.68Q219.63,213.85,219.7,213Z"/><path class="cls-7" d="M231.7,217.83l-1.52-.16c-.1-.45-.21-.9-.31-1.36l-2.66-.26c-.19.43-.39.85-.58,1.27l-1.52-.14c1.13-2.39,2.28-4.79,3.44-7.18l1.16.12Q230.73,214,231.7,217.83Zm-2.1-2.78c-.21-.93-.43-1.86-.65-2.79-.41.87-.81,1.74-1.21,2.61Z"/><path class="cls-7" d="M241,218.9l-4.84-.58c.28-2.47.57-4.95.85-7.42l1.48.17-.72,6.13,3.39.41C241.14,218,241.08,218.47,241,218.9Z"/><path class="cls-7" d="M255.08,218.48l-3.23-.49.18-1.25,3.24.49C255.21,217.65,255.14,218.06,255.08,218.48Z"/><path class="cls-7" d="M258.08,219l-3.23-.51c.06-.42.13-.84.19-1.26l3.24.51C258.21,218.12,258.15,218.54,258.08,219Z"/><path class="cls-7" d="M261.08,219.45l-3.23-.53c.06-.42.13-.84.2-1.25l3.24.53Z"/><path class="cls-7" d="M264.07,220l-3.23-.55.21-1.25,3.24.55C264.22,219.13,264.14,219.55,264.07,220Z"/><path class="cls-7" d="M119.07,239.56q-3.9.44-7.8.93-.75-5.88-1.49-11.74,4-.51,8-1c.08.69.16,1.37.23,2.05l-5.59.66.34,2.75,4.74-.55c.08.68.15,1.36.23,2l-4.72.56c.12.95.23,1.9.35,2.86,1.84-.23,3.68-.44,5.51-.65C118.92,238.19,119,238.87,119.07,239.56Z"/><path class="cls-7" d="M135.82,231.94a20.54,20.54,0,0,1,.11,2.59,4,4,0,0,1-.92,2.33,4.31,4.31,0,0,1-3,1.4l-4.29.4-1.14-11.78c1.45-.15,2.91-.28,4.37-.41a4.36,4.36,0,0,1,3.3.85,3.84,3.84,0,0,1,1.3,2.09A18.68,18.68,0,0,1,135.82,231.94Zm-2.34.2a17.65,17.65,0,0,0-.26-2,2.05,2.05,0,0,0-.52-1,2.12,2.12,0,0,0-1.82-.58l-1.79.16.72,7.69,1.75-.16a2.16,2.16,0,0,0,1.68-.89,2.2,2.2,0,0,0,.33-1.14A17.85,17.85,0,0,0,133.48,232.14Z"/><path class="cls-7" d="M147.35,237.1c-.78.05-1.55.09-2.32.15l-.78-11.82,2.37-.15Q147,231.19,147.35,237.1Z"/><path class="cls-7" d="M164.08,232.82a3.12,3.12,0,0,1-1.17,2.67,5.13,5.13,0,0,1-3.13,1.08,5.91,5.91,0,0,1-4.42-1.38q.7-.78,1.44-1.56a4,4,0,0,0,2.93.87c1.41-.05,2.1-.56,2.06-1.54a1.22,1.22,0,0,0-.39-1,2,2,0,0,0-1.09-.39l-1.46-.14q-3.21-.3-3.35-3.16a3.26,3.26,0,0,1,1-2.65,4.51,4.51,0,0,1,3-1.12,5.44,5.44,0,0,1,4,1.24c-.49.49-1,1-1.45,1.49a3.52,3.52,0,0,0-2.52-.72,2,2,0,0,0-1.37.48,1.4,1.4,0,0,0-.44,1.09,1.15,1.15,0,0,0,.42.85,2,2,0,0,0,1.11.4l1.43.15a4.12,4.12,0,0,1,2.34.83A3.26,3.26,0,0,1,164.08,232.82Z"/><path class="cls-7" d="M181.12,230.1a16,16,0,0,1-.15,2.68,3.64,3.64,0,0,1-1,2,4.69,4.69,0,0,1-6.45.07,3.79,3.79,0,0,1-1.08-2,16.9,16.9,0,0,1-.18-2.67,16.62,16.62,0,0,1,.09-2.68,3.67,3.67,0,0,1,1-2.06,4.49,4.49,0,0,1,3.28-1.34,4.44,4.44,0,0,1,3.28,1.27,3.68,3.68,0,0,1,1.07,2A16.74,16.74,0,0,1,181.12,230.1Zm-2.36,0c0-.91,0-1.49,0-1.73a2.66,2.66,0,0,0-.57-1.59,1.94,1.94,0,0,0-1.52-.62,2,2,0,0,0-1.53.65,2.77,2.77,0,0,0-.52,1.6c0,.2,0,.78,0,1.73s0,1.53.06,1.73a2.73,2.73,0,0,0,.56,1.59,1.94,1.94,0,0,0,1.52.61,1.89,1.89,0,0,0,1.62-.81A6.58,6.58,0,0,0,178.76,230.11Z"/><path class="cls-7" d="M199,236.26l-2.08-.06q-2.26-3.69-4.59-7.36c0,2.42-.09,4.84-.13,7.26l-2.32,0,.15-11.84,2.12,0q2.36,3.66,4.64,7.35l.18-7.25,2.37.07Q199.17,230.34,199,236.26Z"/><path class="cls-7" d="M210.22,237.62c-.83.56-1.65,1.14-2.47,1.71.07-1.7.15-3.4.23-5.1l2.4.11C210.32,235.43,210.27,236.52,210.22,237.62Z"/><path class="cls-7" d="M238.46,238.8l-2.07-.21q-2-3.84-4.07-7.66-.33,3.62-.64,7.23l-2.32-.19q.49-5.91,1-11.8l2.12.18q2.08,3.83,4.11,7.65l.69-7.21,2.37.23Z"/><path class="cls-7" d="M254,236.63a3.75,3.75,0,0,1-1.64,2.79,4.41,4.41,0,0,1-3,.66,4.26,4.26,0,0,1-2.91-1.56l1.71-1.33a2.13,2.13,0,0,0,1.44.84c1.25.15,1.95-.45,2.12-1.79.32-2.6.63-5.19,1-7.79l2.36.3Z"/><path class="cls-8" d="M259,105h6.14C263.34,104.51,260.94,104.91,259,105Z"/><path class="cls-8" d="M363.64,166.55a96.85,96.85,0,0,0,1.13-16.79c0-8.13-.63-14.56-1.91-19.65-3.95-15.56-15.57-26-31.05-26-4.48,0-9-.06-13.42-.06h-.2l-6.25,0L295.07,104H292s0-.09,0-.14A109.69,109.69,0,0,0,182.45,0c-2,0-4,.05-6,.16a109.89,109.89,0,0,0-103.68,104c-5.19,0-10.36,0-15.55,0H44.3c-5.52,0-25.22,0-25.22,0H11.69l-2,17c-2.24,18-4.56,37.13-6.85,56.77L0,180.55v33.89l9.81,3.1h0l28.36,10c-2.27.63-4.57,1.32-6.92,2l-3.78,1.16L7,289.63l14.36-4c.37-.1,36.75-10.19,60.31-10.29a156.56,156.56,0,0,0,56.24,62.93c22.79,14.47,42,18.33,42.76,18.49l1.68.33,1.68-.33c.8-.16,20-4,42.76-18.49a156.56,156.56,0,0,0,56.24-62.93h.08c23.51,0,60.3,10.19,60.66,10.29l13.9,3.57-20.43-59.39c-4.24-1.31-8.51-2.49-12.72-3.52l21.86-13.82-.07-21.69C353,187.85,360.94,181.31,363.64,166.55ZM176.83,7.16c1.86-.1,3.75-.15,5.62-.15,54.44,0,99.44,42.84,102.5,97.22h-.89l-18.88.73H105.56l-9,0c-.72,0-1.44,0-2.15,0l-8.81,0-5.87-.45A102.88,102.88,0,0,1,176.83,7.16ZM77.64,268.09c-3.7.13-7.63.47-11.62.94l-.81.09c-16.34,2-33.69,6.16-42.13,8.35-2.76.72-4.56,1.22-5.07,1.36l-.15.05,9.62-28.25,1.78-5.2,1-3.07,1.35-4,.56-1.65.45-.14,1.51-.47c4.46-1.36,8.61-2.52,12.49-3.49h0c1.67-.43,3.29-.81,4.85-1.17,1.94-.44,3.79-.82,5.59-1.16h0L47.5,262l17.88,3.54,12.91,2.56Zm195,7.53C240,336,182.44,347.26,182.44,347.26s-57.39-11.21-90.12-71.45h.16L97,258.74l1.52-.29,3.83-.68a503.48,503.48,0,0,1,84.94-7.32,453.19,453.19,0,0,1,77,6.42l2.09.37,1.54.45,4.74,17.92Zm6.73-8.57-.89-3.41-.18-.69h0l-1.23-4.75L275.22,251l-.3-.07-.21,0h-.09l-.24-.05c-2.42-.47-4.94-1-7.56-1.41l-.81-.15-.62-.11c-5.53-1-11.49-1.9-17.85-2.72q-3.82-.51-7.84-1c-7.16-.81-14.78-1.49-22.82-2l-1.45-.09-1.46-.09-.93,0c-1.82-.1-3.65-.18-5.51-.27l-3.31-.12-4.36-.14c-2.05-.06-4.11-.1-6.2-.13l-3,0c-1.95,0-3.92,0-5.9,0-.78,0-1.56,0-2.35,0l-2.52,0-2.53,0-2.56.06c-2.56.06-5.15.14-7.77.26s-5.26.24-7.94.39a512.63,512.63,0,0,0-59.85,7v0l-.19,0-.62.11h0l-2.47.45c-2,.36-4.08.75-6.13,1.15h-.1l-.17,0-.12,0-1.92,7.39-.28,1.07-.76,2.94,0,.19-.9,3.48-8.11-1.54h0l-7.07-1.34-2.41-.46-15.72-3-2.13-.4,0,0h0l11.6-38.23,2.3-7.57c1.41-.41,4.6-1.31,9.38-2.47,3.66-.9,8.26-1.95,13.68-3,4.93-1,10.56-2.05,16.8-3.07l.83-.13c6.16-1,12.91-2,20.18-2.84h0q5.86-.69,12.16-1.29h0q5.61-.53,11.54-.94l4.55-.31h.06l2.85-.16h0c7.19-.4,14.69-.66,22.46-.74h.17q3.51,0,7.11,0h0a0,0,0,0,1,0,0c2.8,0,5.64,0,8.51.11q6.63.14,13.49.47h0c1.35.06,2.71.13,4.07.22q7.71.44,15.66,1.17h0q6,.54,12.09,1.26a441.27,441.27,0,0,1,44.38,7.52q3.46.76,7,1.6,4.83,1.17,9.69,2.46l13.87,45.72a.94.94,0,0,1,.22.15l-.16,0,0,.11-2,.39-.22-.08-13.88,2.64L287,265.59ZM331,236.29l1.49.46,14.36,42.13s-9.65-2.75-22.43-5.47l-1.26-.27c-11.48-2.41-25.25-4.73-36.79-5.05L317.26,262l-9.6-31.65c1.93.38,3.93.79,6,1.27,1.37.32,2.78.66,4.23,1C322,233.63,326.35,234.84,331,236.29Zm6.48-50.94.08,23.83-25.51,14.35-.12.07,0-.1-1.11-4.29-2.57-9.87-4.41-1.17a446.49,446.49,0,0,0-55.34-10.92h0c-3.45-.46-6.91-.89-10.38-1.27h0c-13.77-1.53-27.76-2.47-41.89-2.81h0c-4.05-.1-8.13-.15-12.21-.15q-7.69,0-15,.22h0c-15.35.45-29.49,1.54-42.11,2.95-3.6.4-7.07.83-10.41,1.27-32.8,4.35-53.13,10.39-54.44,10.78l-4.1,1.24-4,14.18v0l-.05,0L8.91,209l-.09,0v-24l2.3-2.17a17.77,17.77,0,0,0,.5-2.78c2.22-19.42,4.53-39.07,6.88-58.37l1.06-8.69,25.14-.12h2l6.65,0h3.07l16.25,0h1.65l5.37,0,5.54,0h3.85l5.36,0v0H285.05l7,0h2.67l6.92,0,9.91,0c2.14,0,4.29,0,6.43,0l13.36.06c11.55,0,19.91,6.94,22.9,19,1.11,4.49,1.66,10.37,1.66,18a92.27,92.27,0,0,1-1,15.6C352.22,180.51,343.36,184.45,337.51,185.35Z"/><path class="cls-8" d="M99.78,92.2a3.08,3.08,0,0,0-2.15-1.71,3.26,3.26,0,0,0-2.52.21,3.65,3.65,0,0,0-1.35,1.77l-.5,1.17a1.72,1.72,0,0,1-.66.83,1.08,1.08,0,0,1-.88.13,1.34,1.34,0,0,1-.88-.67,1.73,1.73,0,0,1-.09-1.29,3,3,0,0,1,1.3-1.93l-1-1.63a4.66,4.66,0,0,0-2.13,3A3.76,3.76,0,0,0,89.15,95a3.27,3.27,0,0,0,2.15,1.59,2.91,2.91,0,0,0,3.76-2l.5-1.21a1.75,1.75,0,0,1,.63-.83,1.3,1.3,0,0,1,1-.07c.9.23,1.2,1,.88,2.18a3.39,3.39,0,0,1-1.56,2.27l1,1.67A5.12,5.12,0,0,0,100,95.19,4.38,4.38,0,0,0,99.78,92.2Z"/><path class="cls-8" d="M104,82.65l.78-2-11.93-.37-.59,1.53,9.15,7.66.78-2-1.63-1.31,1.35-3.55Zm-5,2.22-3.35-2.73,4.3.24Z"/><path class="cls-8" d="M110.4,69.85l-9.92-5.38-1,1.84,4,5.34-6.69-.46-1,1.81,9.92,5.37,1-1.83L101,73.4l4.74.23.68-1.24-2.79-3.84,5.78,3.14Z"/><path class="cls-8" d="M110.22,62.63,111.43,61a3.45,3.45,0,0,0,.69-2.72A3.5,3.5,0,0,0,110.67,56a3.38,3.38,0,0,0-4.92.79l-2.45,3.35,9.12,6.64,1.23-1.69Zm-.45-2.75-1.15,1.58-2.5-1.82,1.15-1.58a1.59,1.59,0,0,1,2.82.66A1.52,1.52,0,0,1,109.77,59.88Z"/><path class="cls-8" d="M136.86,38.6a3.27,3.27,0,0,0-2-1.52,3.63,3.63,0,0,0-2.18.43l-1.15.55a1.66,1.66,0,0,1-1.05.19,1.1,1.1,0,0,1-.74-.49,1.36,1.36,0,0,1-.22-1.08,1.74,1.74,0,0,1,.79-1,3,3,0,0,1,2.25-.59l.32-1.88a4.6,4.6,0,0,0-3.6.86,3.83,3.83,0,0,0-1.72,2.3,3.24,3.24,0,0,0,.56,2.62,2.91,2.91,0,0,0,4.12,1l1.18-.57a1.7,1.7,0,0,1,1-.21,1.31,1.31,0,0,1,.79.61c.52.76.26,1.5-.78,2.21a3.38,3.38,0,0,1-2.67.67l-.32,1.94a5.09,5.09,0,0,0,4.07-1,4.37,4.37,0,0,0,1.84-2.36A3,3,0,0,0,136.86,38.6Z"/><path class="cls-8" d="M146.54,32.83l-3.35-6.62-1.85.94,3.31,6.54a2.22,2.22,0,0,1,.24,1.59,1.74,1.74,0,0,1-1,1.11,1.73,1.73,0,0,1-1.46.12,2.24,2.24,0,0,1-1.13-1.14L138,28.83l-1.87.94,3.35,6.62a4,4,0,0,0,7.32-.5A3.82,3.82,0,0,0,146.54,32.83Z"/><path class="cls-8" d="M155.2,21.74l-2,.67,1.49,4.36L151.29,28l-1.49-4.36-2,.67,3.65,10.67,2-.67-1.53-4.47,3.43-1.17,1.53,4.46,2-.67Z"/><path class="cls-8" d="M167,25.63a3,3,0,0,0,1.15-1.27,3.24,3.24,0,0,0,.21-2A3.36,3.36,0,0,0,167,20.13a3.29,3.29,0,0,0-2.7-.51l-4.12.8,2.15,11.07,2-.4-.85-4.42,1.47-.28,2.91,4,2.38-.47Zm-.9-1.76a1.55,1.55,0,0,1-1,.61l-1.94.38L162.64,22l1.93-.38a1.52,1.52,0,0,1,1.16.2,1.41,1.41,0,0,1,.62,1A1.46,1.46,0,0,1,166.14,23.87Z"/><path class="cls-8" d="M176.84,18.13l-1.63.1L172,29.72l2.17-.13.53-2,3.8-.23.74,2,2.18-.13Zm-1.67,7.54,1.1-4.17,1.55,4Z"/><path class="cls-8" d="M192.14,21.74a3.83,3.83,0,0,0-.84-2.16,3.67,3.67,0,0,0-2.73-1.29L184.71,18l-.85,11.25,3.86.29a3.74,3.74,0,0,0,2.9-.86,3.92,3.92,0,0,0,1.15-2.06,20.32,20.32,0,0,0,.27-2.46A19.2,19.2,0,0,0,192.14,21.74ZM190,24a18,18,0,0,1-.22,2,2.24,2.24,0,0,1-.46,1,1.84,1.84,0,0,1-1.61.57l-1.57-.12.55-7.32,1.57.12a1.86,1.86,0,0,1,1.51.81,2.1,2.1,0,0,1,.3,1A16.52,16.52,0,0,1,190,24Z"/><path class="cls-8" d="M203.62,21.56a3.33,3.33,0,0,0-2.19-1.35l-4.2-.91-2.38,11,4.38.94a3.29,3.29,0,0,0,2.5-.33,3.15,3.15,0,0,0,1.39-2.15,2.6,2.6,0,0,0-.91-2.79,2.33,2.33,0,0,0,1-.59A2.79,2.79,0,0,0,204,24,3.05,3.05,0,0,0,203.62,21.56Zm-2.52,6.68a1.47,1.47,0,0,1-.57.9,1.32,1.32,0,0,1-1.09.17l-2.13-.46.58-2.71,2.13.46a1.31,1.31,0,0,1,.93.6A1.41,1.41,0,0,1,201.1,28.24Zm.83-4.58a1.23,1.23,0,0,1-.55.84,1.36,1.36,0,0,1-1.07.13l-2-.43.55-2.54,2,.43a1.44,1.44,0,0,1,.93.57A1.25,1.25,0,0,1,201.93,23.66Z"/><path class="cls-8" d="M214.81,24.26l-1.58,4.33-3.4-1.25L211.41,23l-2-.72-3.88,10.6,2,.71,1.62-4.43,3.4,1.25-1.62,4.43,2,.72L216.78,25Z"/><path class="cls-8" d="M223.87,28.35l-8.7,8.17,1.93,1,1.5-1.46L222,37.84l-.37,2.06,1.93,1,1.79-11.81Zm-1.53,7.59L220,34.7l3.11-3Z"/><path class="cls-8" d="M236.36,36l-6,4.81,2.43-7.26-1.78-1.24-3.53,11.28,1.29.89,9.34-7.24Z"/><path class="cls-8" d="M258.83,62.15,260.42,61l-4.14-5.7-9.13,6.63,4.15,5.7,1.59-1.15-2.92-4,2.22-1.61,2.48,3.41,1.59-1.15-2.48-3.42,2.14-1.56Z"/><path class="cls-8" d="M265.74,69.93,259.61,69l4.28-2.4-1-1.82L253,70.33l1,1.82,3-1.66,2.2.36-3.14,4.91,1.19,2.12,4.07-6.64,5.65.91Z"/><path class="cls-8" d="M268.37,75.13l-1.81.76,1.08,2.58L259,82.06l.81,1.92,8.59-3.58L269.52,83l1.81-.76Z"/><path class="cls-8" d="M273.46,88.74l-11.92-.57.61,2.09,2.1.06L265.31,94l-1.74,1.17.61,2.09,9.73-6.91Zm-6.53,4.18-.74-2.56,4.32.15Z"/><path class="cls-8" d="M131.94,263.41q-.85,3.84-1.66,7.7c-1.07-2.39-2.16-4.79-3.26-7.18l-2.47.28q2.69,5.48,5.28,11l1.75-.19q1.38-5.92,2.85-11.84Z"/><path class="cls-8" d="M146.35,267.91a14.24,14.24,0,0,0-.35-2.58,3.49,3.49,0,0,0-1.21-1.9,5,5,0,0,0-6.61.55,3.61,3.61,0,0,0-.88,2.07,16.48,16.48,0,0,0,.1,2.6,17.42,17.42,0,0,0,.37,2.58,3.64,3.64,0,0,0,1.23,1.88,4.55,4.55,0,0,0,3.35,1,4.61,4.61,0,0,0,3.14-1.51,3.62,3.62,0,0,0,.9-2.06A15.66,15.66,0,0,0,146.35,267.91Zm-2.58,3.28a2,2,0,0,1-1.58.9,1.94,1.94,0,0,1-1.57-.48,2.66,2.66,0,0,1-.68-1.5c0-.19-.1-.74-.18-1.67s-.11-1.48-.11-1.67a2.66,2.66,0,0,1,.42-1.6,2.09,2.09,0,0,1,1.49-.74,2,2,0,0,1,1.57.49,2.63,2.63,0,0,1,.69,1.5c0,.24.09.79.16,1.67A6.22,6.22,0,0,1,143.77,271.19Z"/><path class="cls-8" d="M158.18,270.94q-2.73.13-5.46.3l-.57-9.48-2.4.15.75,11.48q3.9-.25,7.78-.45C158.25,272.27,158.22,271.61,158.18,270.94Z"/><path class="cls-8" d="M169.27,270.52l-5.47.17-.36-9.48-2.4.09q.26,5.74.49,11.49c2.6-.11,5.19-.2,7.79-.27C169.3,271.85,169.28,271.18,169.27,270.52Z"/><path class="cls-8" d="M180.47,270.35c-1.86,0-3.72,0-5.59,0,0-.93,0-1.86,0-2.79,1.6,0,3.19-.05,4.78-.05,0-.67,0-1.34,0-2l-4.8.05c0-.9,0-1.8,0-2.69q2.83,0,5.67-.06c0-.67,0-1.33,0-2q-4,0-8.09.1c.08,3.83.15,7.66.23,11.49,2.64-.05,5.27-.08,7.91-.09C180.48,271.68,180.47,271,180.47,270.35Z"/><path class="cls-8" d="M189.94,260.9c-.78,1.54-1.55,3.07-2.31,4.61q-1.11-2.34-2.24-4.66h-2.61c1.23,2.26,2.44,4.52,3.64,6.8,0,1.57,0,3.14,0,4.71l2.32,0c0-1.58,0-3.15.07-4.72q1.86-3.37,3.78-6.72Z"/><path class="cls-8" d="M202.39,266.86a2.76,2.76,0,0,0,1-.77,2.61,2.61,0,0,0,.58-1.54,3,3,0,0,0-.91-2.4,4,4,0,0,0-2.75-1c-1.64-.06-3.29-.11-4.93-.15l-.3,11.49c1.67,0,3.35.1,5,.16a4,4,0,0,0,2.7-.77,3.06,3.06,0,0,0,1.12-2.39A2.62,2.62,0,0,0,202.39,266.86Zm-1.24,3.44a1.58,1.58,0,0,1-1.18.36l-2.46-.08.09-2.83,2.47.08a1.64,1.64,0,0,1,1.16.44,1.46,1.46,0,0,1-.08,2Zm0-4.81a1.68,1.68,0,0,1-1.17.32l-2.33-.08.09-2.64,2.33.07a1.76,1.76,0,0,1,1.16.41,1.22,1.22,0,0,1,.37,1A1.17,1.17,0,0,1,201.16,265.49Z"/><path class="cls-8" d="M213.14,261.8l-1.88-.12q-2.56,5.61-5,11.25l2.44.13.84-2,4.27.26c.2.69.39,1.39.58,2.08l2.44.17Q215,267.67,213.14,261.8Zm-2.87,7.41,1.78-4.08c.42,1.42.82,2.84,1.23,4.27Z"/><path class="cls-8" d="M222.13,272c.25-3.15.51-6.31.77-9.46l-2.39-.19q-.45,5.73-.88,11.46,3.88.3,7.76.66c.07-.66.13-1.33.19-2Z"/><path class="cls-8" d="M233.18,273l1-9.44-2.39-.25-1.14,11.45c2.58.25,5.17.53,7.75.83.08-.66.15-1.32.23-2C236.81,273.38,235,273.18,233.18,273Z"/><path class="cls-8" d="M131.06,285l-.21-2q-4.23.45-8.43,1c.08.66.16,1.32.25,2l3-.37c.38,3.14.75,6.28,1.13,9.43l2.24-.27L128,285.34Z"/><path class="cls-8" d="M142.81,287.63a14.94,14.94,0,0,0-.36-2.58,3.6,3.6,0,0,0-1.19-1.89,4.64,4.64,0,0,0-6.35.59,3.61,3.61,0,0,0-.82,2.08,25.11,25.11,0,0,0,.53,5.18,3.73,3.73,0,0,0,1.2,1.87,4.55,4.55,0,0,0,6.23-.58,3.69,3.69,0,0,0,.84-2.06A15.86,15.86,0,0,0,142.81,287.63Zm-2.43,3.3a2,2,0,0,1-3,.44,2.76,2.76,0,0,1-.67-1.49c0-.2-.11-.75-.2-1.67s-.13-1.48-.13-1.68a2.67,2.67,0,0,1,.38-1.59,2.09,2.09,0,0,1,2.94-.28,2.63,2.63,0,0,1,.68,1.5c0,.23.1.79.18,1.67A6.48,6.48,0,0,1,140.38,290.93Z"/><path class="cls-8" d="M154.5,281l-2.29.14.48,7.46a2.13,2.13,0,0,1-.45,1.58,2,2,0,0,1-1.43.66,1.93,1.93,0,0,1-1.5-.46,2.14,2.14,0,0,1-.65-1.51l-.54-7.46-2.3.17q.3,3.78.58,7.54a3.76,3.76,0,0,0,1.44,2.81,4.69,4.69,0,0,0,6-.4,3.8,3.8,0,0,0,1.05-3C154.79,286.07,154.65,283.55,154.5,281Z"/><path class="cls-8" d="M164.93,287.09a3.27,3.27,0,0,0,1.45-1.1,3.1,3.1,0,0,0,.58-2,3.32,3.32,0,0,0-1.09-2.46,3.84,3.84,0,0,0-2.85-.92c-1.55.06-3.09.13-4.63.21q.29,5.73.58,11.48l2.25-.11-.21-4.58,1.63-.07c.82,1.5,1.64,3,2.44,4.49l2.61-.08Q166.33,289.52,164.93,287.09Zm-.68-1.91a1.71,1.71,0,0,1-1.18.46l-2.15.09c0-1-.09-2-.13-3l2.16-.1a1.81,1.81,0,0,1,1.22.37,1.53,1.53,0,0,1,.08,2.19Z"/><path class="cls-8" d="M179.66,291.73l-.06-11.5-2.31,0c0,2.35.05,4.7.08,7q-2.34-3.5-4.76-7l-2.05.05c.09,3.83.19,7.66.28,11.5l2.25-.05c-.05-2.36-.09-4.71-.14-7.06q2.38,3.48,4.71,7Z"/><path class="cls-8" d="M188.48,280.26l-1.8,0q-2.2,5.73-4.3,11.48h2.35c.23-.68.47-1.35.71-2l4.11,0c.22.69.43,1.37.65,2.05l2.35,0C191.23,288,189.87,284.12,188.48,280.26Zm-2.39,7.55c.5-1.39,1-2.78,1.51-4.16l1.38,4.2Z"/><path class="cls-8" d="M204,280.71q-1.66,3-3.3,6.09-1.39-3.17-2.83-6.32l-2.26-.07q-.15,5.74-.32,11.49l2.25.07c.08-2.23.15-4.47.22-6.7q1.05,2.22,2.09,4.44l1.52.06q1.2-2.14,2.41-4.26l-.3,6.69,2.25.11.57-11.49Z"/><path class="cls-8" d="M218,283.56l.15-2q-3.87-.29-7.76-.52-.34,5.74-.68,11.48,3.79.23,7.58.51l.15-2-5.35-.37.18-2.79,4.58.32.15-2c-1.54-.11-3.07-.22-4.61-.31.06-.9.12-1.8.17-2.7C214.34,283.3,216.15,283.42,218,283.56Z"/><path class="cls-8" d="M228.4,282.45c-.23,2.33-.45,4.67-.68,7q-2-3.72-4-7.43l-2.05-.18q-.48,5.73-.95,11.46l2.24.2c.21-2.35.41-4.69.62-7,1.33,2.48,2.65,5,3.93,7.45l2,.2,1.17-11.44Z"/><path class="cls-8" d="M233.88,283l-.21,2,3.06.34q-.55,4.73-1.09,9.43l2.24.27c.38-3.15.75-6.29,1.13-9.43l3.05.37c.09-.66.17-1.32.26-2Q238.11,283.46,233.88,283Z"/><path class="cls-8" d="M52.44,175.52q-3.48-23.94-7-48.84L29,126.75q-3.47,26-6.85,53c-.48,3.79-1.39,6.25-2.71,7.39V198.9q7.14-1.67,14.31-3.18l0-11.22c-1.7.14-2.55-.85-2.54-3a14.77,14.77,0,0,1,.11-2c.14-1,.29-2,.43-3q4.55-.71,9.1-1.36l.36,2.82a17.14,17.14,0,0,1,.17,2.19A3.16,3.16,0,0,1,39,183.59c0,3.69,0,7.37,0,11q8-1.63,16.11-3.08L55.14,181C53.79,180.41,52.89,178.59,52.44,175.52ZM33.09,166.3q1.54-11.53,3.1-22.87,1.66,11.16,3.32,22.1C37.37,165.78,35.23,166,33.09,166.3Z"/><path class="cls-8" d="M103,126.5l-.06,6.68c0,.92,0,1.85,0,2.78a3.12,3.12,0,0,0-2.24,2.18,15.09,15.09,0,0,0-.31,3.69q-.11,13.89-.22,27.79a14.42,14.42,0,0,0,.25,3.65,2.64,2.64,0,0,0,2.21,1.93c0,3.15,0,6.31-.08,9.46q-8,.89-15.91,2c0-3.25,0-6.51.08-9.77A3.63,3.63,0,0,0,89,174.4a17,17,0,0,0,.31-3.79q.09-11.76.19-23.51-4.29,19.78-8.56,40.3-2.64.38-5.28.78-3.68-19.43-7.37-39.56-.09,12.13-.17,24.28a16.24,16.24,0,0,0,.25,3.92,2.6,2.6,0,0,0,2.2,2c0,3.38,0,6.77-.07,10.15q-6.88,1.08-13.75,2.3l.06-10.51A4,4,0,0,0,59,178.08a19,19,0,0,0,.3-4.09q.11-15.26.2-30.53a18.91,18.91,0,0,0-.25-4A3,3,0,0,0,57,137.15l.06-10.52,17.8-.06q2.59,14.64,5.2,28.89,2.82-14.64,5.65-28.92h3.33Z"/><path class="cls-8" d="M106.92,134.24c0,.55,0,1.09,0,1.64a2.67,2.67,0,0,1,.5.17C107.24,135.4,107.07,134.9,106.92,134.24Z"/><path class="cls-8" d="M140,167.89v-.81c0-.39,0-1,0-1.68,0-.33,0-.69,0-1.08V163q-.09-6.78-6.34-7.75c3.69-1.25,6-3.94,7-8.07a21.09,21.09,0,0,0,.56-5c0-.72,0-1.41-.06-2.08a19,19,0,0,0-1.57-7,11.28,11.28,0,0,0-3.48-4.4c-2.08-1.55-5.33-2.34-9.76-2.33H107q0,3.35,0,6.69c0,.3,0,.6,0,.9,0,0,0,0,0,0s0,0,0,0,0,0,0,0,0,0,0,0,0,0,0,0,0,0,0,0,0,0,0,0v0c.15.66.32,1.16.49,1.81a2.75,2.75,0,0,1,1.71,1.89,14.78,14.78,0,0,1,.25,3.62c0,.28,0,.56,0,.84v.16q-.1,13.17-.2,26.33a15.13,15.13,0,0,1-.31,3.64,3.48,3.48,0,0,1-2.25,2.31q0,4.69-.07,9.39,8-.84,16-1.51l.06-9.15a2.72,2.72,0,0,1-2.22-1.91,14.21,14.21,0,0,1-.25-3.54c0-1.81,0-3.61,0-5.41v-.12c0-.69,0-1.39,0-2.08l4-.21c1.9-.09,3.23.33,4,1.24s1.13,2.51,1.11,4.77,0,4.48,0,6.73c0,.3,0,.61,0,.91a26.89,26.89,0,0,0,.86,8.18c3.24-.24,6.47-.45,9.71-.64h0l2.21-.13c0-3,0-6,.05-8.93C140.67,171.8,140,170.28,140,167.89Zm-11.51-18.75a6.53,6.53,0,0,1-4.09,1.16l-2,.08-2.18.08,0-4,.06-9.27,3.48-.07h.49a7.15,7.15,0,0,1,4.35,1.1,5.15,5.15,0,0,1,1.63,3.39h0a14.1,14.1,0,0,1,.11,1.79Q130.33,147.49,128.51,149.14Z"/><path class="cls-8" d="M180.05,126.4q0,3.39,0,6.78v2a2.8,2.8,0,0,0-2.23,1.93,14.13,14.13,0,0,0-.28,3.44v5.89q0,3.26,0,6.51v10.12q0,7-1.42,10.3a5.46,5.46,0,0,1-.27.6,12.39,12.39,0,0,1-6,5.7h0a19.73,19.73,0,0,1-7.78,1.62,22,22,0,0,1-2.59-.06c-5.06-.38-8.7-2.44-10.93-6.26a14.82,14.82,0,0,1-1.83-6.78c0-.55,0-1.1,0-1.68,0-1.08,0-2.16,0-3.24q0-6.92.07-13.82l0-7.07c0-.53,0-1.06,0-1.59a13.81,13.81,0,0,0-.26-3.45,2.85,2.85,0,0,0-2.19-2c0-.72,0-1.44,0-2.16,0-2.25,0-4.5,0-6.76h15.9c0,2.26,0,4.51,0,6.77,0,.68,0,1.36,0,2a3,3,0,0,0-2.21,2,13.49,13.49,0,0,0-.28,3.42c0,1.53,0,3.05,0,4.58,0,2.24,0,4.49,0,6.73q0,5.67,0,11.34a10.81,10.81,0,0,0,.75,4.83c.83,1.57,2.33,2.32,4.49,2.27,3.33-.07,5-2.53,5-7.41,0-3.35,0-6.69,0-10,0-2.17,0-4.34,0-6.51,0-2,0-3.91,0-5.87a13.73,13.73,0,0,0-.27-3.4,2.86,2.86,0,0,0-2.23-2v-2c0-2.26,0-4.51,0-6.77Z"/><path class="cls-8" d="M218.78,148.72l-8.83-.17c0-2,0-4,0-5.93a8.8,8.8,0,0,0-.82-4.35,4.15,4.15,0,0,0-3.49-1.73l.09,29.86a13.53,13.53,0,0,0,.3,3.42,3.09,3.09,0,0,0,2.24,2.05q0,3.47,0,6.94c0,.63,0,1.26,0,1.89l-5-.16c-3.67-.11-7.35-.19-11-.24,0-.73,0-1.46,0-2.19q0-3.29,0-6.58a2.89,2.89,0,0,0,2.24-1.94,12.78,12.78,0,0,0,.28-3.4l-.06-29.71a4.18,4.18,0,0,0-3.92,3.24,10.3,10.3,0,0,0-.39,3v2.1c0,1.17,0,2.34,0,3.51-2.95,0-5.89,0-8.83,0V126.4h37.09l0,6.76Q218.73,141,218.78,148.72Z"/><path class="cls-8" d="M268.87,182.07c-5.76,2.42-10.94,3.34-15.55,2.87-6.78-.68-11.49-3.26-14.13-7.8a15.55,15.55,0,0,1-1.69-6c-.11-1.13-.18-2.36-.19-3.7l-.06-9.76-.12-17.47a18.69,18.69,0,0,1,1.13-7q2.19-5.69,8.78-7.29a25.12,25.12,0,0,1,5.75-.63,30,30,0,0,1,15.65,4.32l0,3.6q.06,6.51.11,13c-3.43-.15-6.87-.28-10.3-.41,0-.54,0-1.07,0-1.61q0-4-1.59-5.82a4.41,4.41,0,0,0-3.44-1.48q-5.22-.09-5.17,7.81.06,6.38.1,12.75l.06,7.88a12.06,12.06,0,0,0,1.05,5.61,5,5,0,0,0,4.27,2.42q4.95.42,4.89-7.33l0-4.69c3.44.22,6.87.46,10.31.71Q268.78,172.06,268.87,182.07Z"/><path class="cls-8" d="M307.65,137.14a2.89,2.89,0,0,0-2.21,2.24,19.72,19.72,0,0,0-.25,4.08q.09,13.42.17,26.86.06,9.18-1.58,12.73c-2.41,5.23-6.92,7.18-13.56,6.15q-9.56-1.47-13.51-9.43a20.84,20.84,0,0,1-1.95-9.53l0-3.54q-.11-12.27-.2-24.52a16.88,16.88,0,0,0-.3-3.77,3.11,3.11,0,0,0-2.22-2.24c0-1,0-2,0-3q0-3.33-.05-6.66l10.08,0,5.81,0c0,3.33.05,6.66.08,10a3,3,0,0,0-2.18,2.18,16.43,16.43,0,0,0-.24,3.84q.09,12.76.19,25.53a14.78,14.78,0,0,0,.81,5.55,5.3,5.3,0,0,0,4.48,3.24c3.3.42,4.93-2.19,4.89-7.86q-.09-13-.19-26a17.9,17.9,0,0,0-.3-4,3.22,3.22,0,0,0-2.25-2.36c0-3.38,0-6.75-.07-10.13l14.54,0Z"/><path class="cls-8" d="M343.9,137.15c-1.89-7-6.35-10.41-13.35-10.43l-19.69-.08.06,10.61a3.31,3.31,0,0,1,2.24,2.48,19.65,19.65,0,0,1,.3,4.14q.07,15.62.17,31.22a18.63,18.63,0,0,1-.26,4.09,2.6,2.6,0,0,1-2.2,2.06l.06,10.61q7.9,1.43,15.76,3.05,0-5.55,0-11.09a5.59,5.59,0,0,1-2.21-2.91,19.37,19.37,0,0,1-.29-4.26c0-1,0-2,0-3l6.67,1c7.26,1.1,11.7-2.37,13.33-10.74a70.78,70.78,0,0,0,.83-12.58C345.26,145.21,344.81,140.48,343.9,137.15ZM333.08,158c-.86,1.17-2.53,1.62-5,1.37l-3.69-.37q0-8.82-.07-17.65l4.87.23a4.48,4.48,0,0,1,4.16,2.55,15.88,15.88,0,0,1,1,6.59Q334.37,156.27,333.08,158Z"/></g></g></g></svg>