<svg xmlns="http://www.w3.org/2000/svg" viewBox="0 0 349.9 343.01"><defs><style>.cls-1{fill:#5b6670;}.cls-2{fill:#003764;}.cls-3{fill:#f4b223;}.cls-4,.cls-5{fill:#fff;}.cls-5{font-size:35.92px;font-family:DINBold, DIN;}.cls-6{letter-spacing:-0.08em;}.cls-7{letter-spacing:-0.1em;}</style></defs><title>Asset 1</title><g id="Layer_2" data-name="Layer 2"><g id="Light_Color" data-name="Light Color"><g id="P_431_C" data-name="P 431 C"><path class="cls-1" d="M278.48,106.53H253.19a73.69,73.69,0,0,0-.87-9.33,2.14,2.14,0,0,0-.06-.35,77.4,77.4,0,0,0-14.7-34.57l-.32-.42c-.08-.12-.17-.23-.26-.35s-.25-.33-.38-.49l-1.2-1.52c-.15-.18-.28-.36-.45-.53-.32-.4-.64-.79-1-1.18a4.32,4.32,0,0,0-.34-.39c-.41-.48-.83-.95-1.26-1.42s-1-1.08-1.51-1.6-1-1-1.54-1.55h0l-1.5-1.45-.14-.12-1.46-1.32-.28-.24c-.49-.43-1-.85-1.49-1.27-.65-.55-1.33-1.09-2-1.61-.4-.32-.81-.63-1.22-.93-1.11-.83-2.23-1.63-3.4-2.39-.4-.28-.82-.55-1.25-.81a4.13,4.13,0,0,0-.38-.25c-.35-.23-.71-.45-1.07-.66-.18-.12-.36-.22-.53-.32-.37-.23-.74-.44-1.11-.66-.73-.42-1.48-.83-2.23-1.22-.39-.22-.81-.44-1.22-.65l-1.4-.68c-.38-.2-.77-.38-1.18-.57-1.31-.6-2.63-1.17-4-1.7-.48-.2-.94-.38-1.42-.56h0l-.67-.24c-.32-.12-.66-.25-1-.35s-.68-.24-1-.35c-.55-.19-1.11-.36-1.65-.53l-1-.29-1.06-.31-1-.27-.67-.17-1.21-.3c-.62-.15-1.23-.28-1.86-.41s-1.37-.28-2.06-.41-1.12-.2-1.69-.28l-1.44-.22-1.8-.23c-.67-.08-1.34-.15-2-.21s-1.4-.12-2.11-.16l-.39,0-1.62-.08-.87,0c-.66,0-1.32,0-2,0a77.38,77.38,0,0,0-55.28,23.22,79.56,79.56,0,0,0-14.17,19.62c-.27.52-.53,1-.78,1.57a79.49,79.49,0,0,0-4.49,11.5q-.77,2.55-1.38,5.18-.81,3.51-1.3,7.12-.39,2.84-.59,5.72c0,.65-.07,1.29-.09,1.94h0l-8.11,0-6.81,0H77l-5.58,0q-.12-4.11.08-8.14A103.7,103.7,0,0,1,169.38.16c1.87-.1,3.79-.16,5.67-.16a103.49,103.49,0,0,1,103.2,96.36c.05.45.07.9.1,1.36a2.28,2.28,0,0,1,0,.26C278.51,100.83,278.56,103.72,278.48,106.53Z"/><path class="cls-1" d="M266,270.8C233,331.69,175,343,175,343s-57.86-11.29-90.85-72h.16l4.55-17.23,1.53-.29,3.87-.68a507.29,507.29,0,0,1,85.62-7.38,456.3,456.3,0,0,1,77.64,6.47l2.11.37,1.55.45h0Z"/><path class="cls-1" d="M81.81,247.05h0Z"/></g><g id="P_2955C" data-name="P 2955C"><path class="cls-2" d="M348.23,125.8c-3-12.13-11.44-19.11-23.1-19.13q-6.72,0-13.46-.06c-2.15,0-4.32,0-6.49,0l-10,0h-42a73.69,73.69,0,0,0-.87-9.33,2.14,2.14,0,0,0-.06-.35,77.4,77.4,0,0,0-14.7-34.57l.4.56c-.23-.33-.47-.66-.72-1-.08-.12-.17-.23-.26-.35s-.25-.33-.38-.49l-1.2-1.52c-.15-.18-.28-.36-.45-.53-.32-.4-.64-.79-1-1.18a4.32,4.32,0,0,0-.34-.39c-.41-.48-.83-.95-1.26-1.42s-1-1.07-1.5-1.6-1-1-1.55-1.55l-1.5-1.45-.14-.12-1.46-1.32-.28-.24c-.49-.43-1-.85-1.49-1.27-.65-.55-1.33-1.09-2-1.61-.4-.32-.81-.63-1.22-.93-1.11-.83-2.23-1.63-3.4-2.39-.4-.28-.82-.55-1.25-.81a4.13,4.13,0,0,0-.38-.25c-.35-.23-.71-.45-1.07-.66-.18-.12-.36-.22-.53-.32-.37-.23-.74-.44-1.11-.66-.73-.42-1.48-.83-2.23-1.22-.39-.22-.81-.44-1.22-.65l-1.4-.68c-.38-.2-.77-.38-1.18-.57-1.31-.6-2.63-1.17-4-1.7-.48-.2-.94-.38-1.42-.56h0l-.67-.24c-.32-.12-.66-.25-1-.35s-.68-.24-1-.35c-.55-.19-1.11-.36-1.65-.53l-1-.29-1.06-.31-1-.27-.67-.17-1.21-.3c-.62-.15-1.23-.28-1.86-.41s-1.37-.28-2.06-.41-1.12-.2-1.69-.28l-1.44-.22-1.8-.23c-.67-.08-1.34-.15-2-.21s-1.4-.12-2.11-.16l-.39,0-1.62-.08-.87,0c-.66,0-1.32,0-2,0a77.38,77.38,0,0,0-55.28,23.22c-1.41,1.44-2.78,2.92-4.08,4.47a80.18,80.18,0,0,0-7.89,11.13c-.51.88-1,1.76-1.49,2.66-.24.45-.48.9-.71,1.36s-.53,1-.78,1.57c-.44.92-.87,1.85-1.28,2.79s-.8,1.89-1.18,2.85-.73,1.92-1.07,2.9-.66,2-1,3-.5,1.71-.73,2.57-.44,1.74-.65,2.61c-.27,1.17-.51,2.35-.73,3.53s-.4,2.38-.57,3.59q-.39,2.84-.59,5.72c0,.65-.07,1.29-.09,1.94h0l-8.11,0-6.81,0H77l-5.58,0h0l-5.41,0H64.37l-16.38,0H44.9l-6.72,0h-2l-25.35.12-1.06,8.76C7.4,135,5.06,154.75,2.83,174.33a19.5,19.5,0,0,1-.5,2.81L0,179.33v24.23l.1,0,45.26,14.84h0s0,0,0,0h0l4-14.31,4.12-1.24c1.32-.4,21.82-6.49,54.88-10.87q5.07-.67,10.51-1.28h0c12.73-1.42,27-2.53,42.45-3h0c4.91-.15,10-.23,15.12-.23q6.15,0,12.29.15h0q21.39.51,42.28,2.84,5.25.57,10.46,1.28a452.86,452.86,0,0,1,55.78,11l4.45,1.18,2.58,9.95,1.12,4.33.15,0h0l25.71-14.47-.08-24c5.89-.91,14.83-4.88,17.55-20.12a94.94,94.94,0,0,0,1-15.73C349.9,136.26,349.35,130.33,348.23,125.8ZM231.87,73.91c1.35,0,2.71,0,4,0l.85.53c.5.9,1.16,2.12,1.47,2.77.19.41.38.83.58,1.24a2.29,2.29,0,0,0,.1.23.65.65,0,0,0,.08.17c2.33,5.08,5,11.75,5.39,18.52a.06.06,0,0,1,0,0v0h0v.12c0,.18,0,.53,0,1-.09,1.42-.25,3.78-.25,4.37V103h0v0a.77.77,0,0,0-.06-.15c-.07-.23-.2-.6-.38-1a2,2,0,0,0-.1-.32c-.15-.36-.28-.74-.42-1.13s-.36-.95-.5-1.37h0c-.13-.38-.25-.75-.38-1.12l-.07-.22a95.84,95.84,0,0,0-11.05-22.11ZM143.06,53.27c8.69-8.46,16.69-13.3,25.18-15.22a34.15,34.15,0,0,1,7.73-.9c1.9,0,3.72.15,5.74.34a64.53,64.53,0,0,1,14.41,3l-.14,2c-13,2.27-31.48,9.77-45.88,32.62l0,0c-3.84,5.63-8.46,15.21-11.05,21.78l-1.51.45A63.55,63.55,0,0,1,123.24,84l-.14-1,.05-.13A81.87,81.87,0,0,1,143.06,53.27Zm-27.5,17.6c.54-.88,1.25-2.06,1.66-2.66a71,71,0,0,1,15-16.17l1.38,1.49a95,95,0,0,0-14.31,21.82l-1.77.07c-.68-1.18-1.36-2.36-2-3.53Zm-9.31,27.87A99.47,99.47,0,0,1,111,81l1.83-.13a63.8,63.8,0,0,0,3.51,5.87,66.54,66.54,0,0,0,10.41,12,57.58,57.58,0,0,0,10.77,7.75h.11s-.08,0-.11,0c-5.47,0-10.87,0-10.87,0h-8.39c-4.27,0-8.55,0-12.82,0h0A62,62,0,0,1,106.25,98.74Zm66.68,5.77-.8.68a44.08,44.08,0,0,1-6.7.5,57.12,57.12,0,0,1-19.88-3.79l-.61-1.31.21-.55c.16-.46.33-.92.5-1.37.72-2,1.43-3.88,2.24-5.75A85.39,85.39,0,0,1,169.4,62.51a54.23,54.23,0,0,1,29.53-13.57c3.69-.48,9.7-.8,12.12-.91l.57.14c3.29,2,12.22,9.17,18.93,17.49l-.81,1.67-1.87,0c-1.88,0-3.44.06-4.89.19-17.38,1.54-31.52,8.94-42,22a44.62,44.62,0,0,0-5.68,9.16,47,47,0,0,0-2,5C173.13,103.93,173,104.22,172.93,104.51Zm6.42,1.94s0-.1.06-.14a44.84,44.84,0,0,1,4-7.66,60,60,0,0,1,11.84-13.39l1.42.13.38.45c1.67,2,3.24,4,4.7,6q2.47,3.39,4.57,6.87,2.3,3.78,4.16,7.66l.05.12Zm38.34,0q-.84-1.87-1.8-3.75l0,0c-.57-1.22-1.26-2.55-2-3.94A144.45,144.45,0,0,0,202.78,82l.35-1.55a63.22,63.22,0,0,1,18.59-5.84l.91.37.11.13A79.23,79.23,0,0,1,235.55,98.8q1.29,3.69,2.28,7.65h-20.1A.1.1,0,0,0,217.69,106.4Z"/><path class="cls-2" d="M81.8,247.06l-2.19,8.48h0l-1,4-.71,2.72L69,260.61l-6.71-1.27-18.16-3.47-.78-.15c3.73-1.51,13.12-3.63,21.68-5.4,3.26-.68,6.42-1.3,9.09-1.82,3.36-.65,6-1.13,7.1-1.33l.21,0,.38-.07h0Z"/><path class="cls-2" d="M307.05,255.69l-.58.11L289.91,259l-9,1.72-8.41,1.61-.83-3.16-1.23-4.8h0l-2.2-8.54h.07l.27.06,7.73,1.7c2.62.6,5.69,1.3,8.87,2l2.38.56.1,0h0C295.58,252.13,303.63,254.25,307.05,255.69Z"/></g><g id="P_7409_C" data-name="P 7409 C"><path class="cls-2" d="M121,106.45H118.3C119.21,106.45,120.1,106.39,121,106.45Z"/><path class="cls-2" d="M137.49,106.45c-5.47,0-10.87,0-10.87,0Z"/><path class="cls-2" d="M137.6,106.45s-.08,0-.11,0Z"/><path class="cls-2" d="M133.62,53.53a95,95,0,0,0-14.31,21.82l-1.77.07c-.68-1.18-1.36-2.36-2-3.53v-1c.54-.88,1.25-2.06,1.66-2.66a71,71,0,0,1,15-16.17Z"/><path class="cls-2" d="M196.12,40.5l-.14,2c-13,2.27-31.48,9.77-45.88,32.62l0,0c-3.84,5.63-8.46,15.21-11.05,21.78l-1.51.45A63.55,63.55,0,0,1,123.24,84l-.14-1,.05-.13a81.87,81.87,0,0,1,19.91-29.57c8.69-8.46,16.69-13.3,25.18-15.22a34.15,34.15,0,0,1,7.73-.9c1.9,0,3.72.15,5.74.34A64.53,64.53,0,0,1,196.12,40.5Z"/><path class="cls-2" d="M221.56,106.45h-3.83a.1.1,0,0,0,0,0Z"/><path class="cls-2" d="M242.6,99h0c-.13-.38-.25-.75-.38-1.12C242.28,98.09,242.43,98.48,242.6,99Z"/><path class="cls-3" d="M181.71,37.49c-2-.19-3.84-.34-5.74-.34a34.15,34.15,0,0,0-7.73.9c-8.49,1.92-16.49,6.76-25.18,15.22a81.87,81.87,0,0,0-19.91,29.57l-.05.13.14,1a63.55,63.55,0,0,0,14.28,13.39l1.51-.45c2.59-6.57,7.21-16.15,11.05-21.78l0,0C164.5,52.25,183,44.75,196,42.48l.14-2A64.53,64.53,0,0,0,181.71,37.49Z"/><path class="cls-3" d="M126.62,106.45s5.4,0,10.87,0Zm10.87,0s.07,0,.11,0Zm-19.19,0H121C120.1,106.39,119.21,106.45,118.3,106.45Z"/><path class="cls-3" d="M132.24,52a71,71,0,0,0-15,16.17c-.41.6-1.12,1.78-1.66,2.66v1c.63,1.17,1.31,2.35,2,3.53l1.77-.07a95,95,0,0,1,14.31-21.82Z"/><path class="cls-3" d="M217.69,106.4a.1.1,0,0,1,0,0h3.83Z"/><path class="cls-3" d="M137.49,106.45c-5.47,0-10.87,0-10.87,0H121c-.86-.06-1.75,0-2.66,0h-.07c-4.27,0-8.55,0-12.82,0h0a62,62,0,0,1,.88-7.71A99.47,99.47,0,0,1,111,81l1.83-.13a63.8,63.8,0,0,0,3.51,5.87,66.54,66.54,0,0,0,10.41,12A57.58,57.58,0,0,0,137.49,106.45Z"/><path class="cls-3" d="M230.55,65.66l-.81,1.67-1.87,0c-1.88,0-3.44.06-4.89.19-17.38,1.54-31.52,8.94-42,22a44.62,44.62,0,0,0-5.68,9.16,47,47,0,0,0-2,5c-.09.26-.18.55-.29.84l-.8.68a44.08,44.08,0,0,1-6.7.5,57.12,57.12,0,0,1-19.88-3.79l-.61-1.31.21-.55c.16-.46.33-.92.5-1.37.72-2,1.43-3.88,2.24-5.75A85.39,85.39,0,0,1,169.4,62.51a54.23,54.23,0,0,1,29.53-13.57c3.69-.48,9.7-.8,12.12-.91l.57.14C214.91,50.16,223.84,57.34,230.55,65.66Z"/><path class="cls-3" d="M244.37,97.43v0h0v.12c0,.18,0,.53,0,1-.09,1.42-.25,3.78-.25,4.37V103h0v0a.77.77,0,0,0-.06-.15c-.07-.23-.2-.6-.38-1a2,2,0,0,0-.1-.32c-.15-.36-.28-.74-.42-1.13s-.36-.95-.5-1.37-.32-.86-.42-1.11l-.07-.22a95.84,95.84,0,0,0-11.05-22.11l.81-1.6c1.35,0,2.71,0,4,0l.85.53c.5.9,1.16,2.12,1.47,2.77.19.41.38.83.58,1.24a2.29,2.29,0,0,0,.1.23.65.65,0,0,0,.08.17c2.33,5.08,5,11.75,5.39,18.52A.06.06,0,0,1,244.37,97.43Z"/><path class="cls-3" d="M237.83,106.45H221.56l-3.87,0q-.84-1.87-1.8-3.75l0,0c-.57-1.22-1.26-2.55-2-3.94A144.45,144.45,0,0,0,202.78,82l.35-1.55a63.22,63.22,0,0,1,18.59-5.84l.91.37.11.13A79.23,79.23,0,0,1,235.55,98.8Q236.84,102.49,237.83,106.45Z"/><path class="cls-3" d="M210.52,106.45H179.35s0-.1.06-.14a44.84,44.84,0,0,1,4-7.66,60,60,0,0,1,11.84-13.39l1.42.13.38.45c1.67,2,3.24,4,4.7,6q2.47,3.39,4.57,6.87,2.3,3.78,4.16,7.66Z"/><path class="cls-3" d="M81.81,247.05h0Z"/><path class="cls-3" d="M81.81,247.05h0Z"/><path class="cls-3" d="M71.62,263.16l-1.55,0C44.84,264,9.24,274.1,9.24,274.1l14.48-42.5c6.65-2.09,12.67-3.72,18.1-5l1.36-.31c1.69-.38,3.31-.73,4.87-1l1.54-.3-.66,2.37-8.29,29.92,16.89,3.22,12.38,2.36Z"/><path class="cls-3" d="M341.13,274.1s-9.73-2.77-22.62-5.51l-1.29-.28c-11.66-2.45-25.65-4.81-37.34-5.13l-1.18,0,1.29-.25,14.22-2.72,15.32-2.94-7-27.41-1.22-4.78c2,.39,4.13.83,6.34,1.34l1.56.36c5.25,1.25,11,2.84,17.41,4.84Z"/><path class="cls-3" d="M81.81,247.05h0Z"/><path class="cls-3" d="M81.81,247.05h0Z"/><path class="cls-3" d="M307.06,255.69h0c-3.42-1.44-11.47-3.56-19.37-5.46h0l-.1,0-2.38-.56c-3.18-.75-6.25-1.45-8.87-2l-7.73-1.7-.27-.06h-.07c-2.76-.55-5.66-1.1-8.68-1.63l-.63-.11c-38.37-6.71-96.94-11.32-167.81,1.24l-.63.11h0c-2.87.51-5.77,1-8.68,1.62h0l-.38.07-.21,0c-1.13.2-3.74.68-7.1,1.33-2.67.52-5.83,1.14-9.09,1.82-8.56,1.77-17.95,3.89-21.68,5.4l-.18,0,7.93-28.56.72-2.58,1.78-6.48.35-1.21L56,209.21h0l.83-.24.09,0,.59-.16.76-.21.43-.12,3.06-.8,1-.26.19,0,1.3-.32,3.44-.83.92-.21c1.34-.32,2.81-.65,4.34-1l.93-.2,1.91-.41,1.06-.22,2.34-.48,1.19-.24,3.63-.71.31-.06,2.22-.41,1.64-.3,1.38-.25,1.82-.32,2.49-.42,2.64-.44,1.87-.3c1-.16,2.07-.33,3.13-.48l1.62-.24,3.07-.45,1.86-.26,3.39-.45,1.74-.22,3.54-.44q5.86-.7,12.19-1.3a496.13,496.13,0,0,1,92.3-.21q6,.54,12.14,1.27h0q5.69.68,11.47,1.51c2.46.35,4.92.73,7.41,1.14l3.06.5,4.62.81,3.86.71q5.81,1.08,11.68,2.36l3.91.87,3.94.91,2.87.69q2.52.6,5,1.26l4,1,1.94,7.6.75,2.92,1.24,4.88,1.26,4.95Z"/></g><g id="White"><path class="cls-4" d="M91.69,85.92a3.08,3.08,0,0,0-2.16-1.72,3.28,3.28,0,0,0-2.55.21,3.59,3.59,0,0,0-1.36,1.78l-.5,1.19a1.87,1.87,0,0,1-.66.84,1.17,1.17,0,0,1-.9.12,1.36,1.36,0,0,1-.88-.67,1.76,1.76,0,0,1-.09-1.3,2.93,2.93,0,0,1,1.31-2l-1-1.64a4.71,4.71,0,0,0-2.14,3A3.85,3.85,0,0,0,81,88.72a3.25,3.25,0,0,0,2.16,1.61,3,3,0,0,0,3.8-2l.5-1.21a1.66,1.66,0,0,1,.65-.84,1.27,1.27,0,0,1,1-.08c.9.24,1.2,1,.88,2.2a3.41,3.41,0,0,1-1.57,2.29l1,1.68a5.06,5.06,0,0,0,2.44-3.45A4.38,4.38,0,0,0,91.69,85.92Z"/><path class="cls-4" d="M95.93,76.29l.78-2.06-12-.37-.59,1.55,9.22,7.72.79-2.06-1.66-1.32,1.37-3.59Zm-5,2.24-3.38-2.75,4.33.24Z"/><path class="cls-4" d="M102.4,63.35l-10-5.41-1,1.85,4.08,5.38-6.74-.46-1,1.82,10,5.42,1-1.86-5.82-3.15,4.77.23.68-1.26-2.81-3.86,5.84,3.16Z"/><path class="cls-4" d="M102.19,56.1l1.24-1.68a3.48,3.48,0,0,0,.69-2.74,3.53,3.53,0,0,0-1.46-2.22,3.42,3.42,0,0,0-5,.79l-2.46,3.38,9.19,6.69,1.24-1.7Zm-.45-2.77-1.15,1.6-2.53-1.84,1.17-1.59a1.53,1.53,0,0,1,1-.67,1.59,1.59,0,0,1,1.18.33,1.49,1.49,0,0,1,.66,1A1.54,1.54,0,0,1,101.74,53.33Z"/><path class="cls-4" d="M129.08,31.85A3.26,3.26,0,0,0,127,30.32a3.66,3.66,0,0,0-2.19.43l-1.16.56a1.7,1.7,0,0,1-1.06.19,1.12,1.12,0,0,1-.75-.49,1.33,1.33,0,0,1-.22-1.1,1.73,1.73,0,0,1,.79-1,3,3,0,0,1,2.28-.6l.32-1.89a4.61,4.61,0,0,0-3.63.86,3.8,3.8,0,0,0-1.73,2.33,3.25,3.25,0,0,0,.56,2.64,2.94,2.94,0,0,0,4.16,1l1.18-.57a1.73,1.73,0,0,1,1-.21,1.27,1.27,0,0,1,.8.61c.52.77.26,1.52-.79,2.23a3.44,3.44,0,0,1-2.69.68l-.32,2a5.14,5.14,0,0,0,4.1-1,4.39,4.39,0,0,0,1.85-2.38A3,3,0,0,0,129.08,31.85Z"/><path class="cls-4" d="M138.81,26l-3.37-6.66-1.86.94,3.34,6.6a2.12,2.12,0,0,1,.24,1.59,1.77,1.77,0,0,1-1,1.12,1.72,1.72,0,0,1-1.46.12,2.18,2.18,0,0,1-1.14-1.14L130.24,22l-1.88.95,3.38,6.67A4,4,0,1,0,138.81,26Z"/><path class="cls-4" d="M147.56,14.85l-2,.68,1.51,4.4-3.47,1.18-1.5-4.39-2,.68,3.69,10.76,2-.69L144.27,23l3.45-1.18,1.53,4.5,2-.68Z"/><path class="cls-4" d="M159.5,18.77a3,3,0,0,0,1.17-1.28,3.27,3.27,0,0,0,.2-2,3.41,3.41,0,0,0-1.38-2.24,3.31,3.31,0,0,0-2.71-.51l-4.16.8,2.17,11.16,2.07-.4L156,19.83l1.49-.29,2.93,4.05,2.4-.46ZM158.59,17a1.5,1.5,0,0,1-1,.62l-2,.38-.57-2.94,2-.37a1.47,1.47,0,0,1,1.16.19,1.5,1.5,0,0,1,.63,1A1.47,1.47,0,0,1,158.59,17Z"/><path class="cls-4" d="M169.39,11.22l-1.65.1L164.49,22.9l2.19-.13.54-2.05L171,20.5l.76,2,2.19-.13Zm-1.7,7.6,1.12-4.21,1.56,4.05Z"/><path class="cls-4" d="M184.8,14.85a3.78,3.78,0,0,0-.83-2.17,3.73,3.73,0,0,0-2.76-1.3l-3.9-.29-.84,11.33,3.88.3a3.74,3.74,0,0,0,2.92-.87,3.83,3.83,0,0,0,1.16-2.08,21.5,21.5,0,0,0,.28-2.47A18.93,18.93,0,0,0,184.8,14.85Zm-2.19,2.29a18.31,18.31,0,0,1-.22,2,2.34,2.34,0,0,1-.46,1,1.89,1.89,0,0,1-1.63.58l-1.58-.12.55-7.39,1.59.12a1.82,1.82,0,0,1,1.51.82,2.07,2.07,0,0,1,.31,1.05C182.69,15.58,182.68,16.23,182.61,17.14Z"/><path class="cls-4" d="M196.39,14.67a3.44,3.44,0,0,0-2.21-1.36l-4.25-.91-2.39,11.11,4.4,1a3.45,3.45,0,0,0,2.54-.34A3.2,3.2,0,0,0,195.87,22a2.62,2.62,0,0,0-.91-2.81,2.47,2.47,0,0,0,1-.59,2.85,2.85,0,0,0,.76-1.42A3.08,3.08,0,0,0,196.39,14.67Zm-2.55,6.74a1.54,1.54,0,0,1-.57.91,1.4,1.4,0,0,1-1.11.17L190,22l.59-2.73,2.13.46a1.35,1.35,0,0,1,.94.61A1.38,1.38,0,0,1,193.84,21.41Zm.84-4.62a1.26,1.26,0,0,1-.56.85,1.37,1.37,0,0,1-1.08.13l-2-.43.55-2.56,2,.43a1.46,1.46,0,0,1,.94.57A1.37,1.37,0,0,1,194.68,16.79Z"/><path class="cls-4" d="M207.67,17.39l-1.61,4.37-3.43-1.26,1.61-4.36-2-.72-3.9,10.67,2,.73L202,22.35l3.43,1.25-1.64,4.47,2,.73,3.89-10.68Z"/><path class="cls-4" d="M216.8,21.52,208,29.75l1.94,1,1.51-1.48,3.39,1.79-.38,2.07,1.95,1,1.81-11.9Zm-1.56,7.65-2.37-1.25,3.13-3Z"/><path class="cls-4" d="M229.39,29.26l-6,4.85,2.46-7.32L224,25.55l-3.55,11.37,1.29.9,9.41-7.31Z"/><path class="cls-4" d="M252,55.59l1.61-1.17-4.19-5.74-9.19,6.68,4.17,5.75L246.05,60l-2.94-4.05,2.23-1.62,2.51,3.44,1.59-1.16-2.5-3.45,2.16-1.57Z"/><path class="cls-4" d="M259,63.47l-6.18-.9,4.32-2.42-1-1.83-9.91,5.54,1,1.84,3-1.66,2.21.35-3.16,5,1.2,2.14,4.11-6.69,5.69.92Z"/><path class="cls-4" d="M261.67,68.7l-1.83.76,1.08,2.6-8.67,3.62.81,1.94L261.74,74l1.07,2.6,1.84-.76Z"/><path class="cls-4" d="M266.79,82.42l-12-.58.62,2.11,2.1.06,1.09,3.68-1.77,1.17.62,2.11,9.81-7Zm-6.58,4.21-.75-2.58,4.35.16Z"/><path class="cls-4" d="M126.63,258.23q-1.48,6-2.88,11.94l-1.76.18q-2.61-5.53-5.32-11.06l2.49-.29c1.11,2.41,2.2,4.83,3.28,7.24.55-2.59,1.1-5.18,1.68-7.77Z"/><path class="cls-4" d="M138.64,263a14.83,14.83,0,0,1,0,2.63,3.57,3.57,0,0,1-.91,2.07,4.89,4.89,0,0,1-6.54.54,3.63,3.63,0,0,1-1.23-1.9,16.15,16.15,0,0,1-.38-2.6,15.53,15.53,0,0,1-.1-2.62,3.64,3.64,0,0,1,.89-2.09,4.68,4.68,0,0,1,3.23-1.55,4.62,4.62,0,0,1,3.43,1,3.55,3.55,0,0,1,1.22,1.92A14.25,14.25,0,0,1,138.64,263Zm-2.38.18c-.07-.89-.13-1.45-.17-1.68a2.6,2.6,0,0,0-.69-1.52,2.24,2.24,0,0,0-3.09.26,2.66,2.66,0,0,0-.42,1.6c0,.2,0,.76.11,1.69s.14,1.49.18,1.69a2.73,2.73,0,0,0,.68,1.51,2,2,0,0,0,1.59.48,2,2,0,0,0,1.59-.91A6.25,6.25,0,0,0,136.26,263.2Z"/><path class="cls-4" d="M150.67,268.09c-2.61.13-5.23.28-7.84.45q-.37-5.79-.76-11.57l2.42-.15c.19,3.18.38,6.37.58,9.55,1.83-.11,3.67-.21,5.5-.3C150.61,266.74,150.64,267.41,150.67,268.09Z"/><path class="cls-4" d="M161.8,267.66c-2.62.07-5.23.16-7.85.27q-.25-5.79-.5-11.58l2.42-.09.36,9.56,5.51-.18Z"/><path class="cls-4" d="M173.05,267.49q-4,0-8,.09L164.84,256q4.08-.08,8.16-.09c0,.67,0,1.34,0,2-1.91,0-3.81,0-5.72.05,0,.91,0,1.81,0,2.72,1.62,0,3.23,0,4.85-.05,0,.67,0,1.34,0,2-1.61,0-3.22,0-4.83,0,0,.94,0,1.88,0,2.81l5.63,0C173,266.14,173,266.82,173.05,267.49Z"/><path class="cls-4" d="M185.21,256q-1.92,3.38-3.81,6.77l-.06,4.76-2.35,0c0-1.58,0-3.17,0-4.75q-1.8-3.44-3.66-6.86H178c.77,1.56,1.52,3.13,2.27,4.69.77-1.55,1.54-3.09,2.33-4.64Z"/><path class="cls-4" d="M196.71,264.63a3.11,3.11,0,0,1-1.13,2.41,4,4,0,0,1-2.72.77l-5.06-.16.3-11.58c1.66,0,3.32.09,5,.15a4.11,4.11,0,0,1,2.77,1,3,3,0,0,1,.92,2.42,2.65,2.65,0,0,1-.59,1.55,2.59,2.59,0,0,1-1,.77A2.65,2.65,0,0,1,196.71,264.63Zm-2.36-5a1.19,1.19,0,0,0-.38-1,1.72,1.72,0,0,0-1.16-.41l-2.36-.08c0,.89,0,1.78-.08,2.67l2.34.08a1.74,1.74,0,0,0,1.19-.32A1.21,1.21,0,0,0,194.35,259.62Zm0,4.79a1.36,1.36,0,0,0-.38-1,1.6,1.6,0,0,0-1.16-.44l-2.49-.08-.09,2.84,2.47.09a1.66,1.66,0,0,0,1.2-.37A1.4,1.4,0,0,0,194.34,264.41Z"/><path class="cls-4" d="M209.66,268.72l-2.46-.17c-.19-.7-.38-1.4-.58-2.1l-4.31-.26-.84,2-2.46-.12q2.48-5.68,5.07-11.34l1.89.11Q207.88,262.77,209.66,268.72Zm-3.55-4.21c-.4-1.43-.82-2.87-1.23-4.3l-1.8,4.12Z"/><path class="cls-4" d="M220.34,269.59q-3.92-.36-7.83-.66.45-5.79.89-11.56l2.41.19L215,267.1c1.84.15,3.67.31,5.5.48C220.47,268.25,220.4,268.92,220.34,269.59Z"/><path class="cls-4" d="M231.43,270.75c-2.61-.3-5.21-.58-7.82-.84q.57-5.78,1.15-11.54l2.41.25c-.33,3.17-.66,6.35-1,9.52q2.75.28,5.49.6C231.58,269.41,231.51,270.08,231.43,270.75Z"/><path class="cls-4" d="M123.23,280.24l-3.08.35c.36,3.17.73,6.34,1.09,9.51l-2.25.26-1.14-9.5-3.08.38c-.09-.67-.17-1.34-.25-2q4.24-.54,8.49-1C123.09,278.9,123.16,279.57,123.23,280.24Z"/><path class="cls-4" d="M135.08,282.9a15.64,15.64,0,0,1,.07,2.62,3.59,3.59,0,0,1-.84,2.08,4.58,4.58,0,0,1-6.28.59,3.74,3.74,0,0,1-1.21-1.89,16.68,16.68,0,0,1-.4-2.6,17,17,0,0,1-.14-2.62,3.65,3.65,0,0,1,.83-2.09,4.66,4.66,0,0,1,6.4-.6,3.57,3.57,0,0,1,1.2,1.91A15.71,15.71,0,0,1,135.08,282.9Zm-2.29.2c-.08-.89-.14-1.45-.18-1.69a2.63,2.63,0,0,0-.69-1.51,2.1,2.1,0,0,0-3,.28,2.71,2.71,0,0,0-.38,1.61c0,.19.05.76.14,1.69s.15,1.49.19,1.68a2.8,2.8,0,0,0,.68,1.5,2,2,0,0,0,3-.44A6.38,6.38,0,0,0,132.79,283.1Z"/><path class="cls-4" d="M147.3,283.86a3.81,3.81,0,0,1-1.05,3,4.72,4.72,0,0,1-6.11.41,3.84,3.84,0,0,1-1.45-2.83q-.28-3.81-.58-7.6l2.32-.17.54,7.52a2.23,2.23,0,0,0,.65,1.52,2.24,2.24,0,0,0,3-.2,2.2,2.2,0,0,0,.45-1.6l-.48-7.52,2.31-.14C147,278.78,147.15,281.32,147.3,283.86Z"/><path class="cls-4" d="M160.15,287.25l-2.62.09-2.46-4.53-1.65.08.21,4.62-2.27.1q-.29-5.79-.58-11.57l4.66-.22a3.9,3.9,0,0,1,2.88.94,3.34,3.34,0,0,1,1.1,2.47,3.14,3.14,0,0,1-.58,2,3.3,3.3,0,0,1-1.46,1.11C158.31,284,159.24,285.62,160.15,287.25Zm-3-7.95a1.39,1.39,0,0,0-.5-1.08,1.74,1.74,0,0,0-1.23-.37l-2.18.09c0,1,.09,2,.13,3l2.17-.09a1.74,1.74,0,0,0,1.19-.47A1.39,1.39,0,0,0,157.11,279.3Z"/><path class="cls-4" d="M172.22,287l-2,0q-2.34-3.54-4.74-7.05c0,2.37.09,4.74.14,7.11l-2.27.06c-.09-3.87-.19-7.73-.28-11.59l2.07-.05c1.62,2.33,3.22,4.68,4.79,7,0-2.37,0-4.74-.08-7.1l2.33,0Z"/><path class="cls-4" d="M185.21,287.13l-2.36,0-.66-2.06c-1.38,0-2.76,0-4.14,0l-.72,2H175q2.1-5.79,4.33-11.57l1.82,0Q183.22,281.29,185.21,287.13Zm-3.6-4c-.45-1.41-.92-2.82-1.38-4.23l-1.53,4.2Z"/><path class="cls-4" d="M198.47,287.61l-2.27-.11q.17-3.37.31-6.75c-.82,1.43-1.62,2.86-2.43,4.3l-1.54-.06q-1-2.24-2.1-4.47c-.07,2.25-.15,4.5-.22,6.75L188,287.2q.17-5.79.32-11.59l2.28.07q1.45,3.18,2.86,6.38,1.64-3.07,3.32-6.14l2.32.11Q198.77,281.82,198.47,287.61Z"/><path class="cls-4" d="M210.12,288.34c-2.55-.19-5.09-.36-7.64-.51q.35-5.79.68-11.57,3.92.23,7.83.52l-.15,2c-1.83-.14-3.66-.26-5.49-.38-.06.91-.11,1.81-.17,2.72,1.55.09,3.09.2,4.64.31,0,.67-.1,1.35-.14,2-1.55-.12-3.09-.22-4.63-.32l-.18,2.81,5.4.37Z"/><path class="cls-4" d="M222.5,289.43l-2-.2c-1.29-2.51-2.62-5-4-7.51q-.32,3.54-.62,7.09l-2.26-.2q.47-5.78,1-11.55l2.07.18q2,3.74,4,7.49l.69-7.06,2.31.23Z"/><path class="cls-4" d="M235.13,281.24l-3.08-.38-1.14,9.5-2.25-.26c.36-3.17.73-6.34,1.09-9.51l-3.08-.35c.07-.67.14-1.34.22-2q4.25.45,8.49,1C235.3,279.9,235.22,280.57,235.13,281.24Z"/><path class="cls-4" d="M44,169.88q-3.52-24.12-7-49.24l-16.56.07q-3.47,26.19-6.89,53.47c-.49,3.81-1.4,6.3-2.74,7.45v11.82q7.2-1.68,14.42-3.2,0-5.67,0-11.32c-1.7.14-2.56-.85-2.56-3a16.52,16.52,0,0,1,.12-2c.15-1,.3-2,.44-3q4.58-.7,9.17-1.37c.12.94.25,1.89.37,2.84a17.42,17.42,0,0,1,.17,2.21A3.21,3.21,0,0,1,30.43,178c0,3.71,0,7.43,0,11.14q8.1-1.65,16.23-3.11,0-5.33.06-10.65C45.34,174.81,44.43,173,44,169.88Zm-19.51-9.3Q26,149,27.6,137.54l3.33,22.27Z"/><path class="cls-4" d="M95,120.46c0,2.25,0,4.5,0,6.74,0,.93,0,1.86,0,2.79a3.22,3.22,0,0,0-2.27,2.21,16,16,0,0,0-.31,3.72q-.11,14-.22,28,0,1,0,1.8a8.55,8.55,0,0,0,.22,1.88,2.69,2.69,0,0,0,2.22,1.95c0,3.18,0,6.35-.07,9.53l-.34,0q-7.86.88-15.71,1.93c0-3.28.06-6.57.09-9.85a3.69,3.69,0,0,0,2.26-2.46,16.52,16.52,0,0,0,.32-3.82c0-.91,0-1.81,0-2.72,0-4.83.07-9.67.12-14.5,0-2.16,0-4.32.06-6.48-.32,1.49-.65,3-1,4.48l-2.39,11.08q-2.64,12.39-5.27,25.07c-1.77.25-3.55.51-5.32.78q-3.72-19.57-7.44-39.88-.07,12.24-.17,24.48a17.6,17.6,0,0,0,.25,3.95,2.66,2.66,0,0,0,2.22,2c0,3.41-.05,6.82-.08,10.23q-6.94,1.09-13.85,2.32c0-3.54,0-7.07.06-10.6a4.06,4.06,0,0,0,2.25-2.7,19.07,19.07,0,0,0,.31-4.12q.09-15.39.19-30.78a18.51,18.51,0,0,0-.25-4.06,3,3,0,0,0-2.23-2.31c0-3.53,0-7.06.07-10.59l16.95-.06h1q1.51,8.59,3.06,17.07c.73,4,1.45,8,2.19,12,.25-1.33.5-2.65.76-4h0q1.35-7,2.7-13.82v0q1.1-5.7,2.23-11.34h3.36Z"/><path class="cls-4" d="M337.8,131.2c-1.91-7.06-6.41-10.5-13.47-10.51l-19.84-.08c0,3.56,0,7.13.06,10.69a3.35,3.35,0,0,1,2.26,2.5,20.72,20.72,0,0,1,.3,4.18q.08,15.72.17,31.46a19.71,19.71,0,0,1-.26,4.13,2.66,2.66,0,0,1-2.22,2.08c0,3.56,0,7.12.06,10.69q8,1.44,15.88,3.07,0-5.58,0-11.18a5.55,5.55,0,0,1-2.23-2.93,19.36,19.36,0,0,1-.3-4.29c0-1,0-2,0-3,2.24.31,4.48.64,6.72,1,7.32,1.11,11.79-2.4,13.44-10.83a71,71,0,0,0,.83-12.68C339.17,139.32,338.71,134.55,337.8,131.2Zm-10.91,21.05c-.87,1.18-2.55,1.63-5.05,1.38l-3.72-.37q0-8.89-.07-17.8l4.91.23a4.53,4.53,0,0,1,4.19,2.57q1,2.06,1,6.65C328.18,148.62,327.74,151.07,326.89,152.25Z"/><path class="cls-4" d="M301.25,131.19a2.89,2.89,0,0,0-2.22,2.26,18.57,18.57,0,0,0-.25,4.11q.08,13.55.16,27.08c.05,6.16-.5,10.45-1.59,12.83-2.43,5.27-7,7.24-13.67,6.2q-9.62-1.48-13.62-9.51a21.13,21.13,0,0,1-2-9.61c0-.45,0-.91,0-1.36,0-.74,0-1.47,0-2.21,0-4-.07-8-.09-11.94q-.06-6.39-.1-12.77a17.59,17.59,0,0,0-.31-3.8,3.1,3.1,0,0,0-2.23-2.25c0-1,0-2,0-3q0-3.36-.07-6.72l10.18,0h5.86c0,3.36.05,6.72.07,10.08a3,3,0,0,0-2.19,2.2,17.2,17.2,0,0,0-.25,3.88l0,4.57v.25q.07,10.44.17,20.91a14.67,14.67,0,0,0,.81,5.6,5.35,5.35,0,0,0,4.51,3.26c3.34.42,5-2.21,4.94-7.92q-.11-13.12-.19-26.24a18.82,18.82,0,0,0-.31-4,3.25,3.25,0,0,0-2.26-2.37c0-3.41-.05-6.81-.07-10.21l14.64,0C301.21,124.13,301.24,127.66,301.25,131.19Z"/><path class="cls-4" d="M262.16,176.49a45,45,0,0,1-5.92,2,28,28,0,0,1-9.76.88l-.94-.11c-6.33-.83-10.76-3.4-13.3-7.76a15.58,15.58,0,0,1-1.7-6.1c-.12-1.13-.18-2.38-.19-3.73q0-4.91-.07-9.83c0-5.87-.09-11.74-.12-17.61a18.57,18.57,0,0,1,1.14-7q2.22-5.74,8.86-7.36a25.39,25.39,0,0,1,5.78-.63,30.46,30.46,0,0,1,15.79,4.35c0,1.21,0,2.43,0,3.64.05,4.37.08,8.74.12,13.12-3.47-.15-6.94-.28-10.39-.41,0-.54,0-1.08,0-1.62,0-2.69-.55-4.65-1.61-5.86a4.45,4.45,0,0,0-3.47-1.5c-3.52-.06-5.24,2.56-5.21,7.87,0,4.28.06,8.57.1,12.85,0,2.65,0,5.3.06,7.95a12.08,12.08,0,0,0,1.06,5.65,5,5,0,0,0,4.31,2.44c3.33.28,5-2.17,4.92-7.38l0-4.74c3.46.23,6.93.47,10.39.72,0,1.09,0,2.17,0,3.26q0,6,.1,12C262.12,173.22,262.15,174.86,262.16,176.49Z"/><path class="cls-4" d="M211.58,127.2c0-2.27,0-4.54,0-6.81q-12.12,0-24.25,0H174.16v22.1c3,0,5.93,0,8.9,0,0-1.18,0-2.36,0-3.54,0-.71,0-1.41,0-2.11a11,11,0,0,1,.38-3.06,4.26,4.26,0,0,1,4-3.26q0,15,0,30a12.43,12.43,0,0,1-.26,3.42,3,3,0,0,1-2.26,2q0,3.31,0,6.63v2.21q5.58.08,11.13.24l5,.16c0-.63,0-1.26,0-1.89,0-2.34,0-4.67,0-7a3.13,3.13,0,0,1-2.26-2.07,13.23,13.23,0,0,1-.3-3.45l-.09-30.1a4.21,4.21,0,0,1,3.51,1.75,8.8,8.8,0,0,1,.83,4.38c0,2,0,4,0,6l8.91.17C211.62,137.64,211.61,132.42,211.58,127.2Zm-79.33,35c0-.27,0-.55,0-.82s0-1,0-1.68v-1.1c0-.55,0-.93,0-1.13,0-4.66-2.16-7.32-6.39-8,3.72-1.26,6.08-4,7.07-8.13a22,22,0,0,0,.56-5c0-.72,0-1.41-.06-2.09a19.1,19.1,0,0,0-1.6-7,11.18,11.18,0,0,0-3.5-4.43c-2.09-1.57-5.38-2.36-9.84-2.36H99c0,2.25,0,4.5,0,6.75,0,.31,0,.62,0,.93v.17c.15.65.32,1.14.49,1.78a2.8,2.8,0,0,1,1.73,1.92,16.06,16.06,0,0,1,.25,3.64c0,.29,0,.58,0,.87v.17q-.1,13.26-.2,26.52a16.62,16.62,0,0,1-.31,3.67,3.57,3.57,0,0,1-2.27,2.32c0,1.43,0,2.86,0,4.29,0,1.73,0,3.45,0,5.18l4.63-.47c3.81-.38,7.64-.73,11.46-1.05,0-3.08,0-6.15.07-9.23a2.75,2.75,0,0,1-2.24-1.92,14.33,14.33,0,0,1-.26-3.57l0-5.46c0-.74,0-1.47,0-2.21l4-.21c1.92-.09,3.25.33,4,1.25s1.14,2.53,1.12,4.8,0,4.53,0,6.78c0,.31,0,.61,0,.92a26.94,26.94,0,0,0,.87,8.25q4.89-.36,9.78-.64h0l2.24-.13c0-3,0-6,0-9Q132.24,165.8,132.25,162.19Zm-11.59-18.9a6.58,6.58,0,0,1-4.12,1.17l-2.05.07-2.2.08c0-1.35,0-2.7,0-4.05q0-4.67.08-9.34l3.51-.06h.49a7.17,7.17,0,0,1,4.38,1.12,5.12,5.12,0,0,1,1.64,3.41h0a12.59,12.59,0,0,1,.12,1.81C122.5,140.25,121.89,142.17,120.66,143.29Z"/><path class="cls-4" d="M172.62,120.37v8.82a2.78,2.78,0,0,0-2.25,1.95,13.68,13.68,0,0,0-.29,3.46v5.94c0,2.19,0,4.38,0,6.57v10.2c0,4.72-.47,8.18-1.43,10.39a5.46,5.46,0,0,1-.27.6,12.49,12.49,0,0,1-6.05,5.74,19.82,19.82,0,0,1-7.84,1.64,22.27,22.27,0,0,1-2.61-.06c-5.12-.38-8.8-2.46-11-6.32a14.65,14.65,0,0,1-1.84-6.82h0c0-.55,0-1.11,0-1.69,0-1.09,0-2.18,0-3.27,0-4.65.05-9.3.07-13.95,0-2.37,0-4.74,0-7.11,0-.53,0-1.07,0-1.6a14.57,14.57,0,0,0-.26-3.48,2.84,2.84,0,0,0-2.21-2V127.2c0-2.27,0-4.55,0-6.81l16,0c0,2.28,0,4.55,0,6.83,0,.68,0,1.37,0,2a3,3,0,0,0-2.23,2,13.19,13.19,0,0,0-.28,3.45c0,1.54,0,3.08,0,4.62q0,3.39,0,6.78,0,5.72,0,11.43a10.54,10.54,0,0,0,.76,4.87q1.24,2.37,4.52,2.29c3.36-.08,5-2.56,5-7.47q0-5.07,0-10.12v-6.57c0-2,0-3.94,0-5.91a13.19,13.19,0,0,0-.26-3.43,2.89,2.89,0,0,0-2.25-2v-2q0-3.42,0-6.83Z"/></g><path class="cls-2" d="M95.84,214.13l-3.26.55c-.07-.42-.14-.84-.22-1.26l3.26-.56C95.69,213.28,95.76,213.7,95.84,214.13Z"/><path class="cls-2" d="M98.86,213.63l-3.26.53-.21-1.26,3.26-.53Z"/><path class="cls-2" d="M101.88,213.15l-3.25.52-.21-1.27,3.27-.51C101.75,212.31,101.82,212.73,101.88,213.15Z"/><path class="cls-2" d="M104.91,212.7l-3.26.49c-.07-.42-.13-.84-.2-1.27l3.27-.49C104.78,211.85,104.85,212.27,104.91,212.7Z"/><path class="cls-2" d="M121.65,205.34c-.61,1.56-1.2,3.11-1.79,4.67l.36,3.07-1.46.17c-.12-1-.24-2-.37-3.07-.93-1.38-1.87-2.75-2.82-4.13l1.62-.2c.6,1,1.19,1.9,1.78,2.85.35-1.06.7-2.12,1.06-3.18Z"/><path class="cls-2" d="M132.18,209.26a2.48,2.48,0,0,1-.62,2,2.88,2.88,0,0,1-1.92.92,2.8,2.8,0,0,1-2-.54,2.43,2.43,0,0,1-1-1.82c-.17-1.64-.34-3.28-.5-4.92l1.49-.15.48,4.87a1.42,1.42,0,0,0,.45,1,1.27,1.27,0,0,0,1,.27,1.23,1.23,0,0,0,.92-.46,1.36,1.36,0,0,0,.27-1l-.45-4.88,1.48-.13C131.89,206,132,207.62,132.18,209.26Z"/><path class="cls-2" d="M142.39,203.49c-.68,2.56-1.34,5.13-2,7.69l-1.1.08q-1.53-3.66-3.1-7.31l1.55-.12q1,2.38,1.9,4.78.58-2.51,1.18-5Z"/><path class="cls-2" d="M153.25,210.42l-1.54.07-.51-1.3-2.69.14c-.13.45-.26.9-.38,1.35l-1.54.09c.76-2.56,1.55-5.12,2.34-7.67l1.18-.07C151.17,205.49,152.22,208,153.25,210.42ZM150.74,208c-.35-.9-.71-1.79-1.07-2.69l-.81,2.79Z"/><path class="cls-2" d="M163.91,210.06l-1.72,0c-.68-1.13-1.36-2.25-2.05-3.37-.32.4-.63.8-.95,1.19,0,.76.05,1.51.08,2.27l-1.48.05-.27-7.53,1.5-.05c0,1.09.07,2.18.11,3.28.86-1.13,1.72-2.25,2.6-3.36l1.82-.05q-1.25,1.53-2.46,3.06C162,207.08,163,208.56,163.91,210.06Z"/><path class="cls-2" d="M181.38,210l-1.47,0c0-1.46,0-2.92,0-4.39l-1.48,2.85h-1c-.48-1-1-1.91-1.45-2.86,0,1.46,0,2.93,0,4.39h-1.48V202.4H176q1,2,2,4.08c.67-1.35,1.34-2.71,2-4.06l1.5,0C181.45,205,181.42,207.46,181.38,210Z"/><path class="cls-2" d="M192.59,210.25l-1.53-.05c-.14-.45-.27-.9-.41-1.35l-2.69-.08c-.17.44-.33.88-.49,1.32l-1.54,0c1-2.48,2-5,3-7.45l1.18,0Q191.36,206.44,192.59,210.25Zm-2.29-2.65c-.28-.92-.56-1.84-.85-2.76-.35.9-.69,1.8-1,2.71Z"/><path class="cls-2" d="M202.92,210.75l-1.32-.08q-1.36-2.38-2.76-4.77c-.08,1.54-.15,3.08-.23,4.62l-1.47-.08q.17-3.75.35-7.52l1.33.07q1.41,2.37,2.79,4.76c.08-1.54.17-3.07.25-4.6l1.5.08C203.21,205.74,203.06,208.24,202.92,210.75Z"/><path class="cls-2" d="M214.07,207.73a13.79,13.79,0,0,1-.2,1.63,2.49,2.49,0,0,1-.82,1.37,2.7,2.7,0,0,1-2.05.56l-2.72-.2c.18-2.5.35-5,.53-7.51l2.76.2a2.76,2.76,0,0,1,2,.88,2.46,2.46,0,0,1,.6,1.45A12.54,12.54,0,0,1,214.07,207.73Zm-1.49-.12a9.36,9.36,0,0,0,0-1.28,1.38,1.38,0,0,0-.21-.7,1.4,1.4,0,0,0-1.08-.55l-1.13-.08-.36,4.89L211,210a1.38,1.38,0,0,0,1.14-.38,1.53,1.53,0,0,0,.32-.69A11,11,0,0,0,212.58,207.61Z"/><path class="cls-2" d="M224.68,212.53l-1.53-.16c-.1-.46-.21-.91-.31-1.37l-2.69-.26c-.19.43-.38.85-.58,1.28l-1.53-.14q1.71-3.63,3.46-7.24l1.17.11C223.36,207.34,224,209.94,224.68,212.53Zm-2.11-2.8-.66-2.82c-.41.88-.82,1.76-1.22,2.64Z"/><path class="cls-2" d="M234.09,213.61c-1.63-.2-3.26-.4-4.88-.58.28-2.5.57-5,.85-7.49l1.5.18c-.25,2.06-.49,4.11-.73,6.17l3.42.42C234.19,212.74,234.14,213.18,234.09,213.61Z"/><path class="cls-2" d="M248.25,213.19,245,212.7c.06-.43.12-.85.19-1.27l3.26.49C248.38,212.35,248.31,212.77,248.25,213.19Z"/><path class="cls-2" d="M251.27,213.67l-3.25-.52c.06-.42.13-.84.19-1.26l3.27.51Z"/><path class="cls-2" d="M254.29,214.16l-3.25-.53c.07-.42.14-.84.2-1.26l3.27.53C254.44,213.32,254.37,213.74,254.29,214.16Z"/><path class="cls-2" d="M257.31,214.68l-3.25-.55.21-1.27,3.26.56C257.46,213.84,257.39,214.26,257.31,214.68Z"/><text class="cls-5" transform="translate(139.17 323.06)">2<tspan class="cls-6" x="19.5" y="0">0</tspan><tspan class="cls-7" x="36.14" y="0">1</tspan><tspan x="52.05" y="0">8</tspan></text><path class="cls-2" d="M111.15,234.43c-2.63.3-5.25.61-7.88.94q-.73-5.91-1.49-11.84c2.68-.33,5.35-.65,8-.95l.24,2.06q-2.82.31-5.64.66c.11.93.23,1.85.34,2.78l4.78-.56c.07.68.15,1.37.23,2.06l-4.76.56.35,2.88c1.86-.23,3.71-.44,5.56-.65Z"/><path class="cls-2" d="M128,226.76a20.82,20.82,0,0,1,.11,2.61,4,4,0,0,1-.93,2.35,4.35,4.35,0,0,1-3.07,1.41c-1.44.12-2.88.26-4.32.4q-.58-5.94-1.15-11.88l4.41-.41a4.39,4.39,0,0,1,3.32.86,3.87,3.87,0,0,1,1.32,2.11A20.23,20.23,0,0,1,128,226.76Zm-2.37.19a15.52,15.52,0,0,0-.26-2,2.08,2.08,0,0,0-.51-1,2.19,2.19,0,0,0-1.85-.58l-1.79.16c.23,2.58.47,5.17.71,7.75l1.78-.17a2.15,2.15,0,0,0,1.69-.88,2.28,2.28,0,0,0,.33-1.16A16.64,16.64,0,0,0,125.66,227Z"/><path class="cls-2" d="M139.65,232l-2.34.15q-.41-6-.79-11.9l2.39-.16Q139.29,226,139.65,232Z"/><path class="cls-2" d="M156.51,227.64a3.15,3.15,0,0,1-1.17,2.7,5.16,5.16,0,0,1-3.16,1.08,6.05,6.05,0,0,1-4.46-1.38l1.45-1.58a4,4,0,0,0,3,.88c1.42-.06,2.11-.57,2.08-1.55a1.33,1.33,0,0,0-.39-1,2,2,0,0,0-1.11-.38l-1.47-.15c-2.15-.2-3.28-1.26-3.37-3.19a3.29,3.29,0,0,1,1-2.67,4.55,4.55,0,0,1,3.07-1.13,5.56,5.56,0,0,1,4,1.25L154.52,222a3.53,3.53,0,0,0-2.54-.73,2.06,2.06,0,0,0-1.38.49,1.36,1.36,0,0,0-.44,1.1,1.1,1.1,0,0,0,.42.85,2.07,2.07,0,0,0,1.12.41l1.44.14a4.3,4.3,0,0,1,2.36.84A3.27,3.27,0,0,1,156.51,227.64Z"/><path class="cls-2" d="M173.69,224.9a16.2,16.2,0,0,1-.15,2.7,3.73,3.73,0,0,1-1,2.06,4.74,4.74,0,0,1-6.51.07,3.89,3.89,0,0,1-1.09-2,17.22,17.22,0,0,1-.18-2.69,18.16,18.16,0,0,1,.09-2.7,3.74,3.74,0,0,1,1-2.08,4.82,4.82,0,0,1,6.62-.07,3.74,3.74,0,0,1,1.07,2.06A17,17,0,0,1,173.69,224.9Zm-2.37,0c0-.92,0-1.5,0-1.74a2.7,2.7,0,0,0-.57-1.61,2,2,0,0,0-1.54-.62,1.94,1.94,0,0,0-1.53.65,2.77,2.77,0,0,0-.53,1.62c0,.2,0,.78,0,1.74s0,1.54.06,1.74a2.73,2.73,0,0,0,.56,1.6,2.13,2.13,0,0,0,3.17-.19A6.67,6.67,0,0,0,171.32,224.91Z"/><path class="cls-2" d="M191.7,231.11l-2.09-.06q-2.28-3.72-4.63-7.42-.06,3.66-.13,7.32l-2.34,0q.08-6,.16-11.93l2.13,0q2.37,3.7,4.68,7.41l.18-7.3,2.39.06Q191.89,225.15,191.7,231.11Z"/><path class="cls-2" d="M203,232.48c-.84.57-1.67,1.15-2.49,1.72.07-1.71.15-3.42.23-5.14l2.42.12C203.13,230.28,203.08,231.38,203,232.48Z"/><path class="cls-2" d="M231.49,233.67l-2.08-.21q-2-3.87-4.11-7.73l-.63,7.3-2.34-.2q.49-5.94,1-11.89l2.13.18c1.41,2.57,2.79,5.14,4.16,7.71l.69-7.27,2.38.23Q232.09,227.73,231.49,233.67Z"/><path class="cls-2" d="M247.12,231.48a3.77,3.77,0,0,1-1.66,2.82,4.37,4.37,0,0,1-3.06.66,4.22,4.22,0,0,1-2.93-1.58l1.72-1.33a2.19,2.19,0,0,0,1.46.84c1.25.15,2-.45,2.13-1.8l1-7.85,2.38.29C247.79,226.18,247.45,228.83,247.12,231.48Z"/></g></g></svg>